<svg width="317" height="165" viewBox="0 0 317 165" fill="none" xmlns="http://www.w3.org/2000/svg">
<path d="M59.6058 99.2652L6 123.798V138.229H308.623V10L287.119 30.4094L264.367 21.7508L207.645 64.6311L145.936 35.5633L83.2921 68.7542L59.6058 99.2652Z" fill="url(#paint0_linear_1139_457)" fill-opacity="0.7"/>
<path d="M59.0779 143.029L6 131.371V164.286H308.623V90.2286L286.838 74.4572L257.922 125.886L203.656 103.943L133.942 151.6L80.0714 131.029L59.0779 143.029Z" fill="url(#paint1_linear_1139_457)" fill-opacity="0.7"/>
<g filter="url(#filter0_d_1139_457)">
<path d="M6 123.829L59.6058 99.2894L83.2921 68.7702L145.936 35.5702L207.645 64.646L264.367 21.754L287.119 30.4149L308.623 10" stroke="url(#paint2_linear_1139_457)" stroke-width="3" stroke-linecap="round" shape-rendering="crispEdges"/>
</g>
<g filter="url(#filter1_d_1139_457)">
<path d="M6.396 130L58.8135 141.804L80.0713 130L133.941 150.571L203.26 102.914L257.526 124.514L286.326 72.9292L311 90.5714" stroke="url(#paint3_linear_1139_457)" stroke-width="3" stroke-linecap="round" shape-rendering="crispEdges"/>
</g>
<g filter="url(#filter2_d_1139_457)">
<ellipse cx="146.221" cy="35.3714" rx="4.75325" ry="4.11429" fill="#BBF4F4"/>
</g>
<g filter="url(#filter3_d_1139_457)">
<ellipse cx="204.052" cy="102.571" rx="4.75325" ry="4.11429" fill="#BBF4F4"/>
</g>
<g filter="url(#filter4_d_1139_457)">
<rect x="37.5" y="5.5" width="92" height="25" rx="3.5" stroke="url(#paint4_linear_1139_457)" stroke-opacity="0.7" shape-rendering="crispEdges"/>
<g filter="url(#filter5_d_1139_457)">
<rect x="37.5" y="6" width="92" height="24" rx="3.5" stroke="url(#paint5_linear_1139_457)" stroke-opacity="0.7" shape-rendering="crispEdges"/>
<path d="M43.8807 22V14.7273H48.2699V15.5085H44.7614V17.9659H48.0426V18.7472H44.7614V21.2188H48.3267V22H43.8807ZM52.1726 16.5455V17.2557H49.2322V16.5455H52.1726ZM50.1129 22V15.7926C50.1129 15.4801 50.1863 15.2197 50.3331 15.0114C50.4799 14.803 50.6705 14.6468 50.9048 14.5426C51.1392 14.4384 51.3866 14.3864 51.647 14.3864C51.853 14.3864 52.0211 14.4029 52.1513 14.4361C52.2815 14.4692 52.3786 14.5 52.4425 14.5284L52.201 15.2528C52.1584 15.2386 52.0992 15.2209 52.0234 15.1996C51.95 15.1783 51.853 15.1676 51.7322 15.1676C51.4553 15.1676 51.2552 15.2375 51.1321 15.3771C51.0114 15.5168 50.951 15.7216 50.951 15.9915V22H50.1129ZM55.7761 16.5455V17.2557H52.8358V16.5455H55.7761ZM53.7164 22V15.7926C53.7164 15.4801 53.7898 15.2197 53.9366 15.0114C54.0834 14.803 54.274 14.6468 54.5083 14.5426C54.7427 14.4384 54.9901 14.3864 55.2505 14.3864C55.4565 14.3864 55.6246 14.4029 55.7548 14.4361C55.885 14.4692 55.9821 14.5 56.046 14.5284L55.8045 15.2528C55.7619 15.2386 55.7027 15.2209 55.627 15.1996C55.5536 15.1783 55.4565 15.1676 55.3358 15.1676C55.0588 15.1676 54.8587 15.2375 54.7356 15.3771C54.6149 15.5168 54.5545 15.7216 54.5545 15.9915V22H53.7164ZM56.9506 22V16.5455H57.7887V22H56.9506ZM57.3768 15.6364C57.2134 15.6364 57.0726 15.5807 56.9542 15.4695C56.8382 15.3582 56.7802 15.2244 56.7802 15.0682C56.7802 14.9119 56.8382 14.7782 56.9542 14.6669C57.0726 14.5556 57.2134 14.5 57.3768 14.5C57.5401 14.5 57.6798 14.5556 57.7958 14.6669C57.9142 14.7782 57.9734 14.9119 57.9734 15.0682C57.9734 15.2244 57.9142 15.3582 57.7958 15.4695C57.6798 15.5807 57.5401 15.6364 57.3768 15.6364ZM61.5396 22.1136C61.0282 22.1136 60.5879 21.9929 60.2186 21.7514C59.8493 21.5099 59.5652 21.1773 59.3663 20.7536C59.1674 20.3298 59.068 19.8456 59.068 19.3011C59.068 18.7472 59.1698 18.2583 59.3734 17.8345C59.5794 17.4084 59.8658 17.0758 60.2328 16.8366C60.6021 16.5952 61.033 16.4744 61.5254 16.4744C61.9089 16.4744 62.2546 16.5455 62.5623 16.6875C62.8701 16.8295 63.1222 17.0284 63.3187 17.2841C63.5152 17.5398 63.6371 17.8381 63.6845 18.179H62.8464C62.7825 17.9304 62.6404 17.7102 62.4203 17.5185C62.2025 17.3243 61.9089 17.2273 61.5396 17.2273C61.2129 17.2273 60.9264 17.3125 60.6802 17.483C60.4364 17.651 60.2458 17.889 60.1085 18.1967C59.9735 18.5021 59.9061 18.8608 59.9061 19.2727C59.9061 19.6941 59.9724 20.0611 60.1049 20.3736C60.2399 20.6861 60.4293 20.9287 60.6731 21.1016C60.9193 21.2744 61.2082 21.3608 61.5396 21.3608C61.7574 21.3608 61.9551 21.3229 62.1326 21.2472C62.3102 21.1714 62.4605 21.0625 62.5836 20.9205C62.7067 20.7784 62.7943 20.608 62.8464 20.4091H63.6845C63.6371 20.7311 63.5199 21.0211 63.3329 21.2791C63.1483 21.5348 62.9032 21.7384 62.5978 21.8899C62.2948 22.0391 61.9421 22.1136 61.5396 22.1136ZM64.9096 22V16.5455H65.7477V22H64.9096ZM65.3358 15.6364C65.1724 15.6364 65.0315 15.5807 64.9132 15.4695C64.7972 15.3582 64.7392 15.2244 64.7392 15.0682C64.7392 14.9119 64.7972 14.7782 64.9132 14.6669C65.0315 14.5556 65.1724 14.5 65.3358 14.5C65.4991 14.5 65.6388 14.5556 65.7548 14.6669C65.8732 14.7782 65.9324 14.9119 65.9324 15.0682C65.9324 15.2244 65.8732 15.3582 65.7548 15.4695C65.6388 15.5807 65.4991 15.6364 65.3358 15.6364ZM69.5696 22.1136C69.044 22.1136 68.5907 21.9976 68.2095 21.7656C67.8307 21.5312 67.5384 21.2045 67.3324 20.7855C67.1288 20.3641 67.027 19.8741 67.027 19.3153C67.027 18.7566 67.1288 18.2642 67.3324 17.8381C67.5384 17.4096 67.8248 17.0758 68.1918 16.8366C68.5611 16.5952 68.992 16.4744 69.4844 16.4744C69.7685 16.4744 70.049 16.5218 70.326 16.6165C70.603 16.7112 70.8551 16.8651 71.0824 17.0781C71.3097 17.2888 71.4908 17.5682 71.6257 17.9162C71.7607 18.2642 71.8281 18.6927 71.8281 19.2017V19.5568H67.6236V18.8324H70.9759C70.9759 18.5246 70.9143 18.25 70.7912 18.0085C70.6705 17.767 70.4976 17.5765 70.2727 17.4368C70.0502 17.2971 69.7874 17.2273 69.4844 17.2273C69.1506 17.2273 68.8617 17.3101 68.6179 17.4759C68.3764 17.6392 68.1906 17.8523 68.0604 18.1151C67.9302 18.3778 67.8651 18.6596 67.8651 18.9602V19.4432C67.8651 19.8551 67.9361 20.2043 68.0781 20.4908C68.2225 20.7749 68.4226 20.9915 68.6783 21.1406C68.9339 21.2874 69.2311 21.3608 69.5696 21.3608C69.7898 21.3608 69.9886 21.33 70.1662 21.2685C70.3461 21.2045 70.5012 21.1098 70.6314 20.9844C70.7616 20.8565 70.8622 20.6979 70.9332 20.5085L71.7429 20.7358C71.6577 21.0104 71.5144 21.2519 71.3132 21.4602C71.112 21.6662 70.8634 21.8272 70.5675 21.9432C70.2715 22.0568 69.9389 22.1136 69.5696 22.1136ZM73.9411 18.7188V22H73.103V16.5455H73.9126V17.3977H73.9837C74.1115 17.1207 74.3056 16.8982 74.5661 16.7301C74.8265 16.5597 75.1626 16.4744 75.5746 16.4744C75.9439 16.4744 76.267 16.5502 76.544 16.7017C76.821 16.8509 77.0365 17.0781 77.1903 17.3835C77.3442 17.6866 77.4212 18.0701 77.4212 18.5341V22H76.5831V18.5909C76.5831 18.1624 76.4718 17.8286 76.2493 17.5895C76.0268 17.348 75.7214 17.2273 75.3331 17.2273C75.0656 17.2273 74.8265 17.2853 74.6158 17.4013C74.4074 17.5173 74.2429 17.6866 74.1222 17.9091C74.0014 18.1316 73.9411 18.4015 73.9411 18.7188ZM81.1685 22.1136C80.6571 22.1136 80.2168 21.9929 79.8475 21.7514C79.4782 21.5099 79.1941 21.1773 78.9952 20.7536C78.7963 20.3298 78.6969 19.8456 78.6969 19.3011C78.6969 18.7472 78.7987 18.2583 79.0023 17.8345C79.2083 17.4084 79.4947 17.0758 79.8617 16.8366C80.231 16.5952 80.6619 16.4744 81.1543 16.4744C81.5378 16.4744 81.8835 16.5455 82.1912 16.6875C82.499 16.8295 82.7511 17.0284 82.9476 17.2841C83.1441 17.5398 83.266 17.8381 83.3134 18.179H82.4753C82.4114 17.9304 82.2694 17.7102 82.0492 17.5185C81.8314 17.3243 81.5378 17.2273 81.1685 17.2273C80.8418 17.2273 80.5553 17.3125 80.3091 17.483C80.0653 17.651 79.8747 17.889 79.7374 18.1967C79.6025 18.5021 79.535 18.8608 79.535 19.2727C79.535 19.6941 79.6013 20.0611 79.7338 20.3736C79.8688 20.6861 80.0582 20.9287 80.302 21.1016C80.5482 21.2744 80.8371 21.3608 81.1685 21.3608C81.3863 21.3608 81.584 21.3229 81.7615 21.2472C81.9391 21.1714 82.0894 21.0625 82.2125 20.9205C82.3356 20.7784 82.4232 20.608 82.4753 20.4091H83.3134C83.266 20.7311 83.1489 21.0211 82.9618 21.2791C82.7772 21.5348 82.5321 21.7384 82.2267 21.8899C81.9237 22.0391 81.571 22.1136 81.1685 22.1136ZM85.0783 24.0455C84.9363 24.0455 84.8096 24.0336 84.6983 24.0099C84.5871 23.9886 84.5101 23.9673 84.4675 23.946L84.6806 23.2074C84.8842 23.2595 85.0641 23.2784 85.2203 23.2642C85.3766 23.25 85.5151 23.1802 85.6358 23.0547C85.7589 22.9316 85.8714 22.7315 85.9732 22.4545L86.1294 22.0284L84.1124 16.5455H85.0215L86.5272 20.892H86.584L88.0897 16.5455H88.9988L86.6834 22.7955C86.5792 23.0772 86.4502 23.3104 86.2963 23.495C86.1425 23.6821 85.9637 23.8205 85.7601 23.9105C85.5589 24.0005 85.3316 24.0455 85.0783 24.0455ZM95.0481 20.7216V16.0341H95.8436V20.7216H95.0481ZM93.1021 18.7756V17.9801H97.7896V18.7756H93.1021ZM102.052 14.7273V22H101.171V15.6506H101.129L99.353 16.8295V15.9347L101.171 14.7273H102.052ZM104.143 22V21.3608L106.544 18.733C106.826 18.4252 107.058 18.1577 107.24 17.9304C107.422 17.7008 107.557 17.4853 107.645 17.2841C107.735 17.0805 107.78 16.8674 107.78 16.6449C107.78 16.3892 107.718 16.1679 107.595 15.9808C107.474 15.7938 107.309 15.6494 107.098 15.5476C106.887 15.4458 106.651 15.3949 106.388 15.3949C106.108 15.3949 105.865 15.4529 105.656 15.5689C105.45 15.6825 105.29 15.8423 105.177 16.0483C105.066 16.2543 105.01 16.4957 105.01 16.7727H104.172C104.172 16.3466 104.27 15.9725 104.467 15.6506C104.663 15.3286 104.931 15.0777 105.269 14.8977C105.61 14.7178 105.992 14.6278 106.416 14.6278C106.842 14.6278 107.22 14.7178 107.549 14.8977C107.878 15.0777 108.136 15.3203 108.323 15.6257C108.51 15.9311 108.604 16.2708 108.604 16.6449C108.604 16.9124 108.555 17.174 108.458 17.4297C108.363 17.683 108.198 17.9659 107.961 18.2784C107.727 18.5885 107.401 18.9673 106.984 19.4148L105.351 21.1619V21.2188H108.732V22H104.143ZM112.57 22.0994C112.035 22.0994 111.58 21.9538 111.203 21.6626C110.827 21.3691 110.539 20.9441 110.34 20.3878C110.141 19.8291 110.042 19.1544 110.042 18.3636C110.042 17.5777 110.141 16.9065 110.34 16.3501C110.541 15.7914 110.83 15.3653 111.207 15.0717C111.585 14.7758 112.04 14.6278 112.57 14.6278C113.101 14.6278 113.554 14.7758 113.93 15.0717C114.309 15.3653 114.598 15.7914 114.797 16.3501C114.998 16.9065 115.099 17.5777 115.099 18.3636C115.099 19.1544 114.999 19.8291 114.8 20.3878C114.602 20.9441 114.314 21.3691 113.938 21.6626C113.561 21.9538 113.105 22.0994 112.57 22.0994ZM112.57 21.3182C113.101 21.3182 113.513 21.0625 113.806 20.5511C114.1 20.0398 114.246 19.3106 114.246 18.3636C114.246 17.7339 114.179 17.1977 114.044 16.755C113.911 16.3123 113.72 15.9749 113.469 15.7429C113.22 15.5109 112.921 15.3949 112.57 15.3949C112.045 15.3949 111.634 15.6541 111.338 16.1726C111.042 16.6887 110.894 17.419 110.894 18.3636C110.894 18.9934 110.96 19.5284 111.093 19.9688C111.226 20.4091 111.416 20.7441 111.665 20.9737C111.916 21.2034 112.218 21.3182 112.57 21.3182ZM120.156 20.6364V20.2528C120.156 19.9877 120.21 19.745 120.319 19.5249C120.43 19.3023 120.591 19.1248 120.802 18.9922C121.015 18.8572 121.273 18.7898 121.576 18.7898C121.884 18.7898 122.142 18.8572 122.35 18.9922C122.558 19.1248 122.716 19.3023 122.822 19.5249C122.929 19.745 122.982 19.9877 122.982 20.2528V20.6364C122.982 20.9015 122.928 21.1454 122.819 21.3679C122.712 21.5881 122.554 21.7656 122.343 21.9006C122.135 22.0331 121.879 22.0994 121.576 22.0994C121.268 22.0994 121.009 22.0331 120.798 21.9006C120.588 21.7656 120.428 21.5881 120.319 21.3679C120.21 21.1454 120.156 20.9015 120.156 20.6364ZM120.88 20.2528V20.6364C120.88 20.8565 120.932 21.0542 121.036 21.2294C121.14 21.4022 121.32 21.4886 121.576 21.4886C121.825 21.4886 122 21.4022 122.102 21.2294C122.206 21.0542 122.258 20.8565 122.258 20.6364V20.2528C122.258 20.0327 122.208 19.8362 122.109 19.6634C122.009 19.4882 121.832 19.4006 121.576 19.4006C121.327 19.4006 121.149 19.4882 121.04 19.6634C120.933 19.8362 120.88 20.0327 120.88 20.2528ZM116.533 16.4744V16.0909C116.533 15.8258 116.588 15.5831 116.697 15.3629C116.808 15.1404 116.969 14.9628 117.18 14.8303C117.393 14.6953 117.651 14.6278 117.954 14.6278C118.262 14.6278 118.52 14.6953 118.728 14.8303C118.936 14.9628 119.094 15.1404 119.2 15.3629C119.307 15.5831 119.36 15.8258 119.36 16.0909V16.4744C119.36 16.7396 119.306 16.9834 119.197 17.206C119.09 17.4261 118.932 17.6037 118.721 17.7386C118.513 17.8712 118.257 17.9375 117.954 17.9375C117.646 17.9375 117.387 17.8712 117.176 17.7386C116.965 17.6037 116.806 17.4261 116.697 17.206C116.588 16.9834 116.533 16.7396 116.533 16.4744ZM117.258 16.0909V16.4744C117.258 16.6946 117.31 16.8923 117.414 17.0675C117.518 17.2403 117.698 17.3267 117.954 17.3267C118.202 17.3267 118.378 17.2403 118.479 17.0675C118.584 16.8923 118.636 16.6946 118.636 16.4744V16.0909C118.636 15.8707 118.586 15.6742 118.487 15.5014C118.387 15.3262 118.21 15.2386 117.954 15.2386C117.705 15.2386 117.527 15.3262 117.418 15.5014C117.311 15.6742 117.258 15.8707 117.258 16.0909ZM116.803 22L121.803 14.7273H122.613L117.613 22H116.803Z" fill="white"/>
</g>
</g>
<g filter="url(#filter6_d_1139_457)">
<rect x="211.5" y="67.5" width="61" height="25" rx="3.5" stroke="url(#paint6_linear_1139_457)" stroke-opacity="0.7" shape-rendering="crispEdges"/>
<g filter="url(#filter7_d_1139_457)">
<rect x="211.5" y="68" width="61" height="24" rx="3.5" stroke="url(#paint7_linear_1139_457)" stroke-opacity="0.7" shape-rendering="crispEdges"/>
<path d="M223.733 79H222.852C222.8 78.7467 222.709 78.5241 222.579 78.3324C222.451 78.1406 222.295 77.9796 222.11 77.8494C221.928 77.7169 221.725 77.6174 221.503 77.5511C221.28 77.4848 221.048 77.4517 220.807 77.4517C220.366 77.4517 219.968 77.563 219.61 77.7855C219.255 78.008 218.972 78.3359 218.761 78.7692C218.553 79.2024 218.449 79.7339 218.449 80.3636C218.449 80.9934 218.553 81.5249 218.761 81.9581C218.972 82.3913 219.255 82.7192 219.61 82.9418C219.968 83.1643 220.366 83.2756 220.807 83.2756C221.048 83.2756 221.28 83.2424 221.503 83.1761C221.725 83.1098 221.928 83.0116 222.11 82.8814C222.295 82.7488 222.451 82.5866 222.579 82.3949C222.709 82.2008 222.8 81.9782 222.852 81.7273H223.733C223.667 82.099 223.546 82.4316 223.371 82.7251C223.196 83.0187 222.978 83.2685 222.717 83.4744C222.457 83.678 222.165 83.8331 221.84 83.9396C221.518 84.0462 221.174 84.0994 220.807 84.0994C220.187 84.0994 219.635 83.9479 219.152 83.6449C218.669 83.3419 218.289 82.911 218.012 82.3523C217.735 81.7936 217.597 81.1307 217.597 80.3636C217.597 79.5966 217.735 78.9337 218.012 78.375C218.289 77.8163 218.669 77.3854 219.152 77.0824C219.635 76.7794 220.187 76.6278 220.807 76.6278C221.174 76.6278 221.518 76.6811 221.84 76.7876C222.165 76.8942 222.457 77.0504 222.717 77.2564C222.978 77.46 223.196 77.7086 223.371 78.0021C223.546 78.2933 223.667 78.6259 223.733 79ZM227.258 84.1136C226.766 84.1136 226.334 83.9964 225.962 83.7621C225.593 83.5277 225.304 83.1998 225.096 82.7784C224.89 82.357 224.787 81.8646 224.787 81.3011C224.787 80.733 224.89 80.237 225.096 79.8132C225.304 79.3894 225.593 79.0604 225.962 78.826C226.334 78.5916 226.766 78.4744 227.258 78.4744C227.751 78.4744 228.182 78.5916 228.551 78.826C228.923 79.0604 229.211 79.3894 229.417 79.8132C229.626 80.237 229.73 80.733 229.73 81.3011C229.73 81.8646 229.626 82.357 229.417 82.7784C229.211 83.1998 228.923 83.5277 228.551 83.7621C228.182 83.9964 227.751 84.1136 227.258 84.1136ZM227.258 83.3608C227.632 83.3608 227.94 83.2649 228.182 83.0732C228.423 82.8814 228.602 82.6293 228.718 82.3168C228.834 82.0043 228.892 81.6657 228.892 81.3011C228.892 80.9366 228.834 80.5968 228.718 80.282C228.602 79.9671 228.423 79.7126 228.182 79.5185C227.94 79.3243 227.632 79.2273 227.258 79.2273C226.884 79.2273 226.577 79.3243 226.335 79.5185C226.094 79.7126 225.915 79.9671 225.799 80.282C225.683 80.5968 225.625 80.9366 225.625 81.3011C225.625 81.6657 225.683 82.0043 225.799 82.3168C225.915 82.6293 226.094 82.8814 226.335 83.0732C226.577 83.2649 226.884 83.3608 227.258 83.3608ZM234.873 79.767L234.12 79.9801C234.073 79.8546 234.003 79.7327 233.911 79.6143C233.821 79.4936 233.697 79.3942 233.541 79.3161C233.385 79.2379 233.185 79.1989 232.941 79.1989C232.607 79.1989 232.329 79.2758 232.107 79.4297C231.886 79.5812 231.776 79.7741 231.776 80.0085C231.776 80.2169 231.852 80.3814 232.004 80.5021C232.155 80.6229 232.392 80.7235 232.714 80.804L233.523 81.0028C234.011 81.1212 234.375 81.3023 234.614 81.5462C234.853 81.7876 234.972 82.099 234.972 82.4801C234.972 82.7926 234.882 83.072 234.702 83.3182C234.525 83.5644 234.276 83.7585 233.957 83.9006C233.637 84.0426 233.265 84.1136 232.842 84.1136C232.285 84.1136 231.825 83.9929 231.46 83.7514C231.096 83.5099 230.865 83.1572 230.768 82.6932L231.563 82.4943C231.639 82.7879 231.782 83.008 231.993 83.1548C232.206 83.3016 232.484 83.375 232.827 83.375C233.218 83.375 233.528 83.2921 233.758 83.1264C233.99 82.9583 234.106 82.7571 234.106 82.5227C234.106 82.3333 234.04 82.1747 233.907 82.0469C233.774 81.9167 233.571 81.8196 233.296 81.7557L232.387 81.5426C231.888 81.4242 231.521 81.2408 231.286 80.9922C231.054 80.7412 230.938 80.4276 230.938 80.0511C230.938 79.7434 231.025 79.4711 231.197 79.2344C231.373 78.9976 231.611 78.8118 231.911 78.6768C232.214 78.5419 232.558 78.4744 232.941 78.4744C233.481 78.4744 233.905 78.5928 234.212 78.8295C234.522 79.0663 234.743 79.3788 234.873 79.767ZM238.606 78.5455V79.2557H235.779V78.5455H238.606ZM236.603 77.2386H237.441V82.4375C237.441 82.6742 237.476 82.8518 237.544 82.9702C237.615 83.0862 237.705 83.1643 237.814 83.2045C237.925 83.2424 238.043 83.2614 238.166 83.2614C238.258 83.2614 238.334 83.2566 238.393 83.2472C238.452 83.2353 238.499 83.2259 238.535 83.2188L238.705 83.9716C238.649 83.9929 238.569 84.0142 238.468 84.0355C238.366 84.0592 238.237 84.071 238.08 84.071C237.844 84.071 237.612 84.0201 237.384 83.9183C237.16 83.8165 236.972 83.6615 236.823 83.4531C236.677 83.2448 236.603 82.982 236.603 82.6648V77.2386ZM245.804 79.973V80.7543H242.622V79.973H245.804ZM249.679 84.0994C249.381 84.0947 249.083 84.0379 248.784 83.929C248.486 83.8201 248.214 83.6366 247.968 83.3786C247.721 83.1181 247.524 82.7666 247.375 82.3239C247.225 81.8788 247.151 81.3201 247.151 80.6477C247.151 80.0038 247.211 79.4332 247.332 78.9361C247.453 78.4366 247.628 78.0163 247.858 77.6754C248.087 77.3321 248.364 77.0717 248.689 76.8942C249.015 76.7166 249.383 76.6278 249.793 76.6278C250.2 76.6278 250.562 76.7095 250.88 76.8729C251.199 77.0339 251.46 77.2588 251.661 77.5476C251.862 77.8364 251.992 78.169 252.051 78.5455H251.185C251.105 78.2187 250.948 77.9477 250.716 77.7322C250.484 77.5168 250.176 77.4091 249.793 77.4091C249.23 77.4091 248.786 77.6541 248.461 78.1442C248.139 78.6342 247.977 79.322 247.975 80.2074H248.032C248.164 80.0062 248.322 79.8345 248.504 79.6925C248.689 79.5481 248.892 79.4368 249.115 79.3587C249.337 79.2805 249.573 79.2415 249.821 79.2415C250.238 79.2415 250.619 79.3456 250.965 79.554C251.31 79.7599 251.587 80.0452 251.796 80.4098C252.004 80.772 252.108 81.1875 252.108 81.6562C252.108 82.1061 252.008 82.518 251.806 82.892C251.605 83.2637 251.322 83.5597 250.958 83.7798C250.596 83.9976 250.169 84.1042 249.679 84.0994ZM249.679 83.3182C249.978 83.3182 250.245 83.2436 250.482 83.0945C250.721 82.9453 250.909 82.7453 251.047 82.4943C251.186 82.2434 251.256 81.964 251.256 81.6562C251.256 81.3556 251.189 81.0821 251.054 80.8359C250.921 80.5874 250.738 80.3897 250.503 80.2429C250.271 80.0961 250.006 80.0227 249.708 80.0227C249.483 80.0227 249.273 80.0677 249.079 80.1577C248.885 80.2453 248.715 80.366 248.568 80.5199C248.423 80.6738 248.31 80.8501 248.227 81.049C248.144 81.2455 248.103 81.4527 248.103 81.6705C248.103 81.9593 248.17 82.2292 248.305 82.4801C248.442 82.7311 248.629 82.9335 248.866 83.0874C249.105 83.2412 249.376 83.3182 249.679 83.3182ZM253.732 84L256.985 77.5653V77.5085H253.235V76.7273H257.894V77.5511L254.655 84H253.732ZM262.925 82.6364V82.2528C262.925 81.9877 262.98 81.745 263.088 81.5249C263.2 81.3023 263.361 81.1248 263.571 80.9922C263.784 80.8572 264.042 80.7898 264.346 80.7898C264.653 80.7898 264.911 80.8572 265.12 80.9922C265.328 81.1248 265.485 81.3023 265.592 81.5249C265.699 81.745 265.752 81.9877 265.752 82.2528V82.6364C265.752 82.9015 265.697 83.1454 265.588 83.3679C265.482 83.5881 265.323 83.7656 265.113 83.9006C264.904 84.0331 264.649 84.0994 264.346 84.0994C264.038 84.0994 263.779 84.0331 263.568 83.9006C263.357 83.7656 263.197 83.5881 263.088 83.3679C262.98 83.1454 262.925 82.9015 262.925 82.6364ZM263.65 82.2528V82.6364C263.65 82.8565 263.702 83.0542 263.806 83.2294C263.91 83.4022 264.09 83.4886 264.346 83.4886C264.594 83.4886 264.769 83.4022 264.871 83.2294C264.975 83.0542 265.027 82.8565 265.027 82.6364V82.2528C265.027 82.0327 264.978 81.8362 264.878 81.6634C264.779 81.4882 264.601 81.4006 264.346 81.4006C264.097 81.4006 263.918 81.4882 263.809 81.6634C263.703 81.8362 263.65 82.0327 263.65 82.2528ZM259.303 78.4744V78.0909C259.303 77.8258 259.357 77.5831 259.466 77.3629C259.578 77.1404 259.739 76.9628 259.949 76.8303C260.162 76.6953 260.42 76.6278 260.723 76.6278C261.031 76.6278 261.289 76.6953 261.498 76.8303C261.706 76.9628 261.863 77.1404 261.97 77.3629C262.076 77.5831 262.13 77.8258 262.13 78.0909V78.4744C262.13 78.7396 262.075 78.9834 261.966 79.206C261.86 79.4261 261.701 79.6037 261.49 79.7386C261.282 79.8712 261.026 79.9375 260.723 79.9375C260.416 79.9375 260.156 79.8712 259.946 79.7386C259.735 79.6037 259.575 79.4261 259.466 79.206C259.357 78.9834 259.303 78.7396 259.303 78.4744ZM260.027 78.0909V78.4744C260.027 78.6946 260.079 78.8923 260.184 79.0675C260.288 79.2403 260.468 79.3267 260.723 79.3267C260.972 79.3267 261.147 79.2403 261.249 79.0675C261.353 78.8923 261.405 78.6946 261.405 78.4744V78.0909C261.405 77.8707 261.355 77.6742 261.256 77.5014C261.157 77.3262 260.979 77.2386 260.723 77.2386C260.475 77.2386 260.296 77.3262 260.187 77.5014C260.081 77.6742 260.027 77.8707 260.027 78.0909ZM259.573 84L264.573 76.7273H265.382L260.382 84H259.573Z" fill="white"/>
</g>
</g>
<defs>
<filter id="filter0_d_1139_457" x="0.499756" y="6.5" width="313.624" height="124.829" filterUnits="userSpaceOnUse" color-interpolation-filters="sRGB">
<feFlood flood-opacity="0" result="BackgroundImageFix"/>
<feColorMatrix in="SourceAlpha" type="matrix" values="0 0 0 0 0 0 0 0 0 0 0 0 0 0 0 0 0 0 127 0" result="hardAlpha"/>
<feOffset dy="2"/>
<feGaussianBlur stdDeviation="2"/>
<feComposite in2="hardAlpha" operator="out"/>
<feColorMatrix type="matrix" values="0 0 0 0 0 0 0 0 0 0 0 0 0 0 0 0 0 0 0.25 0"/>
<feBlend mode="normal" in2="BackgroundImageFix" result="effect1_dropShadow_1139_457"/>
<feBlend mode="normal" in="SourceGraphic" in2="effect1_dropShadow_1139_457" result="shape"/>
</filter>
<filter id="filter1_d_1139_457" x="0.895752" y="68.7334" width="315.604" height="89.5203" filterUnits="userSpaceOnUse" color-interpolation-filters="sRGB">
<feFlood flood-opacity="0" result="BackgroundImageFix"/>
<feColorMatrix in="SourceAlpha" type="matrix" values="0 0 0 0 0 0 0 0 0 0 0 0 0 0 0 0 0 0 127 0" result="hardAlpha"/>
<feOffset dy="2"/>
<feGaussianBlur stdDeviation="2"/>
<feComposite in2="hardAlpha" operator="out"/>
<feColorMatrix type="matrix" values="0 0 0 0 0 0 0 0 0 0 0 0 0 0 0 0 0 0 0.25 0"/>
<feBlend mode="normal" in2="BackgroundImageFix" result="effect1_dropShadow_1139_457"/>
<feBlend mode="normal" in="SourceGraphic" in2="effect1_dropShadow_1139_457" result="shape"/>
</filter>
<filter id="filter2_d_1139_457" x="135.468" y="25.2571" width="21.5066" height="20.2286" filterUnits="userSpaceOnUse" color-interpolation-filters="sRGB">
<feFlood flood-opacity="0" result="BackgroundImageFix"/>
<feColorMatrix in="SourceAlpha" type="matrix" values="0 0 0 0 0 0 0 0 0 0 0 0 0 0 0 0 0 0 127 0" result="hardAlpha"/>
<feMorphology radius="2" operator="dilate" in="SourceAlpha" result="effect1_dropShadow_1139_457"/>
<feOffset/>
<feGaussianBlur stdDeviation="2"/>
<feComposite in2="hardAlpha" operator="out"/>
<feColorMatrix type="matrix" values="0 0 0 0 0.12549 0 0 0 0 0.643137 0 0 0 0 0.643137 0 0 0 0.6 0"/>
<feBlend mode="normal" in2="BackgroundImageFix" result="effect1_dropShadow_1139_457"/>
<feBlend mode="normal" in="SourceGraphic" in2="effect1_dropShadow_1139_457" result="shape"/>
</filter>
<filter id="filter3_d_1139_457" x="193.299" y="92.4572" width="21.5066" height="20.2286" filterUnits="userSpaceOnUse" color-interpolation-filters="sRGB">
<feFlood flood-opacity="0" result="BackgroundImageFix"/>
<feColorMatrix in="SourceAlpha" type="matrix" values="0 0 0 0 0 0 0 0 0 0 0 0 0 0 0 0 0 0 127 0" result="hardAlpha"/>
<feMorphology radius="2" operator="dilate" in="SourceAlpha" result="effect1_dropShadow_1139_457"/>
<feOffset/>
<feGaussianBlur stdDeviation="2"/>
<feComposite in2="hardAlpha" operator="out"/>
<feColorMatrix type="matrix" values="0 0 0 0 0.12549 0 0 0 0 0.643137 0 0 0 0 0.643137 0 0 0 0.6 0"/>
<feBlend mode="normal" in2="BackgroundImageFix" result="effect1_dropShadow_1139_457"/>
<feBlend mode="normal" in="SourceGraphic" in2="effect1_dropShadow_1139_457" result="shape"/>
</filter>
<filter id="filter4_d_1139_457" x="32" y="0" width="103" height="36" filterUnits="userSpaceOnUse" color-interpolation-filters="sRGB">
<feFlood flood-opacity="0" result="BackgroundImageFix"/>
<feColorMatrix in="SourceAlpha" type="matrix" values="0 0 0 0 0 0 0 0 0 0 0 0 0 0 0 0 0 0 127 0" result="hardAlpha"/>
<feMorphology radius="1" operator="dilate" in="SourceAlpha" result="effect1_dropShadow_1139_457"/>
<feOffset/>
<feGaussianBlur stdDeviation="2"/>
<feComposite in2="hardAlpha" operator="out"/>
<feColorMatrix type="matrix" values="0 0 0 0 0.137255 0 0 0 0 0.835294 0 0 0 0 0.835294 0 0 0 1 0"/>
<feBlend mode="normal" in2="BackgroundImageFix" result="effect1_dropShadow_1139_457"/>
<feBlend mode="normal" in="SourceGraphic" in2="effect1_dropShadow_1139_457" result="shape"/>
</filter>
<filter id="filter5_d_1139_457" x="32" y="0.5" width="103" height="35" filterUnits="userSpaceOnUse" color-interpolation-filters="sRGB">
<feFlood flood-opacity="0" result="BackgroundImageFix"/>
<feColorMatrix in="SourceAlpha" type="matrix" values="0 0 0 0 0 0 0 0 0 0 0 0 0 0 0 0 0 0 127 0" result="hardAlpha"/>
<feMorphology radius="1" operator="dilate" in="SourceAlpha" result="effect1_dropShadow_1139_457"/>
<feOffset/>
<feGaussianBlur stdDeviation="2"/>
<feComposite in2="hardAlpha" operator="out"/>
<feColorMatrix type="matrix" values="0 0 0 0 0.137255 0 0 0 0 0.835294 0 0 0 0 0.835294 0 0 0 1 0"/>
<feBlend mode="normal" in2="BackgroundImageFix" result="effect1_dropShadow_1139_457"/>
<feBlend mode="normal" in="SourceGraphic" in2="effect1_dropShadow_1139_457" result="shape"/>
</filter>
<filter id="filter6_d_1139_457" x="206" y="62" width="72" height="36" filterUnits="userSpaceOnUse" color-interpolation-filters="sRGB">
<feFlood flood-opacity="0" result="BackgroundImageFix"/>
<feColorMatrix in="SourceAlpha" type="matrix" values="0 0 0 0 0 0 0 0 0 0 0 0 0 0 0 0 0 0 127 0" result="hardAlpha"/>
<feMorphology radius="1" operator="dilate" in="SourceAlpha" result="effect1_dropShadow_1139_457"/>
<feOffset/>
<feGaussianBlur stdDeviation="2"/>
<feComposite in2="hardAlpha" operator="out"/>
<feColorMatrix type="matrix" values="0 0 0 0 0.137255 0 0 0 0 0.835294 0 0 0 0 0.835294 0 0 0 1 0"/>
<feBlend mode="normal" in2="BackgroundImageFix" result="effect1_dropShadow_1139_457"/>
<feBlend mode="normal" in="SourceGraphic" in2="effect1_dropShadow_1139_457" result="shape"/>
</filter>
<filter id="filter7_d_1139_457" x="206" y="62.5" width="72" height="35" filterUnits="userSpaceOnUse" color-interpolation-filters="sRGB">
<feFlood flood-opacity="0" result="BackgroundImageFix"/>
<feColorMatrix in="SourceAlpha" type="matrix" values="0 0 0 0 0 0 0 0 0 0 0 0 0 0 0 0 0 0 127 0" result="hardAlpha"/>
<feMorphology radius="1" operator="dilate" in="SourceAlpha" result="effect1_dropShadow_1139_457"/>
<feOffset/>
<feGaussianBlur stdDeviation="2"/>
<feComposite in2="hardAlpha" operator="out"/>
<feColorMatrix type="matrix" values="0 0 0 0 0.137255 0 0 0 0 0.835294 0 0 0 0 0.835294 0 0 0 1 0"/>
<feBlend mode="normal" in2="BackgroundImageFix" result="effect1_dropShadow_1139_457"/>
<feBlend mode="normal" in="SourceGraphic" in2="effect1_dropShadow_1139_457" result="shape"/>
</filter>
<linearGradient id="paint0_linear_1139_457" x1="153.416" y1="39.2741" x2="155.053" y2="152.69" gradientUnits="userSpaceOnUse">
<stop stop-color="#E7E7E7" stop-opacity="0.29"/>
<stop offset="0.867743" stop-color="#383B3D" stop-opacity="0"/>
</linearGradient>
<linearGradient id="paint1_linear_1139_457" x1="153.416" y1="112.553" x2="153.863" y2="171.855" gradientUnits="userSpaceOnUse">
<stop stop-color="#E7E7E7" stop-opacity="0.29"/>
<stop offset="0.867743" stop-color="#383B3D" stop-opacity="0"/>
</linearGradient>
<linearGradient id="paint2_linear_1139_457" x1="12.612" y1="138.193" x2="303.296" y2="55.9668" gradientUnits="userSpaceOnUse">
<stop stop-color="#4B4B4B" stop-opacity="0"/>
<stop offset="0.500039" stop-color="#1EB2B2"/>
<stop offset="1" stop-color="#4B4B4B" stop-opacity="0"/>
</linearGradient>
<linearGradient id="paint3_linear_1139_457" x1="11.8197" y1="180.707" x2="302.504" y2="98.4811" gradientUnits="userSpaceOnUse">
<stop stop-color="#4B4B4B" stop-opacity="0"/>
<stop offset="0.725" stop-color="#1EB2B2"/>
<stop offset="1" stop-color="#4B4B4B" stop-opacity="0"/>
</linearGradient>
<linearGradient id="paint4_linear_1139_457" x1="39.3347" y1="5.91424" x2="84.5895" y2="65.4929" gradientUnits="userSpaceOnUse">
<stop stop-color="#949494"/>
</linearGradient>
<linearGradient id="paint5_linear_1139_457" x1="39.3347" y1="6.37907" x2="82.363" y2="65.2924" gradientUnits="userSpaceOnUse">
<stop stop-color="#949494"/>
</linearGradient>
<linearGradient id="paint6_linear_1139_457" x1="212.556" y1="67.9142" x2="259.136" y2="108.796" gradientUnits="userSpaceOnUse">
<stop stop-color="#949494"/>
</linearGradient>
<linearGradient id="paint7_linear_1139_457" x1="212.556" y1="68.3791" x2="257.539" y2="109.438" gradientUnits="userSpaceOnUse">
<stop stop-color="#949494"/>
</linearGradient>
</defs>
</svg>
