<svg width="164" height="32" viewBox="0 0 164 32" fill="none" xmlns="http://www.w3.org/2000/svg">
<path d="M3.27749 18.6493L10.1546 6.81566L13.9339 13.2591H18.5805C18.5805 13.2591 13.6241 4.5233 12.8806 3.53199C12.8806 3.53199 10.8361 0.372232 6.80893 2.35482C2.7818 4.33742 4.8883 9.23194 4.8883 9.23194C3.09287 9.38624 2.06667 9.68555 0.985082 11.0287C-2.17463 16.3569 3.27749 18.6493 3.27749 18.6493Z" fill="black"/>
<path d="M22.5082 20.6867L8.82155 20.6478L12.512 14.1531L10.1887 10.1289C10.1887 10.1289 5.10158 18.7893 4.61479 19.9288C4.61479 19.9288 2.90066 23.2793 6.6312 25.7756C10.3617 28.2719 13.5472 24.0004 13.5472 24.0004C14.5786 25.4781 15.3509 26.2172 17.0548 26.4823C23.249 26.5546 22.5082 20.6867 22.5082 20.6867Z" fill="black"/>
<path d="M14.5227 2.83832L21.3323 14.7109L13.8625 14.7622L11.5391 18.7863C11.5391 18.7863 21.5828 18.8617 22.813 18.7136C22.813 18.7136 26.5717 18.5228 26.8683 14.0439C27.1649 9.56496 21.8729 8.94199 21.8729 8.94199C22.6369 7.30995 22.8908 6.27157 22.2685 4.66334C19.234 -0.737172 14.5227 2.83832 14.5227 2.83832Z" fill="black"/>
<path d="M127.534 4.79688H123.643C123.643 4.79688 123.514 14.2217 123.643 17.5481C123.773 20.8745 125.848 22.3991 127.534 22.9535C129.22 23.5079 131.295 23.2307 131.295 23.2307L131.166 19.4885C129.386 19.5209 127.534 18.6569 127.534 17.5481V12.8357H131.166V8.8163H127.534V4.79688Z" fill="black"/>
<path d="M70.9805 10.1562H67.5352V23.472H70.9805V10.1562Z" fill="black"/>
<path d="M89.54 10.1562H86.0947V23.472H89.54V10.1562Z" fill="black"/>
<path d="M77.1565 4.79688H73.5586V23.4713H77.1565V4.79688Z" fill="black"/>
<path d="M83.4953 4.79688H79.8975V23.4713H83.4953V4.79688Z" fill="black"/>
<path d="M60.7959 23.3562H57.0954C57.0954 23.3562 56.9678 20.1661 56.9678 15.8276C56.9678 11.489 61.8168 10.3406 62.71 10.213C63.6032 10.0854 64.8793 10.213 64.8793 10.213V13.9135C64.0321 13.9135 63.7308 13.9135 62.71 13.9844C61.6892 14.0553 60.9235 14.9344 60.7959 15.8276C60.6683 16.7208 60.7959 23.3562 60.7959 23.3562Z" fill="black"/>
<path fill-rule="evenodd" clip-rule="evenodd" d="M39.1221 23.427V4.82877C39.1221 4.82877 48.4372 4.70118 49.5856 4.95637C50.734 5.21157 51.5402 5.54182 52.3929 6.48762C53.4278 7.63558 53.7965 8.64252 53.7965 10.1881C53.7965 12.1979 52.2653 13.7291 52.2653 13.7291C52.2653 13.7291 54.1793 15.069 54.3069 17.5891C54.4265 19.9498 52.5307 21.6666 52.1854 21.9794C52.162 22.0005 52.1458 22.0153 52.1377 22.0234C52.0101 22.151 51.2445 22.8672 49.5856 23.2194C47.9268 23.5716 39.1221 23.427 39.1221 23.427ZM43.2054 12.1976V8.36953H48.358C48.8487 8.36954 49.557 9.30514 49.5848 10.2127C49.614 11.1647 48.8487 12.1976 48.358 12.1976H43.2054ZM43.2054 15.7709V19.599H48.7702C49.3002 19.599 50.1267 18.5661 50.0951 17.614C50.0651 16.7065 49.3002 15.7709 48.7702 15.7709H43.2054Z" fill="black"/>
<path d="M69.2015 8.36978C70.1881 8.36978 70.9879 7.56995 70.9879 6.58332C70.9879 5.5967 70.1881 4.79688 69.2015 4.79688C68.2149 4.79688 67.415 5.5967 67.415 6.58332C67.415 7.56995 68.2149 8.36978 69.2015 8.36978Z" fill="black"/>
<path d="M87.6654 8.36978C88.652 8.36978 89.4518 7.56995 89.4518 6.58332C89.4518 5.5967 88.652 4.79688 87.6654 4.79688C86.6787 4.79688 85.8789 5.5967 85.8789 6.58332C85.8789 7.56995 86.6787 8.36978 87.6654 8.36978Z" fill="black"/>
<path fill-rule="evenodd" clip-rule="evenodd" d="M105.597 23.4838V10.213C105.597 10.213 98.579 10.0854 97.8133 10.213C97.0476 10.3406 92.071 11.6166 92.1987 16.976C92.3264 22.3353 97.0477 23.3561 97.9409 23.4838C98.5202 23.5665 100.311 23.5419 102.313 23.5144C103.399 23.4995 104.546 23.4838 105.597 23.4838ZM101.646 13.8102V19.68C101.156 19.68 100.632 19.6958 100.136 19.7107C99.2222 19.7382 98.4045 19.7628 98.0735 19.68C97.563 19.5524 96.1593 18.9144 96.0318 16.8727C95.9043 14.8311 97.4355 13.9926 98.0735 13.8102C98.7115 13.6279 101.646 13.8102 101.646 13.8102Z" fill="black"/>
<path d="M108.253 10.2194V23.427H111.974C111.974 23.427 111.846 15.2693 111.974 14.6219C112.102 13.9745 113.129 13.4565 114.54 13.586C115.952 13.7155 117.363 14.7514 117.363 15.9168V23.427H120.956C120.956 23.427 121.084 16.1126 120.956 15.1398C120.828 14.1671 119.974 10.3614 115.695 10.2194C111.416 10.0773 108.253 10.2194 108.253 10.2194Z" fill="black"/>
<path d="M163.962 5.05273H159.369V23.4276H163.962V5.05273Z" fill="black"/>
<path fill-rule="evenodd" clip-rule="evenodd" d="M137.445 23.4276L144.718 5.05273H149.695L156.713 23.4276H151.736L150.843 20.6204H143.187L142.166 23.4276H137.445ZM149.225 16.1541L147.015 10.412L144.805 16.1541H149.225Z" fill="black"/>
</svg>
