<svg width="164" height="32" viewBox="0 0 164 32" fill="none" xmlns="http://www.w3.org/2000/svg">
<path d="M3.27749 18.6488L10.1546 6.8152L13.9339 13.2586H18.5805C18.5805 13.2586 13.6241 4.52284 12.8806 3.53153C12.8806 3.53153 10.8361 0.371772 6.80893 2.35436C2.7818 4.33696 4.8883 9.23148 4.8883 9.23148C3.09287 9.38578 2.06667 9.68509 0.98508 11.0282C-2.17463 16.3564 3.27749 18.6488 3.27749 18.6488Z" fill="white"/>
<path d="M22.5085 20.6875L8.82181 20.6486L12.5123 14.1539L10.189 10.1297C10.189 10.1297 5.10184 18.7901 4.61505 19.9296C4.61505 19.9296 2.90092 23.2801 6.63146 25.7764C10.362 28.2727 13.5475 24.0012 13.5475 24.0012C14.5789 25.4789 15.3512 26.218 17.0551 26.4831C23.2493 26.5554 22.5085 20.6875 22.5085 20.6875Z" fill="white"/>
<path d="M14.5225 2.83853L21.3321 14.7111L13.8623 14.7624L11.5389 18.7865C11.5389 18.7865 21.5826 18.8619 22.8128 18.7138C22.8128 18.7138 26.5715 18.523 26.8681 14.0441C27.1647 9.56517 21.8727 8.9422 21.8727 8.9422C22.6367 7.31016 22.8906 6.27178 22.2683 4.66355C19.2338 -0.736958 14.5225 2.83853 14.5225 2.83853Z" fill="white"/>
<path d="M127.534 4.79713H123.643C123.643 4.79713 123.514 14.222 123.643 17.5484C123.773 20.8748 125.848 22.3994 127.534 22.9538C129.22 23.5082 131.295 23.231 131.295 23.231L131.166 19.4888C129.386 19.5212 127.534 18.6572 127.534 17.5484V12.836H131.166V8.81655H127.534V4.79713Z" fill="white"/>
<path d="M70.9809 10.1563H67.5356V23.4721H70.9809V10.1563Z" fill="white"/>
<path d="M89.5399 10.1563H86.0946V23.4721H89.5399V10.1563Z" fill="white"/>
<path d="M77.1562 4.79713H73.5583V23.4716H77.1562V4.79713Z" fill="white"/>
<path d="M83.4953 4.79713H79.8975V23.4716H83.4953V4.79713Z" fill="white"/>
<path d="M60.7962 23.3562H57.0957C57.0957 23.3562 56.9681 20.1661 56.9681 15.8276C56.9681 11.489 61.8171 10.3406 62.7103 10.213C63.6035 10.0854 64.8796 10.213 64.8796 10.213V13.9135C64.0324 13.9135 63.7311 13.9135 62.7103 13.9844C61.6895 14.0553 60.9238 14.9344 60.7962 15.8276C60.6686 16.7208 60.7962 23.3562 60.7962 23.3562Z" fill="white"/>
<path fill-rule="evenodd" clip-rule="evenodd" d="M39.1218 23.427V4.82877C39.1218 4.82877 48.4369 4.70118 49.5853 4.95637C50.7337 5.21157 51.5399 5.54182 52.3926 6.48762C53.4275 7.63558 53.7962 8.64252 53.7962 10.1881C53.7962 12.1979 52.265 13.7291 52.265 13.7291C52.265 13.7291 54.179 15.069 54.3066 17.5891C54.4262 19.9498 52.5304 21.6666 52.1851 21.9794C52.1617 22.0005 52.1455 22.0153 52.1374 22.0234C52.0098 22.151 51.2442 22.8672 49.5853 23.2194C47.9265 23.5716 39.1218 23.427 39.1218 23.427ZM43.2051 12.1976V8.36953H48.3577C48.8484 8.36954 49.5567 9.30514 49.5845 10.2127C49.6137 11.1647 48.8484 12.1976 48.3577 12.1976H43.2051ZM43.2051 15.7709V19.599H48.7699C49.2999 19.599 50.1264 18.5661 50.0948 17.614C50.0648 16.7065 49.2999 15.7709 48.7699 15.7709H43.2051Z" fill="white"/>
<ellipse cx="69.2011" cy="6.58358" rx="1.78645" ry="1.78645" fill="white"/>
<ellipse cx="87.6655" cy="6.58358" rx="1.78645" ry="1.78645" fill="white"/>
<path fill-rule="evenodd" clip-rule="evenodd" d="M105.597 23.4836V10.2128C105.597 10.2128 98.5786 10.0852 97.8129 10.2128C97.0472 10.3404 92.0706 11.6164 92.1983 16.9758C92.326 22.3351 97.0473 23.3559 97.9405 23.4836C98.5198 23.5663 100.311 23.5417 102.313 23.5142C103.399 23.4993 104.546 23.4836 105.597 23.4836ZM101.646 13.81V19.6798C101.156 19.6798 100.632 19.6956 100.136 19.7105C99.2218 19.738 98.4041 19.7626 98.0731 19.6798C97.5626 19.5522 96.1589 18.9142 96.0314 16.8725C95.9039 14.8309 97.4351 13.9924 98.0731 13.81C98.7111 13.6277 101.646 13.81 101.646 13.81Z" fill="white"/>
<path d="M108.253 10.2195V23.4271H111.974C111.974 23.4271 111.846 15.2694 111.974 14.622C112.102 13.9746 113.129 13.4566 114.54 13.5861C115.952 13.7156 117.363 14.7515 117.363 15.9169V23.4271H120.956C120.956 23.4271 121.084 16.1127 120.956 15.1399C120.828 14.1672 119.974 10.3615 115.695 10.2195C111.416 10.0774 108.253 10.2195 108.253 10.2195Z" fill="white"/>
<path d="M163.962 5.05182H159.369V23.4267H163.962V5.05182Z" fill="white"/>
<path fill-rule="evenodd" clip-rule="evenodd" d="M137.445 23.4267L144.718 5.05183H149.695L156.713 23.4267H151.736L150.843 20.6195H143.187L142.166 23.4267H137.445ZM149.225 16.1532L147.015 10.4111L144.805 16.1532H149.225Z" fill="white"/>
</svg>
