<svg width="25" height="24" viewBox="0 0 25 24" fill="none" xmlns="http://www.w3.org/2000/svg">
<path fill-rule="evenodd" clip-rule="evenodd" d="M4.1001 11.9999C4.1001 11.5029 4.50304 11.0999 5.0001 11.0999L17.7656 11.0999L12.7763 6.3487C12.418 6.00418 12.4068 5.43445 12.7513 5.07615C13.0959 4.71786 13.6656 4.70669 14.0239 5.0512L20.6239 11.3512C20.8004 11.5209 20.9001 11.7551 20.9001 11.9999C20.9001 12.2448 20.8004 12.479 20.6239 12.6487L14.0239 18.9487C13.6656 19.2932 13.0959 19.282 12.7513 18.9237C12.4068 18.5655 12.418 17.9957 12.7763 17.6512L17.7656 12.8999L5.0001 12.8999C4.50304 12.8999 4.1001 12.497 4.1001 11.9999Z" fill="white"/>
</svg>
