<svg width="448" height="407" viewBox="0 0 448 407" fill="none" xmlns="http://www.w3.org/2000/svg">
<g filter="url(#filter0_f_245_433)">
<path d="M223.761 347.519C163.844 347.519 117.392 294.732 117.392 232.354C117.392 169.976 163.844 117.188 223.761 117.188C283.678 117.188 330.129 169.976 330.129 232.354C330.129 294.732 283.678 347.519 223.761 347.519Z" stroke="url(#paint0_linear_245_433)" stroke-width="28"/>
</g>
<path d="M224.954 153.583C268.401 153.583 303.627 189.022 303.627 232.745C303.627 276.467 268.401 311.906 224.954 311.906C181.507 311.906 146.281 276.467 146.281 232.745C146.281 189.022 181.507 153.583 224.954 153.583Z" stroke="#3D6262"/>
<circle cx="225.442" cy="238.609" r="113.372" stroke="#3D6262"/>
<path d="M145.781 232.256C145.781 188.53 181.228 153.083 224.954 153.083" stroke="url(#paint1_linear_245_433)" stroke-opacity="0.28"/>
<path d="M152.626 151.664C201.013 111.485 272.81 118.138 312.99 166.525" stroke="url(#paint2_linear_245_433)" stroke-opacity="0.28"/>
<circle cx="225.444" cy="235.677" r="42.9962" stroke="#3D6262"/>
<path d="M191.068 208.487C206 189.658 233.37 186.498 252.199 201.431" stroke="url(#paint3_linear_245_433)" stroke-opacity="0.28"/>
<g filter="url(#filter1_i_245_433)">
<rect x="52" y="174" width="363" height="141" rx="16" fill="#4D4D4D" fill-opacity="0.4"/>
<rect x="52.5" y="174.5" width="362" height="140" rx="15.5" stroke="url(#paint4_linear_245_433)" stroke-opacity="0.7"/>
</g>
<path d="M108.001 213.333V210.947C108.001 210.347 107.281 210.053 106.867 210.48L103.134 214.2C102.867 214.467 102.867 214.88 103.134 215.147L106.854 218.867C107.281 219.28 108.001 218.987 108.001 218.387V216C112.414 216 116.001 219.587 116.001 224C116.001 225.053 115.801 226.08 115.414 227C115.214 227.48 115.361 228.027 115.721 228.387C116.401 229.067 117.547 228.827 117.907 227.933C118.401 226.72 118.667 225.387 118.667 224C118.667 218.107 113.894 213.333 108.001 213.333ZM108.001 232C103.587 232 100.001 228.413 100.001 224C100.001 222.947 100.201 221.92 100.587 221C100.787 220.52 100.641 219.973 100.281 219.613C99.6007 218.933 98.454 219.173 98.094 220.067C97.6007 221.28 97.334 222.613 97.334 224C97.334 229.893 102.107 234.667 108.001 234.667V237.053C108.001 237.653 108.721 237.947 109.134 237.52L112.854 233.8C113.121 233.533 113.121 233.12 112.854 232.853L109.134 229.133C109.04 229.041 108.921 228.979 108.792 228.954C108.662 228.93 108.529 228.944 108.407 228.996C108.286 229.047 108.183 229.133 108.11 229.243C108.038 229.353 108 229.482 108.001 229.613V232Z" fill="#23D5D5"/>
<path d="M84.2456 261L81.8592 252.273H82.9331L84.7569 259.381H84.8422L86.7001 252.273H87.8933L89.7512 259.381H89.8365L91.6603 252.273H92.7342L90.3478 261H89.2569L87.3308 254.045H87.2626L85.3365 261H84.2456ZM95.9643 261.136C95.3734 261.136 94.8549 260.996 94.4089 260.714C93.9657 260.433 93.6191 260.04 93.3691 259.534C93.122 259.028 92.9984 258.437 92.9984 257.761C92.9984 257.08 93.122 256.484 93.3691 255.976C93.6191 255.467 93.9657 255.072 94.4089 254.791C94.8549 254.51 95.3734 254.369 95.9643 254.369C96.5552 254.369 97.0723 254.51 97.5154 254.791C97.9615 255.072 98.3081 255.467 98.5552 255.976C98.8052 256.484 98.9302 257.08 98.9302 257.761C98.9302 258.437 98.8052 259.028 98.5552 259.534C98.3081 260.04 97.9615 260.433 97.5154 260.714C97.0723 260.996 96.5552 261.136 95.9643 261.136ZM95.9643 260.233C96.4132 260.233 96.7825 260.118 97.0723 259.888C97.362 259.658 97.5765 259.355 97.7157 258.98C97.8549 258.605 97.9245 258.199 97.9245 257.761C97.9245 257.324 97.8549 256.916 97.7157 256.538C97.5765 256.161 97.362 255.855 97.0723 255.622C96.7825 255.389 96.4132 255.273 95.9643 255.273C95.5154 255.273 95.1461 255.389 94.8564 255.622C94.5666 255.855 94.3521 256.161 94.2129 256.538C94.0737 256.916 94.0041 257.324 94.0041 257.761C94.0041 258.199 94.0737 258.605 94.2129 258.98C94.3521 259.355 94.5666 259.658 94.8564 259.888C95.1461 260.118 95.5154 260.233 95.9643 260.233ZM100.465 261V254.455H101.437V255.443H101.505C101.624 255.119 101.84 254.857 102.153 254.655C102.465 254.453 102.818 254.352 103.21 254.352C103.284 254.352 103.376 254.354 103.487 254.357C103.597 254.359 103.681 254.364 103.738 254.369V255.392C103.704 255.384 103.626 255.371 103.504 255.354C103.384 255.334 103.258 255.324 103.124 255.324C102.806 255.324 102.522 255.391 102.272 255.524C102.025 255.655 101.829 255.837 101.684 256.07C101.542 256.3 101.471 256.562 101.471 256.858V261H100.465ZM105.868 258.614L105.851 257.369H106.055L108.919 254.455H110.163L107.112 257.54H107.027L105.868 258.614ZM104.93 261V252.273H105.936V261H104.93ZM109.089 261L106.532 257.761L107.248 257.062L110.368 261H109.089ZM114.372 254.455V255.307H110.844V254.455H114.372ZM111.901 261V253.551C111.901 253.176 111.989 252.864 112.165 252.614C112.341 252.364 112.57 252.176 112.851 252.051C113.132 251.926 113.429 251.864 113.742 251.864C113.989 251.864 114.191 251.884 114.347 251.923C114.503 251.963 114.619 252 114.696 252.034L114.406 252.903C114.355 252.886 114.284 252.865 114.193 252.839C114.105 252.814 113.989 252.801 113.844 252.801C113.512 252.801 113.271 252.885 113.124 253.053C112.979 253.22 112.906 253.466 112.906 253.79V261H111.901ZM116.787 252.273V261H115.782V252.273H116.787ZM121.289 261.136C120.698 261.136 120.179 260.996 119.733 260.714C119.29 260.433 118.943 260.04 118.693 259.534C118.446 259.028 118.323 258.437 118.323 257.761C118.323 257.08 118.446 256.484 118.693 255.976C118.943 255.467 119.29 255.072 119.733 254.791C120.179 254.51 120.698 254.369 121.289 254.369C121.879 254.369 122.396 254.51 122.84 254.791C123.286 255.072 123.632 255.467 123.879 255.976C124.129 256.484 124.254 257.08 124.254 257.761C124.254 258.437 124.129 259.028 123.879 259.534C123.632 260.04 123.286 260.433 122.84 260.714C122.396 260.996 121.879 261.136 121.289 261.136ZM121.289 260.233C121.737 260.233 122.107 260.118 122.396 259.888C122.686 259.658 122.901 259.355 123.04 258.98C123.179 258.605 123.249 258.199 123.249 257.761C123.249 257.324 123.179 256.916 123.04 256.538C122.901 256.161 122.686 255.855 122.396 255.622C122.107 255.389 121.737 255.273 121.289 255.273C120.84 255.273 120.47 255.389 120.181 255.622C119.891 255.855 119.676 256.161 119.537 256.538C119.398 256.916 119.328 257.324 119.328 257.761C119.328 258.199 119.398 258.605 119.537 258.98C119.676 259.355 119.891 259.658 120.181 259.888C120.47 260.118 120.84 260.233 121.289 260.233ZM127.05 261L125.056 254.455H126.112L127.527 259.466H127.595L128.993 254.455H130.067L131.448 259.449H131.516L132.931 254.455H133.987L131.993 261H131.004L129.573 255.972H129.47L128.039 261H127.05ZM80.4263 273.636C80.4263 274.557 80.2601 275.352 79.9277 276.023C79.5953 276.693 79.1394 277.21 78.5598 277.574C77.9803 277.938 77.3184 278.119 76.574 278.119C75.8297 278.119 75.1678 277.938 74.5882 277.574C74.0087 277.21 73.5527 276.693 73.2203 276.023C72.888 275.352 72.7218 274.557 72.7218 273.636C72.7218 272.716 72.888 271.92 73.2203 271.25C73.5527 270.58 74.0087 270.062 74.5882 269.699C75.1678 269.335 75.8297 269.153 76.574 269.153C77.3184 269.153 77.9803 269.335 78.5598 269.699C79.1394 270.062 79.5953 270.58 79.9277 271.25C80.2601 271.92 80.4263 272.716 80.4263 273.636ZM79.4036 273.636C79.4036 272.881 79.2772 272.243 79.0243 271.723C78.7743 271.203 78.4348 270.81 78.0059 270.543C77.5797 270.276 77.1025 270.142 76.574 270.142C76.0456 270.142 75.5669 270.276 75.138 270.543C74.7118 270.81 74.3723 271.203 74.1195 271.723C73.8695 272.243 73.7445 272.881 73.7445 273.636C73.7445 274.392 73.8695 275.03 74.1195 275.55C74.3723 276.07 74.7118 276.463 75.138 276.73C75.5669 276.997 76.0456 277.131 76.574 277.131C77.1025 277.131 77.5797 276.997 78.0059 276.73C78.4348 276.463 78.7743 276.07 79.0243 275.55C79.2772 275.03 79.4036 274.392 79.4036 273.636ZM82.0669 278V271.455H83.0385V272.443H83.1067C83.226 272.119 83.4419 271.857 83.7544 271.655C84.0669 271.453 84.4192 271.352 84.8113 271.352C84.8851 271.352 84.9775 271.354 85.0882 271.357C85.199 271.359 85.2828 271.364 85.3397 271.369V272.392C85.3056 272.384 85.2275 272.371 85.1053 272.354C84.986 272.334 84.8596 272.324 84.726 272.324C84.4078 272.324 84.1238 272.391 83.8738 272.524C83.6266 272.655 83.4306 272.837 83.2857 273.07C83.1436 273.3 83.0726 273.562 83.0726 273.858V278H82.0669ZM88.9746 280.591C88.4888 280.591 88.0712 280.528 87.7218 280.403C87.3723 280.281 87.0811 280.119 86.8482 279.918C86.6181 279.719 86.4348 279.506 86.2985 279.278L87.0996 278.716C87.1905 278.835 87.3056 278.972 87.4448 279.125C87.584 279.281 87.7743 279.416 88.0158 279.53C88.2601 279.646 88.5797 279.705 88.9746 279.705C89.503 279.705 89.9391 279.577 90.2828 279.321C90.6266 279.065 90.7985 278.665 90.7985 278.119V276.79H90.7132C90.6394 276.909 90.5343 277.057 90.3979 277.233C90.2644 277.406 90.0712 277.561 89.8184 277.697C89.5684 277.831 89.2303 277.898 88.8042 277.898C88.2757 277.898 87.8013 277.773 87.3809 277.523C86.9632 277.273 86.6323 276.909 86.388 276.432C86.1465 275.955 86.0257 275.375 86.0257 274.693C86.0257 274.023 86.1436 273.439 86.3794 272.942C86.6152 272.442 86.9434 272.055 87.3638 271.783C87.7843 271.507 88.2701 271.369 88.8212 271.369C89.2473 271.369 89.5854 271.44 89.8354 271.582C90.0882 271.722 90.2814 271.881 90.415 272.06C90.5513 272.236 90.6564 272.381 90.7303 272.494H90.8326V271.455H91.8042V278.188C91.8042 278.75 91.6763 279.207 91.4206 279.56C91.1678 279.915 90.8269 280.175 90.3979 280.339C89.9718 280.507 89.4973 280.591 88.9746 280.591ZM88.9405 276.994C89.3439 276.994 89.6848 276.902 89.9632 276.717C90.2417 276.533 90.4533 276.267 90.5982 275.92C90.7431 275.574 90.8155 275.159 90.8155 274.676C90.8155 274.205 90.7445 273.788 90.6025 273.428C90.4604 273.067 90.2502 272.784 89.9718 272.58C89.6934 272.375 89.3496 272.273 88.9405 272.273C88.5144 272.273 88.1593 272.381 87.8752 272.597C87.5939 272.812 87.3823 273.102 87.2402 273.466C87.101 273.83 87.0314 274.233 87.0314 274.676C87.0314 275.131 87.1025 275.533 87.2445 275.882C87.3894 276.229 87.6025 276.501 87.8837 276.7C88.1678 276.896 88.5201 276.994 88.9405 276.994ZM95.5712 278.153C95.1564 278.153 94.78 278.075 94.4419 277.919C94.1039 277.76 93.8354 277.531 93.6365 277.233C93.4377 276.932 93.3382 276.568 93.3382 276.142C93.3382 275.767 93.4121 275.463 93.5598 275.23C93.7076 274.994 93.905 274.81 94.1522 274.676C94.3993 274.543 94.6721 274.443 94.9703 274.378C95.2715 274.31 95.574 274.256 95.878 274.216C96.2757 274.165 96.5982 274.126 96.8453 274.101C97.0953 274.072 97.2772 274.026 97.3908 273.96C97.5073 273.895 97.5655 273.781 97.5655 273.619V273.585C97.5655 273.165 97.4505 272.838 97.2203 272.605C96.9931 272.372 96.6479 272.256 96.1848 272.256C95.7047 272.256 95.3283 272.361 95.0556 272.571C94.7828 272.781 94.5911 273.006 94.4803 273.244L93.5257 272.903C93.6962 272.506 93.9235 272.196 94.2076 271.974C94.4945 271.75 94.807 271.594 95.1451 271.506C95.486 271.415 95.8212 271.369 96.1507 271.369C96.361 271.369 96.6025 271.395 96.8752 271.446C97.1507 271.494 97.4164 271.595 97.6721 271.749C97.9306 271.902 98.1451 272.134 98.3155 272.443C98.486 272.753 98.5712 273.168 98.5712 273.688V278H97.5655V277.114H97.5144C97.4462 277.256 97.3326 277.408 97.1735 277.57C97.0144 277.732 96.8027 277.869 96.5385 277.983C96.2743 278.097 95.9519 278.153 95.5712 278.153ZM95.7246 277.25C96.1223 277.25 96.4576 277.172 96.7303 277.016C97.0059 276.859 97.2132 276.658 97.3525 276.411C97.4945 276.163 97.5655 275.903 97.5655 275.631V274.71C97.5229 274.761 97.4292 274.808 97.2843 274.851C97.1422 274.891 96.9775 274.926 96.79 274.957C96.6053 274.986 96.4249 275.011 96.2488 275.034C96.0755 275.054 95.9348 275.071 95.8269 275.085C95.5655 275.119 95.3212 275.175 95.0939 275.251C94.8695 275.325 94.6877 275.437 94.5485 275.588C94.4121 275.736 94.3439 275.937 94.3439 276.193C94.3439 276.543 94.4732 276.807 94.7317 276.986C94.9931 277.162 95.324 277.25 95.7246 277.25ZM101.412 274.062V278H100.407V271.455H101.378V272.477H101.464C101.617 272.145 101.85 271.878 102.162 271.676C102.475 271.472 102.878 271.369 103.373 271.369C103.816 271.369 104.204 271.46 104.536 271.642C104.868 271.821 105.127 272.094 105.312 272.46C105.496 272.824 105.589 273.284 105.589 273.841V278H104.583V273.909C104.583 273.395 104.449 272.994 104.182 272.707C103.915 272.418 103.549 272.273 103.083 272.273C102.762 272.273 102.475 272.342 102.222 272.482C101.972 272.621 101.775 272.824 101.63 273.091C101.485 273.358 101.412 273.682 101.412 274.062ZM107.426 278V271.455H108.432V278H107.426ZM107.938 270.364C107.742 270.364 107.573 270.297 107.431 270.163C107.291 270.03 107.222 269.869 107.222 269.682C107.222 269.494 107.291 269.334 107.431 269.2C107.573 269.067 107.742 269 107.938 269C108.134 269 108.301 269.067 108.441 269.2C108.583 269.334 108.654 269.494 108.654 269.682C108.654 269.869 108.583 270.03 108.441 270.163C108.301 270.297 108.134 270.364 107.938 270.364ZM110.086 278V277.233L113.802 272.46V272.392H110.206V271.455H115.098V272.256L111.484 276.994V277.062H115.217V278H110.086ZM118.692 278.153C118.278 278.153 117.901 278.075 117.563 277.919C117.225 277.76 116.956 277.531 116.758 277.233C116.559 276.932 116.459 276.568 116.459 276.142C116.459 275.767 116.533 275.463 116.681 275.23C116.829 274.994 117.026 274.81 117.273 274.676C117.52 274.543 117.793 274.443 118.091 274.378C118.393 274.31 118.695 274.256 118.999 274.216C119.397 274.165 119.719 274.126 119.966 274.101C120.216 274.072 120.398 274.026 120.512 273.96C120.628 273.895 120.687 273.781 120.687 273.619V273.585C120.687 273.165 120.572 272.838 120.341 272.605C120.114 272.372 119.769 272.256 119.306 272.256C118.826 272.256 118.449 272.361 118.177 272.571C117.904 272.781 117.712 273.006 117.601 273.244L116.647 272.903C116.817 272.506 117.045 272.196 117.329 271.974C117.616 271.75 117.928 271.594 118.266 271.506C118.607 271.415 118.942 271.369 119.272 271.369C119.482 271.369 119.724 271.395 119.996 271.446C120.272 271.494 120.537 271.595 120.793 271.749C121.052 271.902 121.266 272.134 121.437 272.443C121.607 272.753 121.692 273.168 121.692 273.688V278H120.687V277.114H120.635C120.567 277.256 120.454 277.408 120.295 277.57C120.135 277.732 119.924 277.869 119.66 277.983C119.395 278.097 119.073 278.153 118.692 278.153ZM118.846 277.25C119.243 277.25 119.579 277.172 119.851 277.016C120.127 276.859 120.334 276.658 120.474 276.411C120.616 276.163 120.687 275.903 120.687 275.631V274.71C120.644 274.761 120.55 274.808 120.405 274.851C120.263 274.891 120.099 274.926 119.911 274.957C119.726 274.986 119.546 275.011 119.37 275.034C119.197 275.054 119.056 275.071 118.948 275.085C118.687 275.119 118.442 275.175 118.215 275.251C117.991 275.325 117.809 275.437 117.67 275.588C117.533 275.736 117.465 275.937 117.465 276.193C117.465 276.543 117.594 276.807 117.853 276.986C118.114 277.162 118.445 277.25 118.846 277.25ZM126.374 271.455V272.307H122.982V271.455H126.374ZM123.971 269.886H124.977V276.125C124.977 276.409 125.018 276.622 125.1 276.764C125.186 276.903 125.294 276.997 125.424 277.045C125.558 277.091 125.698 277.114 125.846 277.114C125.957 277.114 126.048 277.108 126.119 277.097C126.19 277.082 126.247 277.071 126.289 277.062L126.494 277.966C126.426 277.991 126.33 278.017 126.208 278.043C126.086 278.071 125.931 278.085 125.744 278.085C125.46 278.085 125.181 278.024 124.909 277.902C124.639 277.78 124.414 277.594 124.235 277.344C124.059 277.094 123.971 276.778 123.971 276.398V269.886ZM127.887 278V271.455H128.893V278H127.887ZM128.399 270.364C128.203 270.364 128.034 270.297 127.892 270.163C127.752 270.03 127.683 269.869 127.683 269.682C127.683 269.494 127.752 269.334 127.892 269.2C128.034 269.067 128.203 269 128.399 269C128.595 269 128.762 269.067 128.901 269.2C129.044 269.334 129.115 269.494 129.115 269.682C129.115 269.869 129.044 270.03 128.901 270.163C128.762 270.297 128.595 270.364 128.399 270.364ZM133.394 278.136C132.803 278.136 132.285 277.996 131.839 277.714C131.395 277.433 131.049 277.04 130.799 276.534C130.552 276.028 130.428 275.437 130.428 274.761C130.428 274.08 130.552 273.484 130.799 272.976C131.049 272.467 131.395 272.072 131.839 271.791C132.285 271.51 132.803 271.369 133.394 271.369C133.985 271.369 134.502 271.51 134.945 271.791C135.391 272.072 135.738 272.467 135.985 272.976C136.235 273.484 136.36 274.08 136.36 274.761C136.36 275.437 136.235 276.028 135.985 276.534C135.738 277.04 135.391 277.433 134.945 277.714C134.502 277.996 133.985 278.136 133.394 278.136ZM133.394 277.233C133.843 277.233 134.212 277.118 134.502 276.888C134.792 276.658 135.006 276.355 135.145 275.98C135.285 275.605 135.354 275.199 135.354 274.761C135.354 274.324 135.285 273.916 135.145 273.538C135.006 273.161 134.792 272.855 134.502 272.622C134.212 272.389 133.843 272.273 133.394 272.273C132.945 272.273 132.576 272.389 132.286 272.622C131.996 272.855 131.782 273.161 131.643 273.538C131.503 273.916 131.434 274.324 131.434 274.761C131.434 275.199 131.503 275.605 131.643 275.98C131.782 276.355 131.996 276.658 132.286 276.888C132.576 277.118 132.945 277.233 133.394 277.233ZM138.901 274.062V278H137.895V271.455H138.867V272.477H138.952C139.105 272.145 139.338 271.878 139.651 271.676C139.963 271.472 140.367 271.369 140.861 271.369C141.304 271.369 141.692 271.46 142.024 271.642C142.357 271.821 142.615 272.094 142.8 272.46C142.985 272.824 143.077 273.284 143.077 273.841V278H142.071V273.909C142.071 273.395 141.938 272.994 141.671 272.707C141.404 272.418 141.037 272.273 140.571 272.273C140.25 272.273 139.963 272.342 139.71 272.482C139.46 272.621 139.263 272.824 139.118 273.091C138.973 273.358 138.901 273.682 138.901 274.062Z" fill="white"/>
<path fill-rule="evenodd" clip-rule="evenodd" d="M191.25 234C191.25 233.801 191.329 233.61 191.47 233.47C191.61 233.329 191.801 233.25 192 233.25H210C210.199 233.25 210.39 233.329 210.53 233.47C210.671 233.61 210.75 233.801 210.75 234C210.75 234.199 210.671 234.39 210.53 234.53C210.39 234.671 210.199 234.75 210 234.75H192C191.801 234.75 191.61 234.671 191.47 234.53C191.329 234.39 191.25 234.199 191.25 234Z" fill="#23D5D5"/>
<path d="M196.5 224.25H193.5C193.086 224.25 192.75 224.586 192.75 225V234C192.75 234.414 193.086 234.75 193.5 234.75H196.5C196.914 234.75 197.25 234.414 197.25 234V225C197.25 224.586 196.914 224.25 196.5 224.25Z" fill="#23D5D5"/>
<path d="M202.5 215.25H199.5C199.086 215.25 198.75 215.586 198.75 216V234C198.75 234.414 199.086 234.75 199.5 234.75H202.5C202.914 234.75 203.25 234.414 203.25 234V216C203.25 215.586 202.914 215.25 202.5 215.25Z" fill="#23D5D5"/>
<path d="M208.5 219.75H205.5C205.086 219.75 204.75 220.086 204.75 220.5V234C204.75 234.414 205.086 234.75 205.5 234.75H208.5C208.914 234.75 209.25 234.414 209.25 234V220.5C209.25 220.086 208.914 219.75 208.5 219.75Z" fill="#23D5D5"/>
<path d="M191.496 262H188.803V253.273H191.615C192.462 253.273 193.186 253.447 193.789 253.797C194.391 254.143 194.853 254.642 195.174 255.293C195.495 255.94 195.655 256.716 195.655 257.619C195.655 258.528 195.493 259.311 195.169 259.967C194.846 260.621 194.374 261.124 193.755 261.476C193.135 261.825 192.382 262 191.496 262ZM189.86 261.062H191.428C192.15 261.062 192.748 260.923 193.222 260.645C193.696 260.366 194.05 259.97 194.283 259.456C194.516 258.942 194.632 258.33 194.632 257.619C194.632 256.915 194.517 256.308 194.287 255.8C194.057 255.288 193.713 254.896 193.256 254.624C192.799 254.348 192.229 254.21 191.547 254.21H189.86V261.062ZM199.218 262.153C198.803 262.153 198.426 262.075 198.088 261.919C197.75 261.76 197.482 261.531 197.283 261.233C197.084 260.932 196.985 260.568 196.985 260.142C196.985 259.767 197.059 259.463 197.206 259.23C197.354 258.994 197.551 258.81 197.799 258.676C198.046 258.543 198.319 258.443 198.617 258.378C198.918 258.31 199.221 258.256 199.525 258.216C199.922 258.165 200.245 258.126 200.492 258.101C200.742 258.072 200.924 258.026 201.037 257.96C201.154 257.895 201.212 257.781 201.212 257.619V257.585C201.212 257.165 201.097 256.838 200.867 256.605C200.64 256.372 200.294 256.256 199.831 256.256C199.351 256.256 198.975 256.361 198.702 256.571C198.429 256.781 198.238 257.006 198.127 257.244L197.172 256.903C197.343 256.506 197.57 256.196 197.854 255.974C198.141 255.75 198.453 255.594 198.792 255.506C199.132 255.415 199.468 255.369 199.797 255.369C200.007 255.369 200.249 255.395 200.522 255.446C200.797 255.494 201.063 255.595 201.319 255.749C201.577 255.902 201.792 256.134 201.962 256.443C202.132 256.753 202.218 257.168 202.218 257.688V262H201.212V261.114H201.161C201.093 261.256 200.979 261.408 200.82 261.57C200.661 261.732 200.449 261.869 200.185 261.983C199.921 262.097 199.598 262.153 199.218 262.153ZM199.371 261.25C199.769 261.25 200.104 261.172 200.377 261.016C200.652 260.859 200.86 260.658 200.999 260.411C201.141 260.163 201.212 259.903 201.212 259.631V258.71C201.169 258.761 201.076 258.808 200.931 258.851C200.789 258.891 200.624 258.926 200.436 258.957C200.252 258.986 200.071 259.011 199.895 259.034C199.722 259.054 199.581 259.071 199.473 259.085C199.212 259.119 198.968 259.175 198.74 259.251C198.516 259.325 198.334 259.437 198.195 259.588C198.059 259.736 197.99 259.937 197.99 260.193C197.99 260.543 198.12 260.807 198.378 260.986C198.64 261.162 198.971 261.25 199.371 261.25ZM206.9 255.455V256.307H203.508V255.455H206.9ZM204.496 253.886H205.502V260.125C205.502 260.409 205.543 260.622 205.626 260.764C205.711 260.903 205.819 260.997 205.95 261.045C206.083 261.091 206.224 261.114 206.371 261.114C206.482 261.114 206.573 261.108 206.644 261.097C206.715 261.082 206.772 261.071 206.815 261.062L207.019 261.966C206.951 261.991 206.856 262.017 206.734 262.043C206.612 262.071 206.457 262.085 206.269 262.085C205.985 262.085 205.707 262.024 205.434 261.902C205.164 261.78 204.94 261.594 204.761 261.344C204.585 261.094 204.496 260.778 204.496 260.398V253.886ZM210.339 262.153C209.924 262.153 209.548 262.075 209.21 261.919C208.871 261.76 208.603 261.531 208.404 261.233C208.205 260.932 208.106 260.568 208.106 260.142C208.106 259.767 208.18 259.463 208.327 259.23C208.475 258.994 208.673 258.81 208.92 258.676C209.167 258.543 209.44 258.443 209.738 258.378C210.039 258.31 210.342 258.256 210.646 258.216C211.043 258.165 211.366 258.126 211.613 258.101C211.863 258.072 212.045 258.026 212.158 257.96C212.275 257.895 212.333 257.781 212.333 257.619V257.585C212.333 257.165 212.218 256.838 211.988 256.605C211.761 256.372 211.415 256.256 210.952 256.256C210.472 256.256 210.096 256.361 209.823 256.571C209.55 256.781 209.359 257.006 209.248 257.244L208.293 256.903C208.464 256.506 208.691 256.196 208.975 255.974C209.262 255.75 209.575 255.594 209.913 255.506C210.254 255.415 210.589 255.369 210.918 255.369C211.129 255.369 211.37 255.395 211.643 255.446C211.918 255.494 212.184 255.595 212.44 255.749C212.698 255.902 212.913 256.134 213.083 256.443C213.254 256.753 213.339 257.168 213.339 257.688V262H212.333V261.114H212.282C212.214 261.256 212.1 261.408 211.941 261.57C211.782 261.732 211.57 261.869 211.306 261.983C211.042 262.097 210.719 262.153 210.339 262.153ZM210.492 261.25C210.89 261.25 211.225 261.172 211.498 261.016C211.773 260.859 211.981 260.658 212.12 260.411C212.262 260.163 212.333 259.903 212.333 259.631V258.71C212.29 258.761 212.197 258.808 212.052 258.851C211.91 258.891 211.745 258.926 211.558 258.957C211.373 258.986 211.192 259.011 211.016 259.034C210.843 259.054 210.702 259.071 210.594 259.085C210.333 259.119 210.089 259.175 209.862 259.251C209.637 259.325 209.455 259.437 209.316 259.588C209.18 259.736 209.112 259.937 209.112 260.193C209.112 260.543 209.241 260.807 209.499 260.986C209.761 261.162 210.092 261.25 210.492 261.25ZM169.279 279V270.273H172.228C172.913 270.273 173.473 270.396 173.907 270.643C174.345 270.888 174.669 271.219 174.879 271.636C175.089 272.054 175.194 272.52 175.194 273.034C175.194 273.548 175.089 274.016 174.879 274.436C174.672 274.857 174.35 275.192 173.916 275.442C173.481 275.689 172.924 275.812 172.245 275.812H170.132V274.875H172.211C172.68 274.875 173.056 274.794 173.341 274.632C173.625 274.47 173.831 274.251 173.958 273.976C174.089 273.697 174.154 273.384 174.154 273.034C174.154 272.685 174.089 272.372 173.958 272.097C173.831 271.821 173.623 271.605 173.336 271.449C173.049 271.29 172.669 271.21 172.194 271.21H170.336V279H169.279ZM176.76 279V272.455H177.732V273.443H177.8C177.919 273.119 178.135 272.857 178.448 272.655C178.76 272.453 179.113 272.352 179.505 272.352C179.578 272.352 179.671 272.354 179.782 272.357C179.892 272.359 179.976 272.364 180.033 272.369V273.392C179.999 273.384 179.921 273.371 179.799 273.354C179.679 273.334 179.553 273.324 179.419 273.324C179.101 273.324 178.817 273.391 178.567 273.524C178.32 273.655 178.124 273.837 177.979 274.07C177.837 274.3 177.766 274.562 177.766 274.858V279H176.76ZM183.77 279.136C183.14 279.136 182.596 278.997 182.138 278.719C181.684 278.438 181.333 278.045 181.086 277.543C180.841 277.037 180.719 276.449 180.719 275.778C180.719 275.108 180.841 274.517 181.086 274.006C181.333 273.491 181.676 273.091 182.117 272.804C182.56 272.514 183.077 272.369 183.668 272.369C184.009 272.369 184.346 272.426 184.678 272.54C185.01 272.653 185.313 272.838 185.586 273.094C185.858 273.347 186.076 273.682 186.238 274.099C186.4 274.517 186.48 275.031 186.48 275.642V276.068H181.435V275.199H185.458C185.458 274.83 185.384 274.5 185.236 274.21C185.091 273.92 184.884 273.692 184.614 273.524C184.347 273.357 184.032 273.273 183.668 273.273C183.267 273.273 182.921 273.372 182.628 273.571C182.338 273.767 182.115 274.023 181.959 274.338C181.803 274.653 181.725 274.991 181.725 275.352V275.932C181.725 276.426 181.81 276.845 181.98 277.189C182.154 277.53 182.394 277.79 182.701 277.969C183.007 278.145 183.364 278.233 183.77 278.233C184.034 278.233 184.273 278.196 184.486 278.122C184.702 278.045 184.888 277.932 185.044 277.781C185.201 277.628 185.321 277.437 185.407 277.21L186.378 277.483C186.276 277.812 186.104 278.102 185.863 278.352C185.621 278.599 185.323 278.793 184.968 278.932C184.613 279.068 184.213 279.136 183.77 279.136ZM188.01 281.455V272.455H188.982V273.494H189.101C189.175 273.381 189.277 273.236 189.408 273.06C189.542 272.881 189.732 272.722 189.979 272.582C190.229 272.44 190.567 272.369 190.993 272.369C191.544 272.369 192.03 272.507 192.451 272.783C192.871 273.058 193.199 273.449 193.435 273.955C193.671 274.46 193.789 275.057 193.789 275.744C193.789 276.438 193.671 277.038 193.435 277.547C193.199 278.053 192.873 278.445 192.455 278.723C192.037 278.999 191.556 279.136 191.01 279.136C190.59 279.136 190.253 279.067 190 278.928C189.748 278.786 189.553 278.625 189.417 278.446C189.28 278.264 189.175 278.114 189.101 277.994H189.016V281.455H188.01ZM188.999 275.727C188.999 276.222 189.071 276.658 189.216 277.036C189.361 277.411 189.573 277.705 189.851 277.918C190.13 278.128 190.471 278.233 190.874 278.233C191.294 278.233 191.645 278.122 191.926 277.901C192.211 277.676 192.424 277.375 192.566 276.997C192.711 276.616 192.783 276.193 192.783 275.727C192.783 275.267 192.712 274.852 192.57 274.483C192.431 274.111 192.219 273.817 191.935 273.601C191.654 273.382 191.3 273.273 190.874 273.273C190.465 273.273 190.121 273.376 189.843 273.584C189.564 273.788 189.354 274.075 189.212 274.445C189.07 274.811 188.999 275.239 188.999 275.727ZM197.249 279.153C196.834 279.153 196.458 279.075 196.12 278.919C195.782 278.76 195.513 278.531 195.314 278.233C195.115 277.932 195.016 277.568 195.016 277.142C195.016 276.767 195.09 276.463 195.238 276.23C195.385 275.994 195.583 275.81 195.83 275.676C196.077 275.543 196.35 275.443 196.648 275.378C196.949 275.31 197.252 275.256 197.556 275.216C197.953 275.165 198.276 275.126 198.523 275.101C198.773 275.072 198.955 275.026 199.069 274.96C199.185 274.895 199.243 274.781 199.243 274.619V274.585C199.243 274.165 199.128 273.838 198.898 273.605C198.671 273.372 198.326 273.256 197.863 273.256C197.382 273.256 197.006 273.361 196.733 273.571C196.461 273.781 196.269 274.006 196.158 274.244L195.203 273.903C195.374 273.506 195.601 273.196 195.885 272.974C196.172 272.75 196.485 272.594 196.823 272.506C197.164 272.415 197.499 272.369 197.828 272.369C198.039 272.369 198.28 272.395 198.553 272.446C198.828 272.494 199.094 272.595 199.35 272.749C199.608 272.902 199.823 273.134 199.993 273.443C200.164 273.753 200.249 274.168 200.249 274.688V279H199.243V278.114H199.192C199.124 278.256 199.01 278.408 198.851 278.57C198.692 278.732 198.48 278.869 198.216 278.983C197.952 279.097 197.63 279.153 197.249 279.153ZM197.402 278.25C197.8 278.25 198.135 278.172 198.408 278.016C198.684 277.859 198.891 277.658 199.03 277.411C199.172 277.163 199.243 276.903 199.243 276.631V275.71C199.201 275.761 199.107 275.808 198.962 275.851C198.82 275.891 198.655 275.926 198.468 275.957C198.283 275.986 198.103 276.011 197.926 276.034C197.753 276.054 197.613 276.071 197.505 276.085C197.243 276.119 196.999 276.175 196.772 276.251C196.547 276.325 196.365 276.437 196.226 276.588C196.09 276.736 196.022 276.937 196.022 277.193C196.022 277.543 196.151 277.807 196.409 277.986C196.671 278.162 197.002 278.25 197.402 278.25ZM202.085 279V272.455H203.056V273.443H203.124C203.244 273.119 203.46 272.857 203.772 272.655C204.085 272.453 204.437 272.352 204.829 272.352C204.903 272.352 204.995 272.354 205.106 272.357C205.217 272.359 205.3 272.364 205.357 272.369V273.392C205.323 273.384 205.245 273.371 205.123 273.354C205.004 273.334 204.877 273.324 204.744 273.324C204.425 273.324 204.141 273.391 203.891 273.524C203.644 273.655 203.448 273.837 203.303 274.07C203.161 274.3 203.09 274.562 203.09 274.858V279H202.085ZM208.475 279.153C208.061 279.153 207.684 279.075 207.346 278.919C207.008 278.76 206.74 278.531 206.541 278.233C206.342 277.932 206.243 277.568 206.243 277.142C206.243 276.767 206.316 276.463 206.464 276.23C206.612 275.994 206.809 275.81 207.056 275.676C207.304 275.543 207.576 275.443 207.875 275.378C208.176 275.31 208.478 275.256 208.782 275.216C209.18 275.165 209.502 275.126 209.75 275.101C210 275.072 210.181 275.026 210.295 274.96C210.412 274.895 210.47 274.781 210.47 274.619V274.585C210.47 274.165 210.355 273.838 210.125 273.605C209.897 273.372 209.552 273.256 209.089 273.256C208.609 273.256 208.233 273.361 207.96 273.571C207.687 273.781 207.495 274.006 207.385 274.244L206.43 273.903C206.6 273.506 206.828 273.196 207.112 272.974C207.399 272.75 207.711 272.594 208.049 272.506C208.39 272.415 208.725 272.369 209.055 272.369C209.265 272.369 209.507 272.395 209.779 272.446C210.055 272.494 210.321 272.595 210.576 272.749C210.835 272.902 211.049 273.134 211.22 273.443C211.39 273.753 211.475 274.168 211.475 274.688V279H210.47V278.114H210.419C210.35 278.256 210.237 278.408 210.078 278.57C209.919 278.732 209.707 278.869 209.443 278.983C209.179 279.097 208.856 279.153 208.475 279.153ZM208.629 278.25C209.027 278.25 209.362 278.172 209.635 278.016C209.91 277.859 210.118 277.658 210.257 277.411C210.399 277.163 210.47 276.903 210.47 276.631V275.71C210.427 275.761 210.333 275.808 210.189 275.851C210.047 275.891 209.882 275.926 209.694 275.957C209.51 275.986 209.329 276.011 209.153 276.034C208.98 276.054 208.839 276.071 208.731 276.085C208.47 276.119 208.225 276.175 207.998 276.251C207.774 276.325 207.592 276.437 207.453 276.588C207.316 276.736 207.248 276.937 207.248 277.193C207.248 277.543 207.377 277.807 207.636 277.986C207.897 278.162 208.228 278.25 208.629 278.25ZM216.158 272.455V273.307H212.766V272.455H216.158ZM213.754 270.886H214.76V277.125C214.76 277.409 214.801 277.622 214.884 277.764C214.969 277.903 215.077 277.997 215.207 278.045C215.341 278.091 215.482 278.114 215.629 278.114C215.74 278.114 215.831 278.108 215.902 278.097C215.973 278.082 216.03 278.071 216.072 278.062L216.277 278.966C216.209 278.991 216.114 279.017 215.991 279.043C215.869 279.071 215.714 279.085 215.527 279.085C215.243 279.085 214.964 279.024 214.692 278.902C214.422 278.78 214.197 278.594 214.018 278.344C213.842 278.094 213.754 277.778 213.754 277.398V270.886ZM217.67 279V272.455H218.676V279H217.67ZM218.182 271.364C217.986 271.364 217.817 271.297 217.675 271.163C217.536 271.03 217.466 270.869 217.466 270.682C217.466 270.494 217.536 270.334 217.675 270.2C217.817 270.067 217.986 270 218.182 270C218.378 270 218.545 270.067 218.685 270.2C218.827 270.334 218.898 270.494 218.898 270.682C218.898 270.869 218.827 271.03 218.685 271.163C218.545 271.297 218.378 271.364 218.182 271.364ZM223.177 279.136C222.586 279.136 222.068 278.996 221.622 278.714C221.179 278.433 220.832 278.04 220.582 277.534C220.335 277.028 220.211 276.437 220.211 275.761C220.211 275.08 220.335 274.484 220.582 273.976C220.832 273.467 221.179 273.072 221.622 272.791C222.068 272.51 222.586 272.369 223.177 272.369C223.768 272.369 224.285 272.51 224.728 272.791C225.174 273.072 225.521 273.467 225.768 273.976C226.018 274.484 226.143 275.08 226.143 275.761C226.143 276.437 226.018 277.028 225.768 277.534C225.521 278.04 225.174 278.433 224.728 278.714C224.285 278.996 223.768 279.136 223.177 279.136ZM223.177 278.233C223.626 278.233 223.995 278.118 224.285 277.888C224.575 277.658 224.789 277.355 224.929 276.98C225.068 276.605 225.137 276.199 225.137 275.761C225.137 275.324 225.068 274.916 224.929 274.538C224.789 274.161 224.575 273.855 224.285 273.622C223.995 273.389 223.626 273.273 223.177 273.273C222.728 273.273 222.359 273.389 222.069 273.622C221.779 273.855 221.565 274.161 221.426 274.538C221.287 274.916 221.217 275.324 221.217 275.761C221.217 276.199 221.287 276.605 221.426 276.98C221.565 277.355 221.779 277.658 222.069 277.888C222.359 278.118 222.728 278.233 223.177 278.233ZM228.684 275.062V279H227.678V272.455H228.65V273.477H228.735C228.888 273.145 229.121 272.878 229.434 272.676C229.746 272.472 230.15 272.369 230.644 272.369C231.087 272.369 231.475 272.46 231.808 272.642C232.14 272.821 232.398 273.094 232.583 273.46C232.768 273.824 232.86 274.284 232.86 274.841V279H231.854V274.909C231.854 274.395 231.721 273.994 231.454 273.707C231.187 273.418 230.82 273.273 230.354 273.273C230.033 273.273 229.746 273.342 229.494 273.482C229.244 273.621 229.046 273.824 228.901 274.091C228.756 274.358 228.684 274.682 228.684 275.062Z" fill="white"/>
<path d="M278.167 212C280.465 212 282.67 212.913 284.295 214.538C285.92 216.164 286.833 218.368 286.833 220.667C286.833 222.813 286.047 224.787 284.753 226.307L285.113 226.667H286.167L292.833 233.333L290.833 235.333L284.167 228.667V227.613L283.807 227.253C282.234 228.595 280.234 229.333 278.167 229.333C275.868 229.333 273.664 228.42 272.038 226.795C270.413 225.17 269.5 222.965 269.5 220.667C269.5 218.368 270.413 216.164 272.038 214.538C273.664 212.913 275.868 212 278.167 212ZM278.167 214.667C274.833 214.667 272.167 217.333 272.167 220.667C272.167 224 274.833 226.667 278.167 226.667C281.5 226.667 284.167 224 284.167 220.667C284.167 217.333 281.5 214.667 278.167 214.667Z" fill="#23D5D5"/>
<path d="M259.922 261V252.273H262.871C263.556 252.273 264.115 252.396 264.55 252.643C264.987 252.888 265.311 253.219 265.521 253.636C265.732 254.054 265.837 254.52 265.837 255.034C265.837 255.548 265.732 256.016 265.521 256.436C265.314 256.857 264.993 257.192 264.558 257.442C264.124 257.689 263.567 257.812 262.888 257.812H260.774V256.875H262.854C263.323 256.875 263.699 256.794 263.983 256.632C264.267 256.47 264.473 256.251 264.601 255.976C264.732 255.697 264.797 255.384 264.797 255.034C264.797 254.685 264.732 254.372 264.601 254.097C264.473 253.821 264.266 253.605 263.979 253.449C263.692 253.29 263.311 253.21 262.837 253.21H260.979V261H259.922ZM267.403 261V254.455H268.374V255.443H268.443C268.562 255.119 268.778 254.857 269.09 254.655C269.403 254.453 269.755 254.352 270.147 254.352C270.221 254.352 270.313 254.354 270.424 254.357C270.535 254.359 270.619 254.364 270.676 254.369V255.392C270.642 255.384 270.563 255.371 270.441 255.354C270.322 255.334 270.195 255.324 270.062 255.324C269.744 255.324 269.46 255.391 269.21 255.524C268.963 255.655 268.767 255.837 268.622 256.07C268.48 256.3 268.409 256.562 268.409 256.858V261H267.403ZM274.328 261.136C273.737 261.136 273.218 260.996 272.772 260.714C272.329 260.433 271.982 260.04 271.732 259.534C271.485 259.028 271.362 258.437 271.362 257.761C271.362 257.08 271.485 256.484 271.732 255.976C271.982 255.467 272.329 255.072 272.772 254.791C273.218 254.51 273.737 254.369 274.328 254.369C274.919 254.369 275.436 254.51 275.879 254.791C276.325 255.072 276.671 255.467 276.919 255.976C277.169 256.484 277.294 257.08 277.294 257.761C277.294 258.437 277.169 259.028 276.919 259.534C276.671 260.04 276.325 260.433 275.879 260.714C275.436 260.996 274.919 261.136 274.328 261.136ZM274.328 260.233C274.776 260.233 275.146 260.118 275.436 259.888C275.725 259.658 275.94 259.355 276.079 258.98C276.218 258.605 276.288 258.199 276.288 257.761C276.288 257.324 276.218 256.916 276.079 256.538C275.94 256.161 275.725 255.855 275.436 255.622C275.146 255.389 274.776 255.273 274.328 255.273C273.879 255.273 273.509 255.389 273.22 255.622C272.93 255.855 272.715 256.161 272.576 256.538C272.437 256.916 272.367 257.324 272.367 257.761C272.367 258.199 272.437 258.605 272.576 258.98C272.715 259.355 272.93 259.658 273.22 259.888C273.509 260.118 273.879 260.233 274.328 260.233ZM281.488 261.136C280.874 261.136 280.346 260.991 279.903 260.702C279.459 260.412 279.118 260.013 278.88 259.504C278.641 258.996 278.522 258.415 278.522 257.761C278.522 257.097 278.644 256.51 278.888 256.001C279.135 255.49 279.479 255.091 279.92 254.804C280.363 254.514 280.88 254.369 281.471 254.369C281.931 254.369 282.346 254.455 282.715 254.625C283.084 254.795 283.387 255.034 283.623 255.341C283.858 255.648 284.005 256.006 284.062 256.415H283.056C282.979 256.116 282.809 255.852 282.545 255.622C282.283 255.389 281.931 255.273 281.488 255.273C281.096 255.273 280.752 255.375 280.456 255.58C280.164 255.781 279.935 256.067 279.77 256.436C279.608 256.803 279.528 257.233 279.528 257.727C279.528 258.233 279.607 258.673 279.766 259.048C279.928 259.423 280.155 259.714 280.448 259.922C280.743 260.129 281.09 260.233 281.488 260.233C281.749 260.233 281.986 260.188 282.199 260.097C282.412 260.006 282.593 259.875 282.741 259.705C282.888 259.534 282.993 259.33 283.056 259.091H284.062C284.005 259.477 283.864 259.825 283.64 260.135C283.418 260.442 283.124 260.686 282.758 260.868C282.394 261.047 281.971 261.136 281.488 261.136ZM288.276 261.136C287.645 261.136 287.101 260.997 286.644 260.719C286.189 260.438 285.839 260.045 285.591 259.543C285.347 259.037 285.225 258.449 285.225 257.778C285.225 257.108 285.347 256.517 285.591 256.006C285.839 255.491 286.182 255.091 286.623 254.804C287.066 254.514 287.583 254.369 288.174 254.369C288.515 254.369 288.851 254.426 289.184 254.54C289.516 254.653 289.819 254.838 290.091 255.094C290.364 255.347 290.581 255.682 290.743 256.099C290.905 256.517 290.986 257.031 290.986 257.642V258.068H285.941V257.199H289.964C289.964 256.83 289.89 256.5 289.742 256.21C289.597 255.92 289.39 255.692 289.12 255.524C288.853 255.357 288.537 255.273 288.174 255.273C287.773 255.273 287.427 255.372 287.134 255.571C286.844 255.767 286.621 256.023 286.465 256.338C286.309 256.653 286.231 256.991 286.231 257.352V257.932C286.231 258.426 286.316 258.845 286.486 259.189C286.66 259.53 286.9 259.79 287.206 259.969C287.513 260.145 287.87 260.233 288.276 260.233C288.54 260.233 288.779 260.196 288.992 260.122C289.208 260.045 289.394 259.932 289.55 259.781C289.706 259.628 289.827 259.437 289.912 259.21L290.884 259.483C290.782 259.812 290.61 260.102 290.368 260.352C290.127 260.599 289.829 260.793 289.474 260.932C289.118 261.068 288.719 261.136 288.276 261.136ZM297.153 255.92L296.249 256.176C296.192 256.026 296.108 255.879 295.998 255.737C295.89 255.592 295.742 255.473 295.555 255.379C295.367 255.286 295.127 255.239 294.834 255.239C294.434 255.239 294.1 255.331 293.833 255.516C293.569 255.697 293.437 255.929 293.437 256.21C293.437 256.46 293.528 256.658 293.709 256.803C293.891 256.947 294.175 257.068 294.562 257.165L295.533 257.403C296.118 257.545 296.555 257.763 296.841 258.055C297.128 258.345 297.272 258.719 297.272 259.176C297.272 259.551 297.164 259.886 296.948 260.182C296.735 260.477 296.437 260.71 296.053 260.881C295.67 261.051 295.224 261.136 294.715 261.136C294.047 261.136 293.495 260.991 293.057 260.702C292.62 260.412 292.343 259.989 292.226 259.432L293.181 259.193C293.272 259.545 293.444 259.81 293.697 259.986C293.952 260.162 294.286 260.25 294.698 260.25C295.167 260.25 295.539 260.151 295.814 259.952C296.093 259.75 296.232 259.509 296.232 259.227C296.232 259 296.153 258.81 295.993 258.656C295.834 258.5 295.59 258.384 295.26 258.307L294.17 258.051C293.57 257.909 293.13 257.689 292.849 257.391C292.57 257.089 292.431 256.713 292.431 256.261C292.431 255.892 292.535 255.565 292.742 255.281C292.952 254.997 293.238 254.774 293.599 254.612C293.962 254.45 294.374 254.369 294.834 254.369C295.482 254.369 295.991 254.511 296.36 254.795C296.732 255.08 296.996 255.455 297.153 255.92ZM303.422 255.92L302.519 256.176C302.462 256.026 302.378 255.879 302.267 255.737C302.159 255.592 302.012 255.473 301.824 255.379C301.637 255.286 301.396 255.239 301.104 255.239C300.703 255.239 300.369 255.331 300.102 255.516C299.838 255.697 299.706 255.929 299.706 256.21C299.706 256.46 299.797 256.658 299.979 256.803C300.161 256.947 300.445 257.068 300.831 257.165L301.803 257.403C302.388 257.545 302.824 257.763 303.111 258.055C303.398 258.345 303.541 258.719 303.541 259.176C303.541 259.551 303.433 259.886 303.218 260.182C303.004 260.477 302.706 260.71 302.323 260.881C301.939 261.051 301.493 261.136 300.985 261.136C300.317 261.136 299.764 260.991 299.327 260.702C298.889 260.412 298.612 259.989 298.496 259.432L299.45 259.193C299.541 259.545 299.713 259.81 299.966 259.986C300.222 260.162 300.556 260.25 300.968 260.25C301.436 260.25 301.808 260.151 302.084 259.952C302.362 259.75 302.502 259.509 302.502 259.227C302.502 259 302.422 258.81 302.263 258.656C302.104 258.5 301.86 258.384 301.53 258.307L300.439 258.051C299.84 257.909 299.399 257.689 299.118 257.391C298.84 257.089 298.7 256.713 298.7 256.261C298.7 255.892 298.804 255.565 299.012 255.281C299.222 254.997 299.507 254.774 299.868 254.612C300.232 254.45 300.644 254.369 301.104 254.369C301.752 254.369 302.26 254.511 302.629 254.795C303.002 255.08 303.266 255.455 303.422 255.92ZM259.512 278H258.404L261.609 269.273H262.7L265.904 278H264.797L262.189 270.653H262.12L259.512 278ZM259.922 274.591H264.387V275.528H259.922V274.591ZM268.133 274.062V278H267.127V271.455H268.099V272.477H268.184C268.338 272.145 268.571 271.878 268.883 271.676C269.196 271.472 269.599 271.369 270.093 271.369C270.537 271.369 270.924 271.46 271.257 271.642C271.589 271.821 271.848 272.094 272.032 272.46C272.217 272.824 272.309 273.284 272.309 273.841V278H271.304V273.909C271.304 273.395 271.17 272.994 270.903 272.707C270.636 272.418 270.27 272.273 269.804 272.273C269.483 272.273 269.196 272.342 268.943 272.482C268.693 272.621 268.495 272.824 268.35 273.091C268.206 273.358 268.133 273.682 268.133 274.062ZM276.073 278.153C275.658 278.153 275.282 278.075 274.944 277.919C274.606 277.76 274.337 277.531 274.138 277.233C273.94 276.932 273.84 276.568 273.84 276.142C273.84 275.767 273.914 275.463 274.062 275.23C274.21 274.994 274.407 274.81 274.654 274.676C274.901 274.543 275.174 274.443 275.472 274.378C275.773 274.31 276.076 274.256 276.38 274.216C276.778 274.165 277.1 274.126 277.347 274.101C277.597 274.072 277.779 274.026 277.893 273.96C278.009 273.895 278.067 273.781 278.067 273.619V273.585C278.067 273.165 277.952 272.838 277.722 272.605C277.495 272.372 277.15 272.256 276.687 272.256C276.207 272.256 275.83 272.361 275.558 272.571C275.285 272.781 275.093 273.006 274.982 273.244L274.028 272.903C274.198 272.506 274.425 272.196 274.71 271.974C274.996 271.75 275.309 271.594 275.647 271.506C275.988 271.415 276.323 271.369 276.653 271.369C276.863 271.369 277.104 271.395 277.377 271.446C277.653 271.494 277.918 271.595 278.174 271.749C278.433 271.902 278.647 272.134 278.817 272.443C278.988 272.753 279.073 273.168 279.073 273.688V278H278.067V277.114H278.016C277.948 277.256 277.835 277.408 277.675 277.57C277.516 277.732 277.305 277.869 277.04 277.983C276.776 278.097 276.454 278.153 276.073 278.153ZM276.227 277.25C276.624 277.25 276.96 277.172 277.232 277.016C277.508 276.859 277.715 276.658 277.854 276.411C277.996 276.163 278.067 275.903 278.067 275.631V274.71C278.025 274.761 277.931 274.808 277.786 274.851C277.644 274.891 277.479 274.926 277.292 274.957C277.107 274.986 276.927 275.011 276.751 275.034C276.577 275.054 276.437 275.071 276.329 275.085C276.067 275.119 275.823 275.175 275.596 275.251C275.371 275.325 275.19 275.437 275.05 275.588C274.914 275.736 274.846 275.937 274.846 276.193C274.846 276.543 274.975 276.807 275.234 276.986C275.495 277.162 275.826 277.25 276.227 277.25ZM281.914 269.273V278H280.909V269.273H281.914ZM284.404 280.455C284.234 280.455 284.082 280.44 283.948 280.412C283.815 280.386 283.722 280.361 283.671 280.335L283.927 279.449C284.171 279.511 284.387 279.534 284.575 279.517C284.762 279.5 284.928 279.416 285.073 279.266C285.221 279.118 285.356 278.878 285.478 278.545L285.665 278.034L283.245 271.455H284.336L286.143 276.67H286.211L288.018 271.455H289.109L286.33 278.955C286.205 279.293 286.05 279.572 285.866 279.794C285.681 280.018 285.467 280.185 285.222 280.293C284.981 280.401 284.708 280.455 284.404 280.455ZM295.072 272.92L294.169 273.176C294.112 273.026 294.028 272.879 293.918 272.737C293.81 272.592 293.662 272.473 293.474 272.379C293.287 272.286 293.047 272.239 292.754 272.239C292.354 272.239 292.02 272.331 291.753 272.516C291.489 272.697 291.357 272.929 291.357 273.21C291.357 273.46 291.447 273.658 291.629 273.803C291.811 273.947 292.095 274.068 292.482 274.165L293.453 274.403C294.038 274.545 294.474 274.763 294.761 275.055C295.048 275.345 295.192 275.719 295.192 276.176C295.192 276.551 295.084 276.886 294.868 277.182C294.655 277.477 294.357 277.71 293.973 277.881C293.589 278.051 293.143 278.136 292.635 278.136C291.967 278.136 291.415 277.991 290.977 277.702C290.54 277.412 290.263 276.989 290.146 276.432L291.101 276.193C291.192 276.545 291.364 276.81 291.616 276.986C291.872 277.162 292.206 277.25 292.618 277.25C293.087 277.25 293.459 277.151 293.734 276.952C294.013 276.75 294.152 276.509 294.152 276.227C294.152 276 294.072 275.81 293.913 275.656C293.754 275.5 293.51 275.384 293.18 275.307L292.089 275.051C291.49 274.909 291.05 274.689 290.768 274.391C290.49 274.089 290.351 273.713 290.351 273.261C290.351 272.892 290.455 272.565 290.662 272.281C290.872 271.997 291.158 271.774 291.518 271.612C291.882 271.45 292.294 271.369 292.754 271.369C293.402 271.369 293.911 271.511 294.28 271.795C294.652 272.08 294.916 272.455 295.072 272.92ZM296.706 278V271.455H297.711V278H296.706ZM297.217 270.364C297.021 270.364 296.852 270.297 296.71 270.163C296.571 270.03 296.501 269.869 296.501 269.682C296.501 269.494 296.571 269.334 296.71 269.2C296.852 269.067 297.021 269 297.217 269C297.413 269 297.581 269.067 297.72 269.2C297.862 269.334 297.933 269.494 297.933 269.682C297.933 269.869 297.862 270.03 297.72 270.163C297.581 270.297 297.413 270.364 297.217 270.364ZM304.19 272.92L303.286 273.176C303.229 273.026 303.146 272.879 303.035 272.737C302.927 272.592 302.779 272.473 302.592 272.379C302.404 272.286 302.164 272.239 301.871 272.239C301.471 272.239 301.137 272.331 300.87 272.516C300.606 272.697 300.474 272.929 300.474 273.21C300.474 273.46 300.565 273.658 300.746 273.803C300.928 273.947 301.212 274.068 301.599 274.165L302.57 274.403C303.156 274.545 303.592 274.763 303.879 275.055C304.165 275.345 304.309 275.719 304.309 276.176C304.309 276.551 304.201 276.886 303.985 277.182C303.772 277.477 303.474 277.71 303.09 277.881C302.707 278.051 302.261 278.136 301.752 278.136C301.085 278.136 300.532 277.991 300.094 277.702C299.657 277.412 299.38 276.989 299.263 276.432L300.218 276.193C300.309 276.545 300.481 276.81 300.734 276.986C300.989 277.162 301.323 277.25 301.735 277.25C302.204 277.25 302.576 277.151 302.852 276.952C303.13 276.75 303.269 276.509 303.269 276.227C303.269 276 303.19 275.81 303.031 275.656C302.871 275.5 302.627 275.384 302.298 275.307L301.207 275.051C300.607 274.909 300.167 274.689 299.886 274.391C299.607 274.089 299.468 273.713 299.468 273.261C299.468 272.892 299.572 272.565 299.779 272.281C299.989 271.997 300.275 271.774 300.636 271.612C300.999 271.45 301.411 271.369 301.871 271.369C302.519 271.369 303.028 271.511 303.397 271.795C303.769 272.08 304.033 272.455 304.19 272.92Z" fill="white"/>
<path d="M373.617 218.837L373.289 219.592C373.237 219.715 373.151 219.82 373.04 219.894C372.929 219.968 372.799 220.007 372.666 220.007C372.533 220.007 372.403 219.968 372.292 219.894C372.181 219.82 372.095 219.715 372.043 219.592L371.715 218.837C371.139 217.502 370.083 216.432 368.755 215.837L367.743 215.385C367.621 215.329 367.517 215.238 367.444 215.125C367.371 215.011 367.332 214.878 367.332 214.743C367.332 214.608 367.371 214.476 367.444 214.362C367.517 214.248 367.621 214.158 367.743 214.101L368.699 213.676C370.06 213.065 371.134 211.955 371.701 210.575L372.038 209.76C372.088 209.634 372.174 209.525 372.286 209.449C372.398 209.373 372.53 209.332 372.666 209.332C372.802 209.332 372.934 209.373 373.046 209.449C373.158 209.525 373.244 209.634 373.294 209.76L373.631 210.573C374.197 211.953 375.271 213.064 376.631 213.676L377.589 214.103C377.711 214.159 377.815 214.25 377.887 214.363C377.96 214.477 377.999 214.609 377.999 214.744C377.999 214.879 377.96 215.011 377.887 215.125C377.815 215.238 377.711 215.329 377.589 215.385L376.575 215.836C375.248 216.431 374.193 217.502 373.617 218.837ZM361.999 213.333C359.835 213.334 357.723 213.992 355.942 215.221C354.161 216.451 352.796 218.193 352.028 220.216C351.26 222.239 351.126 224.448 351.643 226.549C352.161 228.65 353.305 230.545 354.924 231.981C356.543 233.416 358.56 234.326 360.708 234.588C362.856 234.85 365.033 234.453 366.95 233.449C368.867 232.445 370.433 230.882 371.441 228.967C372.448 227.051 372.85 224.875 372.591 222.727L375.239 222.412C375.302 222.934 375.333 223.463 375.333 224C375.333 231.364 369.363 237.333 361.999 237.333C354.635 237.333 348.666 231.364 348.666 224C348.666 216.636 354.635 210.667 361.999 210.667C363.147 210.667 364.265 210.813 365.33 211.087L364.666 213.669C363.795 213.445 362.899 213.332 361.999 213.333ZM363.333 222.667H367.333L360.666 232V225.333H356.666L363.333 216V222.667Z" fill="#23D5D5"/>
<path d="M336.27 252.273V261H335.213V252.273H336.27ZM339.258 257.062V261H338.252V254.455H339.224V255.477H339.309C339.463 255.145 339.696 254.878 340.008 254.676C340.321 254.472 340.724 254.369 341.218 254.369C341.662 254.369 342.049 254.46 342.382 254.642C342.714 254.821 342.973 255.094 343.157 255.46C343.342 255.824 343.434 256.284 343.434 256.841V261H342.429V256.909C342.429 256.395 342.295 255.994 342.028 255.707C341.761 255.418 341.395 255.273 340.929 255.273C340.608 255.273 340.321 255.342 340.068 255.482C339.818 255.621 339.62 255.824 339.475 256.091C339.331 256.358 339.258 256.682 339.258 257.062ZM348.119 254.455V255.307H344.727V254.455H348.119ZM345.715 252.886H346.721V259.125C346.721 259.409 346.762 259.622 346.844 259.764C346.93 259.903 347.038 259.997 347.168 260.045C347.302 260.091 347.442 260.114 347.59 260.114C347.701 260.114 347.792 260.108 347.863 260.097C347.934 260.082 347.991 260.071 348.033 260.062L348.238 260.966C348.17 260.991 348.075 261.017 347.952 261.043C347.83 261.071 347.675 261.085 347.488 261.085C347.204 261.085 346.925 261.024 346.653 260.902C346.383 260.78 346.158 260.594 345.979 260.344C345.803 260.094 345.715 259.778 345.715 259.398V252.886ZM352.305 261.136C351.675 261.136 351.131 260.997 350.673 260.719C350.219 260.438 349.868 260.045 349.621 259.543C349.376 259.037 349.254 258.449 349.254 257.778C349.254 257.108 349.376 256.517 349.621 256.006C349.868 255.491 350.212 255.091 350.652 254.804C351.095 254.514 351.612 254.369 352.203 254.369C352.544 254.369 352.881 254.426 353.213 254.54C353.545 254.653 353.848 254.838 354.121 255.094C354.393 255.347 354.611 255.682 354.773 256.099C354.935 256.517 355.016 257.031 355.016 257.642V258.068H349.97V257.199H353.993C353.993 256.83 353.919 256.5 353.771 256.21C353.626 255.92 353.419 255.692 353.149 255.524C352.882 255.357 352.567 255.273 352.203 255.273C351.803 255.273 351.456 255.372 351.163 255.571C350.874 255.767 350.651 256.023 350.494 256.338C350.338 256.653 350.26 256.991 350.26 257.352V257.932C350.26 258.426 350.345 258.845 350.516 259.189C350.689 259.53 350.929 259.79 351.236 259.969C351.543 260.145 351.899 260.233 352.305 260.233C352.57 260.233 352.808 260.196 353.021 260.122C353.237 260.045 353.423 259.932 353.58 259.781C353.736 259.628 353.857 259.437 353.942 259.21L354.913 259.483C354.811 259.812 354.639 260.102 354.398 260.352C354.156 260.599 353.858 260.793 353.503 260.932C353.148 261.068 352.749 261.136 352.305 261.136ZM357.551 252.273V261H356.545V252.273H357.551ZM360.399 252.273V261H359.393V252.273H360.399ZM362.241 261V254.455H363.246V261H362.241ZM362.752 253.364C362.556 253.364 362.387 253.297 362.245 253.163C362.106 253.03 362.036 252.869 362.036 252.682C362.036 252.494 362.106 252.334 362.245 252.2C362.387 252.067 362.556 252 362.752 252C362.948 252 363.116 252.067 363.255 252.2C363.397 252.334 363.468 252.494 363.468 252.682C363.468 252.869 363.397 253.03 363.255 253.163C363.116 253.297 362.948 253.364 362.752 253.364ZM367.73 263.591C367.245 263.591 366.827 263.528 366.478 263.403C366.128 263.281 365.837 263.119 365.604 262.918C365.374 262.719 365.191 262.506 365.054 262.278L365.855 261.716C365.946 261.835 366.061 261.972 366.201 262.125C366.34 262.281 366.53 262.416 366.772 262.53C367.016 262.646 367.336 262.705 367.73 262.705C368.259 262.705 368.695 262.577 369.039 262.321C369.382 262.065 369.554 261.665 369.554 261.119V259.79H369.469C369.395 259.909 369.29 260.057 369.154 260.233C369.02 260.406 368.827 260.561 368.574 260.697C368.324 260.831 367.986 260.898 367.56 260.898C367.032 260.898 366.557 260.773 366.137 260.523C365.719 260.273 365.388 259.909 365.144 259.432C364.902 258.955 364.782 258.375 364.782 257.693C364.782 257.023 364.9 256.439 365.135 255.942C365.371 255.442 365.699 255.055 366.12 254.783C366.54 254.507 367.026 254.369 367.577 254.369C368.003 254.369 368.341 254.44 368.591 254.582C368.844 254.722 369.037 254.881 369.171 255.06C369.307 255.236 369.412 255.381 369.486 255.494H369.588V254.455H370.56V261.188C370.56 261.75 370.432 262.207 370.176 262.56C369.924 262.915 369.583 263.175 369.154 263.339C368.728 263.507 368.253 263.591 367.73 263.591ZM367.696 259.994C368.1 259.994 368.441 259.902 368.719 259.717C368.998 259.533 369.209 259.267 369.354 258.92C369.499 258.574 369.571 258.159 369.571 257.676C369.571 257.205 369.5 256.788 369.358 256.428C369.216 256.067 369.006 255.784 368.728 255.58C368.449 255.375 368.105 255.273 367.696 255.273C367.27 255.273 366.915 255.381 366.631 255.597C366.35 255.812 366.138 256.102 365.996 256.466C365.857 256.83 365.787 257.233 365.787 257.676C365.787 258.131 365.858 258.533 366 258.882C366.145 259.229 366.358 259.501 366.64 259.7C366.924 259.896 367.276 259.994 367.696 259.994ZM375.145 261.136C374.515 261.136 373.971 260.997 373.513 260.719C373.059 260.438 372.708 260.045 372.461 259.543C372.216 259.037 372.094 258.449 372.094 257.778C372.094 257.108 372.216 256.517 372.461 256.006C372.708 255.491 373.051 255.091 373.492 254.804C373.935 254.514 374.452 254.369 375.043 254.369C375.384 254.369 375.721 254.426 376.053 254.54C376.385 254.653 376.688 254.838 376.961 255.094C377.233 255.347 377.451 255.682 377.613 256.099C377.775 256.517 377.855 257.031 377.855 257.642V258.068H372.81V257.199H376.833C376.833 256.83 376.759 256.5 376.611 256.21C376.466 255.92 376.259 255.692 375.989 255.524C375.722 255.357 375.407 255.273 375.043 255.273C374.642 255.273 374.296 255.372 374.003 255.571C373.713 255.767 373.49 256.023 373.334 256.338C373.178 256.653 373.1 256.991 373.1 257.352V257.932C373.1 258.426 373.185 258.845 373.355 259.189C373.529 259.53 373.769 259.79 374.076 259.969C374.382 260.145 374.739 260.233 375.145 260.233C375.409 260.233 375.648 260.196 375.861 260.122C376.077 260.045 376.263 259.932 376.419 259.781C376.576 259.628 376.696 259.437 376.782 259.21L377.753 259.483C377.651 259.812 377.479 260.102 377.238 260.352C376.996 260.599 376.698 260.793 376.343 260.932C375.988 261.068 375.588 261.136 375.145 261.136ZM380.391 257.062V261H379.385V254.455H380.357V255.477H380.442C380.596 255.145 380.828 254.878 381.141 254.676C381.453 254.472 381.857 254.369 382.351 254.369C382.794 254.369 383.182 254.46 383.515 254.642C383.847 254.821 384.105 255.094 384.29 255.46C384.475 255.824 384.567 256.284 384.567 256.841V261H383.561V256.909C383.561 256.395 383.428 255.994 383.161 255.707C382.894 255.418 382.527 255.273 382.061 255.273C381.74 255.273 381.453 255.342 381.201 255.482C380.951 255.621 380.753 255.824 380.608 256.091C380.463 256.358 380.391 256.682 380.391 257.062ZM389.251 254.455V255.307H385.859V254.455H389.251ZM386.848 252.886H387.854V259.125C387.854 259.409 387.895 259.622 387.977 259.764C388.063 259.903 388.17 259.997 388.301 260.045C388.435 260.091 388.575 260.114 388.723 260.114C388.834 260.114 388.925 260.108 388.996 260.097C389.067 260.082 389.124 260.071 389.166 260.062L389.371 260.966C389.303 260.991 389.207 261.017 389.085 261.043C388.963 261.071 388.808 261.085 388.621 261.085C388.337 261.085 388.058 261.024 387.786 260.902C387.516 260.78 387.291 260.594 387.112 260.344C386.936 260.094 386.848 259.778 386.848 259.398V252.886ZM330.86 278H329.752L332.957 269.273H334.048L337.252 278H336.144L333.536 270.653H333.468L330.86 278ZM331.269 274.591H335.735V275.528H331.269V274.591ZM342.6 275.324V271.455H343.606V278H342.6V276.892H342.532C342.379 277.224 342.14 277.507 341.816 277.74C341.492 277.97 341.083 278.085 340.589 278.085C340.18 278.085 339.816 277.996 339.498 277.817C339.18 277.635 338.93 277.362 338.748 276.999C338.566 276.632 338.475 276.17 338.475 275.614V271.455H339.481V275.545C339.481 276.023 339.614 276.403 339.881 276.688C340.151 276.972 340.495 277.114 340.913 277.114C341.163 277.114 341.417 277.05 341.675 276.922C341.937 276.794 342.156 276.598 342.332 276.334C342.511 276.07 342.6 275.733 342.6 275.324ZM348.294 271.455V272.307H344.902V271.455H348.294ZM345.891 269.886H346.897V276.125C346.897 276.409 346.938 276.622 347.02 276.764C347.105 276.903 347.213 276.997 347.344 277.045C347.478 277.091 347.618 277.114 347.766 277.114C347.877 277.114 347.968 277.108 348.039 277.097C348.11 277.082 348.167 277.071 348.209 277.062L348.414 277.966C348.346 277.991 348.25 278.017 348.128 278.043C348.006 278.071 347.851 278.085 347.664 278.085C347.38 278.085 347.101 278.024 346.828 277.902C346.559 277.78 346.334 277.594 346.155 277.344C345.979 277.094 345.891 276.778 345.891 276.398V269.886ZM352.396 278.136C351.805 278.136 351.287 277.996 350.841 277.714C350.397 277.433 350.051 277.04 349.801 276.534C349.554 276.028 349.43 275.437 349.43 274.761C349.43 274.08 349.554 273.484 349.801 272.976C350.051 272.467 350.397 272.072 350.841 271.791C351.287 271.51 351.805 271.369 352.396 271.369C352.987 271.369 353.504 271.51 353.947 271.791C354.393 272.072 354.74 272.467 354.987 272.976C355.237 273.484 355.362 274.08 355.362 274.761C355.362 275.437 355.237 276.028 354.987 276.534C354.74 277.04 354.393 277.433 353.947 277.714C353.504 277.996 352.987 278.136 352.396 278.136ZM352.396 277.233C352.845 277.233 353.214 277.118 353.504 276.888C353.794 276.658 354.008 276.355 354.147 275.98C354.287 275.605 354.356 275.199 354.356 274.761C354.356 274.324 354.287 273.916 354.147 273.538C354.008 273.161 353.794 272.855 353.504 272.622C353.214 272.389 352.845 272.273 352.396 272.273C351.947 272.273 351.578 272.389 351.288 272.622C350.998 272.855 350.784 273.161 350.645 273.538C350.505 273.916 350.436 274.324 350.436 274.761C350.436 275.199 350.505 275.605 350.645 275.98C350.784 276.355 350.998 276.658 351.288 276.888C351.578 277.118 351.947 277.233 352.396 277.233ZM356.897 278V271.455H357.869V272.477H357.954C358.09 272.128 358.31 271.857 358.614 271.663C358.918 271.467 359.283 271.369 359.71 271.369C360.141 271.369 360.501 271.467 360.788 271.663C361.077 271.857 361.303 272.128 361.465 272.477H361.533C361.701 272.139 361.952 271.871 362.288 271.672C362.623 271.47 363.025 271.369 363.494 271.369C364.079 271.369 364.558 271.553 364.93 271.919C365.302 272.283 365.488 272.849 365.488 273.619V278H364.482V273.619C364.482 273.136 364.35 272.791 364.086 272.584C363.822 272.376 363.511 272.273 363.153 272.273C362.692 272.273 362.336 272.412 362.083 272.69C361.83 272.966 361.704 273.315 361.704 273.739V278H360.681V273.517C360.681 273.145 360.56 272.845 360.319 272.618C360.077 272.388 359.766 272.273 359.386 272.273C359.124 272.273 358.88 272.342 358.653 272.482C358.428 272.621 358.246 272.814 358.107 273.061C357.971 273.305 357.903 273.588 357.903 273.909V278H356.897ZM369.253 278.153C368.838 278.153 368.462 278.075 368.124 277.919C367.786 277.76 367.517 277.531 367.318 277.233C367.119 276.932 367.02 276.568 367.02 276.142C367.02 275.767 367.094 275.463 367.241 275.23C367.389 274.994 367.587 274.81 367.834 274.676C368.081 274.543 368.354 274.443 368.652 274.378C368.953 274.31 369.256 274.256 369.56 274.216C369.957 274.165 370.28 274.126 370.527 274.101C370.777 274.072 370.959 274.026 371.072 273.96C371.189 273.895 371.247 273.781 371.247 273.619V273.585C371.247 273.165 371.132 272.838 370.902 272.605C370.675 272.372 370.33 272.256 369.866 272.256C369.386 272.256 369.01 272.361 368.737 272.571C368.464 272.781 368.273 273.006 368.162 273.244L367.207 272.903C367.378 272.506 367.605 272.196 367.889 271.974C368.176 271.75 368.489 271.594 368.827 271.506C369.168 271.415 369.503 271.369 369.832 271.369C370.043 271.369 370.284 271.395 370.557 271.446C370.832 271.494 371.098 271.595 371.354 271.749C371.612 271.902 371.827 272.134 371.997 272.443C372.168 272.753 372.253 273.168 372.253 273.688V278H371.247V277.114H371.196C371.128 277.256 371.014 277.408 370.855 277.57C370.696 277.732 370.484 277.869 370.22 277.983C369.956 278.097 369.634 278.153 369.253 278.153ZM369.406 277.25C369.804 277.25 370.139 277.172 370.412 277.016C370.688 276.859 370.895 276.658 371.034 276.411C371.176 276.163 371.247 275.903 371.247 275.631V274.71C371.205 274.761 371.111 274.808 370.966 274.851C370.824 274.891 370.659 274.926 370.472 274.957C370.287 274.986 370.107 275.011 369.93 275.034C369.757 275.054 369.616 275.071 369.509 275.085C369.247 275.119 369.003 275.175 368.776 275.251C368.551 275.325 368.369 275.437 368.23 275.588C368.094 275.736 368.026 275.937 368.026 276.193C368.026 276.543 368.155 276.807 368.413 276.986C368.675 277.162 369.006 277.25 369.406 277.25ZM376.935 271.455V272.307H373.543V271.455H376.935ZM374.532 269.886H375.537V276.125C375.537 276.409 375.578 276.622 375.661 276.764C375.746 276.903 375.854 276.997 375.985 277.045C376.118 277.091 376.259 277.114 376.407 277.114C376.517 277.114 376.608 277.108 376.679 277.097C376.75 277.082 376.807 277.071 376.85 277.062L377.054 277.966C376.986 277.991 376.891 278.017 376.769 278.043C376.647 278.071 376.492 278.085 376.304 278.085C376.02 278.085 375.742 278.024 375.469 277.902C375.199 277.78 374.975 277.594 374.796 277.344C374.62 277.094 374.532 276.778 374.532 276.398V269.886ZM378.448 278V271.455H379.453V278H378.448ZM378.959 270.364C378.763 270.364 378.594 270.297 378.452 270.163C378.313 270.03 378.243 269.869 378.243 269.682C378.243 269.494 378.313 269.334 378.452 269.2C378.594 269.067 378.763 269 378.959 269C379.155 269 379.323 269.067 379.462 269.2C379.604 269.334 379.675 269.494 379.675 269.682C379.675 269.869 379.604 270.03 379.462 270.163C379.323 270.297 379.155 270.364 378.959 270.364ZM383.955 278.136C383.364 278.136 382.845 277.996 382.399 277.714C381.956 277.433 381.609 277.04 381.359 276.534C381.112 276.028 380.989 275.437 380.989 274.761C380.989 274.08 381.112 273.484 381.359 272.976C381.609 272.467 381.956 272.072 382.399 271.791C382.845 271.51 383.364 271.369 383.955 271.369C384.545 271.369 385.063 271.51 385.506 271.791C385.952 272.072 386.298 272.467 386.545 272.976C386.795 273.484 386.92 274.08 386.92 274.761C386.92 275.437 386.795 276.028 386.545 276.534C386.298 277.04 385.952 277.433 385.506 277.714C385.063 277.996 384.545 278.136 383.955 278.136ZM383.955 277.233C384.403 277.233 384.773 277.118 385.062 276.888C385.352 276.658 385.567 276.355 385.706 275.98C385.845 275.605 385.915 275.199 385.915 274.761C385.915 274.324 385.845 273.916 385.706 273.538C385.567 273.161 385.352 272.855 385.062 272.622C384.773 272.389 384.403 272.273 383.955 272.273C383.506 272.273 383.136 272.389 382.847 272.622C382.557 272.855 382.342 273.161 382.203 273.538C382.064 273.916 381.994 274.324 381.994 274.761C381.994 275.199 382.064 275.605 382.203 275.98C382.342 276.355 382.557 276.658 382.847 276.888C383.136 277.118 383.506 277.233 383.955 277.233ZM389.461 274.062V278H388.456V271.455H389.427V272.477H389.512C389.666 272.145 389.899 271.878 390.211 271.676C390.524 271.472 390.927 271.369 391.422 271.369C391.865 271.369 392.252 271.46 392.585 271.642C392.917 271.821 393.176 272.094 393.36 272.46C393.545 272.824 393.637 273.284 393.637 273.841V278H392.632V273.909C392.632 273.395 392.498 272.994 392.231 272.707C391.964 272.418 391.598 272.273 391.132 272.273C390.811 272.273 390.524 272.342 390.271 272.482C390.021 272.621 389.824 272.824 389.679 273.091C389.534 273.358 389.461 273.682 389.461 274.062Z" fill="white"/>
<defs>
<filter id="filter0_f_245_433" x="0.392578" y="0.187988" width="446.736" height="464.331" filterUnits="userSpaceOnUse" color-interpolation-filters="sRGB">
<feFlood flood-opacity="0" result="BackgroundImageFix"/>
<feBlend mode="normal" in="SourceGraphic" in2="BackgroundImageFix" result="shape"/>
<feGaussianBlur stdDeviation="51.5" result="effect1_foregroundBlur_245_433"/>
</filter>
<filter id="filter1_i_245_433" x="22" y="144" width="423" height="201" filterUnits="userSpaceOnUse" color-interpolation-filters="sRGB">
<feFlood flood-opacity="0" result="BackgroundImageFix"/>
<feBlend mode="normal" in="SourceGraphic" in2="BackgroundImageFix" result="shape"/>
<feColorMatrix in="SourceAlpha" type="matrix" values="0 0 0 0 0 0 0 0 0 0 0 0 0 0 0 0 0 0 127 0" result="hardAlpha"/>
<feOffset dx="-20" dy="4"/>
<feGaussianBlur stdDeviation="60"/>
<feComposite in2="hardAlpha" operator="arithmetic" k2="-1" k3="1"/>
<feColorMatrix type="matrix" values="0 0 0 0 0.123385 0 0 0 0 0.734948 0 0 0 0 0.734948 0 0 0 0.14 0"/>
<feBlend mode="normal" in2="shape" result="effect1_innerShadow_245_433"/>
</filter>
<linearGradient id="paint0_linear_245_433" x1="316.129" y1="218.029" x2="157.44" y2="156.894" gradientUnits="userSpaceOnUse">
<stop offset="1" stop-color="#23D5D5" stop-opacity="0.26"/>
</linearGradient>
<linearGradient id="paint1_linear_245_433" x1="224.954" y1="153.083" x2="164.709" y2="204.793" gradientUnits="userSpaceOnUse">
<stop stop-color="#1EB2B2"/>
<stop offset="1" stop-color="#1EB2B2" stop-opacity="0"/>
</linearGradient>
<linearGradient id="paint2_linear_245_433" x1="312.99" y1="166.525" x2="200.409" y2="147.373" gradientUnits="userSpaceOnUse">
<stop stop-color="#1EB2B2"/>
<stop offset="1" stop-color="#1EB2B2" stop-opacity="0"/>
</linearGradient>
<linearGradient id="paint3_linear_245_433" x1="244.698" y1="195.482" x2="220.071" y2="198.325" gradientUnits="userSpaceOnUse">
<stop stop-color="#23D5D5"/>
<stop offset="1" stop-color="#1FBBBB" stop-opacity="0"/>
</linearGradient>
<linearGradient id="paint4_linear_245_433" x1="61.113" y1="178.958" x2="315.502" y2="420.005" gradientUnits="userSpaceOnUse">
<stop stop-color="#808080"/>
<stop offset="0.572917" stop-color="#23D5D5"/>
<stop offset="0.71875" stop-color="#23D5D5" stop-opacity="0.1"/>
<stop offset="1" stop-color="#808080" stop-opacity="0.85"/>
</linearGradient>
</defs>
</svg>
