<svg width="1132" height="716" viewBox="0 0 1132 716" fill="none" xmlns="http://www.w3.org/2000/svg">
<path d="M86.8097 110.5H1046.53C1058.03 110.5 1062.32 125.435 1052.86 131.599L1052.4 131.886L776.529 295.849C774.752 296.905 772.721 297.463 770.653 297.463H378.297C376.445 297.463 374.623 297.016 372.984 296.162L372.659 295.986L81.172 132.023C71.0189 126.312 74.8506 110.989 86.2609 110.512L86.8097 110.5Z" stroke="url(#paint0_linear_0_681)"/>
<path d="M883.346 110L694 297.666" stroke="url(#paint1_linear_0_681)"/>
<path d="M730.192 110L648 297.332" stroke="url(#paint2_linear_0_681)"/>
<path d="M619.802 110V297.332" stroke="url(#paint3_linear_0_681)"/>
<path d="M510.406 110L578.5 297.332" stroke="url(#paint4_linear_0_681)"/>
<path d="M361.23 110L541.5 298" stroke="url(#paint5_linear_0_681)"/>
<path d="M208.077 110L500 297.666" stroke="url(#paint6_linear_0_681)"/>
<path d="M144 167L995.726 167.119" stroke="url(#paint7_linear_0_681)"/>
<path d="M247.857 225.567H898.264" stroke="url(#paint8_linear_0_681)"/>
<path d="M1045.53 607L83.6123 607C72.1819 607 67.8415 592.222 77.1572 585.98L77.6113 585.69L354.631 416.227C356.437 415.122 358.514 414.538 360.632 414.538L752.826 414.538C754.723 414.538 756.588 415.007 758.257 415.901L758.588 416.085L1051.29 585.548C1061.46 591.439 1057.28 607 1045.53 607Z" stroke="url(#paint9_linear_0_681)"/>
<path d="M248 607L437 414" stroke="url(#paint10_linear_0_681)"/>
<path d="M401.011 607.5L483.203 414.687" stroke="url(#paint11_linear_0_681)"/>
<path d="M511.4 607.5L511.4 414.687" stroke="url(#paint12_linear_0_681)"/>
<path d="M620.797 607.5L552.704 414.687" stroke="url(#paint13_linear_0_681)"/>
<path d="M769.973 607.5L589.703 414" stroke="url(#paint14_linear_0_681)"/>
<path d="M923.126 607.5L631.203 414.344" stroke="url(#paint15_linear_0_681)"/>
<path d="M984.785 548.707L138 548.709" stroke="url(#paint16_linear_0_681)"/>
<path d="M883.346 488.551L232.939 488.551" stroke="url(#paint17_linear_0_681)"/>
<g filter="url(#filter0_f_0_681)">
<path d="M997 358C997 481.159 804.035 581 566 581C327.965 581 135 481.159 135 358C135 234.84 327.965 135 566 135C804.035 135 997 234.84 997 358Z" fill="#041414"/>
</g>
<defs>
<filter id="filter0_f_0_681" x="0.899994" y="0.899994" width="1130.2" height="714.2" filterUnits="userSpaceOnUse" color-interpolation-filters="sRGB">
<feFlood flood-opacity="0" result="BackgroundImageFix"/>
<feBlend mode="normal" in="SourceGraphic" in2="BackgroundImageFix" result="shape"/>
<feGaussianBlur stdDeviation="67.05" result="effect1_foregroundBlur_0_681"/>
</filter>
<linearGradient id="paint0_linear_0_681" x1="565.602" y1="110" x2="565.602" y2="297.963" gradientUnits="userSpaceOnUse">
<stop stop-color="#23D5D5"/>
<stop offset="1" stop-color="#1EB2B2"/>
</linearGradient>
<linearGradient id="paint1_linear_0_681" x1="788.673" y1="110" x2="788.673" y2="297.666" gradientUnits="userSpaceOnUse">
<stop stop-color="#23D5D5"/>
<stop offset="1" stop-color="#1EB2B2"/>
</linearGradient>
<linearGradient id="paint2_linear_0_681" x1="689.096" y1="110" x2="689.096" y2="297.332" gradientUnits="userSpaceOnUse">
<stop stop-color="#23D5D5"/>
<stop offset="1" stop-color="#1EB2B2"/>
</linearGradient>
<linearGradient id="paint3_linear_0_681" x1="620.302" y1="110" x2="620.302" y2="297.332" gradientUnits="userSpaceOnUse">
<stop stop-color="#23D5D5"/>
<stop offset="1" stop-color="#1EB2B2"/>
</linearGradient>
<linearGradient id="paint4_linear_0_681" x1="544.453" y1="110" x2="544.453" y2="297.332" gradientUnits="userSpaceOnUse">
<stop stop-color="#23D5D5"/>
<stop offset="1" stop-color="#1EB2B2"/>
</linearGradient>
<linearGradient id="paint5_linear_0_681" x1="451.365" y1="110" x2="451.365" y2="298" gradientUnits="userSpaceOnUse">
<stop stop-color="#23D5D5"/>
<stop offset="1" stop-color="#1EB2B2"/>
</linearGradient>
<linearGradient id="paint6_linear_0_681" x1="354.039" y1="110" x2="354.039" y2="297.666" gradientUnits="userSpaceOnUse">
<stop stop-color="#23D5D5"/>
<stop offset="1" stop-color="#1EB2B2"/>
</linearGradient>
<linearGradient id="paint7_linear_0_681" x1="569.863" y1="167.06" x2="569.863" y2="168.06" gradientUnits="userSpaceOnUse">
<stop stop-color="#23D5D5"/>
<stop offset="1" stop-color="#1EB2B2"/>
</linearGradient>
<linearGradient id="paint8_linear_0_681" x1="573.061" y1="225.567" x2="573.061" y2="226.567" gradientUnits="userSpaceOnUse">
<stop stop-color="#23D5D5"/>
<stop offset="1" stop-color="#1EB2B2"/>
</linearGradient>
<linearGradient id="paint9_linear_0_681" x1="565.602" y1="607.5" x2="565.602" y2="414.038" gradientUnits="userSpaceOnUse">
<stop stop-color="#23D5D5"/>
<stop offset="1" stop-color="#1EB2B2"/>
</linearGradient>
<linearGradient id="paint10_linear_0_681" x1="342.5" y1="607" x2="342.5" y2="414" gradientUnits="userSpaceOnUse">
<stop stop-color="#23D5D5"/>
<stop offset="1" stop-color="#1EB2B2"/>
</linearGradient>
<linearGradient id="paint11_linear_0_681" x1="442.107" y1="607.5" x2="442.107" y2="414.687" gradientUnits="userSpaceOnUse">
<stop stop-color="#23D5D5"/>
<stop offset="1" stop-color="#1EB2B2"/>
</linearGradient>
<linearGradient id="paint12_linear_0_681" x1="510.9" y1="607.5" x2="510.9" y2="414.687" gradientUnits="userSpaceOnUse">
<stop stop-color="#23D5D5"/>
<stop offset="1" stop-color="#1EB2B2"/>
</linearGradient>
<linearGradient id="paint13_linear_0_681" x1="586.75" y1="607.5" x2="586.75" y2="414.687" gradientUnits="userSpaceOnUse">
<stop stop-color="#23D5D5"/>
<stop offset="1" stop-color="#1EB2B2"/>
</linearGradient>
<linearGradient id="paint14_linear_0_681" x1="679.838" y1="607.5" x2="679.838" y2="414" gradientUnits="userSpaceOnUse">
<stop stop-color="#23D5D5"/>
<stop offset="1" stop-color="#1EB2B2"/>
</linearGradient>
<linearGradient id="paint15_linear_0_681" x1="777.164" y1="607.5" x2="777.165" y2="414.344" gradientUnits="userSpaceOnUse">
<stop stop-color="#23D5D5"/>
<stop offset="1" stop-color="#1EB2B2"/>
</linearGradient>
<linearGradient id="paint16_linear_0_681" x1="561.393" y1="548.709" x2="561.393" y2="548.707" gradientUnits="userSpaceOnUse">
<stop stop-color="#23D5D5"/>
<stop offset="1" stop-color="#1EB2B2"/>
</linearGradient>
<linearGradient id="paint17_linear_0_681" x1="558.142" y1="488.551" x2="558.142" y2="487.551" gradientUnits="userSpaceOnUse">
<stop stop-color="#23D5D5"/>
<stop offset="1" stop-color="#1EB2B2"/>
</linearGradient>
</defs>
</svg>
