<svg width="430" height="229" viewBox="0 0 430 229" fill="none" xmlns="http://www.w3.org/2000/svg">
<path d="M79.4663 134.178L6 169.955V191H420.743V4L391.271 33.7637L360.09 21.1367L282.353 83.6704L197.781 41.2797L111.928 89.6833L79.4663 134.178Z" fill="url(#paint0_linear_502_453)"/>
<path d="M78.7429 198L6 181V229H420.743V121L390.886 98L351.257 173L276.886 141L181.343 210.5L107.514 180.5L78.7429 198Z" fill="url(#paint1_linear_502_453)"/>
<g filter="url(#filter0_d_502_453)">
<path d="M6 170L79.4663 134.214L111.928 89.7065L197.781 41.2899L282.353 83.692L360.09 21.1413L391.271 33.7717L420.743 4" stroke="url(#paint2_linear_502_453)" stroke-width="3" stroke-linecap="round" shape-rendering="crispEdges"/>
</g>
<g filter="url(#filter1_d_502_453)">
<path d="M6.54297 179L78.3807 196.214L107.514 179L181.343 209L276.343 139.5L350.714 171L390.185 95.7717L424 121.5" stroke="url(#paint3_linear_502_453)" stroke-width="3" stroke-linecap="round" shape-rendering="crispEdges"/>
</g>
<g filter="url(#filter2_d_502_453)">
<ellipse cx="198.171" cy="41" rx="6.51429" ry="6" fill="#BBF4F4"/>
</g>
<g filter="url(#filter3_d_502_453)">
<ellipse cx="277.428" cy="139" rx="6.51429" ry="6" fill="#BBF4F4"/>
</g>
<g filter="url(#filter4_d_502_453)">
<g filter="url(#filter5_d_502_453)">
<rect x="277" y="95.5" width="82" height="25" rx="4" fill="#1F2A2A"/>
<path d="M292.426 106H291.193C291.12 105.645 290.993 105.334 290.81 105.065C290.631 104.797 290.413 104.571 290.154 104.389C289.899 104.204 289.616 104.064 289.304 103.972C288.992 103.879 288.668 103.832 288.33 103.832C287.713 103.832 287.155 103.988 286.654 104.3C286.157 104.611 285.761 105.07 285.466 105.677C285.174 106.283 285.028 107.027 285.028 107.909C285.028 108.791 285.174 109.535 285.466 110.141C285.761 110.748 286.157 111.207 286.654 111.518C287.155 111.83 287.713 111.986 288.33 111.986C288.668 111.986 288.992 111.939 289.304 111.847C289.616 111.754 289.899 111.616 290.154 111.434C290.413 111.248 290.631 111.021 290.81 110.753C290.993 110.481 291.12 110.17 291.193 109.818H292.426C292.333 110.339 292.164 110.804 291.919 111.215C291.674 111.626 291.369 111.976 291.004 112.264C290.64 112.549 290.23 112.766 289.776 112.915C289.326 113.065 288.843 113.139 288.33 113.139C287.461 113.139 286.689 112.927 286.013 112.503C285.337 112.079 284.805 111.475 284.417 110.693C284.029 109.911 283.835 108.983 283.835 107.909C283.835 106.835 284.029 105.907 284.417 105.125C284.805 104.343 285.337 103.74 286.013 103.315C286.689 102.891 287.461 102.679 288.33 102.679C288.843 102.679 289.326 102.754 289.776 102.903C290.23 103.052 290.64 103.271 291.004 103.559C291.369 103.844 291.674 104.192 291.919 104.603C292.164 105.011 292.333 105.476 292.426 106ZM297.362 113.159C296.672 113.159 296.067 112.995 295.547 112.667C295.03 112.339 294.626 111.88 294.334 111.29C294.046 110.7 293.901 110.01 293.901 109.222C293.901 108.426 294.046 107.732 294.334 107.138C294.626 106.545 295.03 106.085 295.547 105.756C296.067 105.428 296.672 105.264 297.362 105.264C298.051 105.264 298.654 105.428 299.171 105.756C299.692 106.085 300.096 106.545 300.384 107.138C300.676 107.732 300.822 108.426 300.822 109.222C300.822 110.01 300.676 110.7 300.384 111.29C300.096 111.88 299.692 112.339 299.171 112.667C298.654 112.995 298.051 113.159 297.362 113.159ZM297.362 112.105C297.885 112.105 298.316 111.971 298.654 111.702C298.992 111.434 299.243 111.081 299.405 110.643C299.567 110.206 299.649 109.732 299.649 109.222C299.649 108.711 299.567 108.236 299.405 107.795C299.243 107.354 298.992 106.998 298.654 106.726C298.316 106.454 297.885 106.318 297.362 106.318C296.838 106.318 296.407 106.454 296.069 106.726C295.731 106.998 295.481 107.354 295.318 107.795C295.156 108.236 295.075 108.711 295.075 109.222C295.075 109.732 295.156 110.206 295.318 110.643C295.481 111.081 295.731 111.434 296.069 111.702C296.407 111.971 296.838 112.105 297.362 112.105ZM308.022 107.074L306.968 107.372C306.902 107.196 306.804 107.026 306.675 106.86C306.549 106.691 306.376 106.552 306.158 106.442C305.939 106.333 305.659 106.278 305.317 106.278C304.85 106.278 304.461 106.386 304.149 106.602C303.841 106.814 303.687 107.084 303.687 107.412C303.687 107.704 303.793 107.934 304.005 108.103C304.217 108.272 304.549 108.413 304.999 108.526L306.133 108.804C306.816 108.97 307.324 109.223 307.659 109.565C307.994 109.903 308.161 110.339 308.161 110.872C308.161 111.31 308.035 111.701 307.783 112.045C307.535 112.39 307.187 112.662 306.739 112.861C306.292 113.06 305.772 113.159 305.178 113.159C304.399 113.159 303.755 112.99 303.244 112.652C302.734 112.314 302.411 111.82 302.275 111.17L303.388 110.892C303.495 111.303 303.695 111.611 303.99 111.817C304.288 112.022 304.678 112.125 305.158 112.125C305.705 112.125 306.139 112.009 306.461 111.777C306.786 111.542 306.948 111.26 306.948 110.932C306.948 110.667 306.855 110.445 306.67 110.266C306.484 110.083 306.199 109.947 305.815 109.858L304.542 109.56C303.843 109.394 303.329 109.137 303.001 108.789C302.676 108.438 302.513 107.999 302.513 107.472C302.513 107.041 302.634 106.66 302.876 106.328C303.122 105.997 303.455 105.737 303.876 105.548C304.3 105.359 304.781 105.264 305.317 105.264C306.073 105.264 306.666 105.43 307.097 105.761C307.531 106.093 307.84 106.53 308.022 107.074ZM313.248 105.364V106.358H309.291V105.364H313.248ZM310.444 103.534H311.618V110.812C311.618 111.144 311.666 111.393 311.762 111.558C311.861 111.721 311.987 111.83 312.14 111.886C312.296 111.939 312.46 111.966 312.632 111.966C312.761 111.966 312.867 111.959 312.95 111.946C313.033 111.929 313.099 111.916 313.149 111.906L313.388 112.96C313.308 112.99 313.197 113.02 313.055 113.05C312.912 113.083 312.731 113.099 312.513 113.099C312.181 113.099 311.856 113.028 311.538 112.886C311.223 112.743 310.961 112.526 310.753 112.234C310.547 111.943 310.444 111.575 310.444 111.131V103.534ZM323.326 107.362V108.456H318.871V107.362H323.326ZM328.751 113.139C328.333 113.133 327.916 113.053 327.498 112.901C327.081 112.748 326.699 112.491 326.355 112.13C326.01 111.765 325.733 111.273 325.525 110.653C325.316 110.03 325.211 109.248 325.211 108.307C325.211 107.405 325.296 106.607 325.465 105.911C325.634 105.211 325.879 104.623 326.201 104.146C326.522 103.665 326.91 103.3 327.364 103.052C327.821 102.803 328.337 102.679 328.91 102.679C329.48 102.679 329.987 102.793 330.431 103.022C330.879 103.247 331.243 103.562 331.525 103.967C331.807 104.371 331.989 104.837 332.072 105.364H330.859C330.746 104.906 330.528 104.527 330.203 104.225C329.878 103.924 329.447 103.773 328.91 103.773C328.121 103.773 327.5 104.116 327.046 104.802C326.595 105.488 326.368 106.451 326.365 107.69H326.444C326.63 107.409 326.85 107.168 327.105 106.969C327.364 106.767 327.649 106.612 327.961 106.502C328.272 106.393 328.602 106.338 328.95 106.338C329.533 106.338 330.067 106.484 330.551 106.776C331.035 107.064 331.422 107.463 331.714 107.974C332.006 108.481 332.152 109.062 332.152 109.719C332.152 110.348 332.011 110.925 331.729 111.449C331.447 111.969 331.051 112.384 330.541 112.692C330.034 112.997 329.437 113.146 328.751 113.139ZM328.751 112.045C329.169 112.045 329.543 111.941 329.875 111.732C330.209 111.523 330.473 111.243 330.665 110.892C330.861 110.541 330.958 110.15 330.958 109.719C330.958 109.298 330.864 108.915 330.675 108.57C330.489 108.222 330.233 107.946 329.904 107.74C329.58 107.535 329.208 107.432 328.791 107.432C328.476 107.432 328.183 107.495 327.911 107.621C327.639 107.743 327.4 107.912 327.195 108.128C326.993 108.343 326.834 108.59 326.718 108.869C326.602 109.144 326.544 109.434 326.544 109.739C326.544 110.143 326.638 110.521 326.827 110.872C327.019 111.223 327.281 111.507 327.613 111.722C327.947 111.938 328.327 112.045 328.751 112.045ZM334.425 113L338.979 103.991V103.912H333.729V102.818H340.252V103.972L335.718 113H334.425ZM347.295 111.091V110.554C347.295 110.183 347.371 109.843 347.524 109.535C347.68 109.223 347.905 108.975 348.2 108.789C348.498 108.6 348.859 108.506 349.284 108.506C349.715 108.506 350.076 108.6 350.368 108.789C350.659 108.975 350.88 109.223 351.029 109.535C351.178 109.843 351.252 110.183 351.252 110.554V111.091C351.252 111.462 351.176 111.804 351.024 112.115C350.875 112.423 350.653 112.672 350.358 112.861C350.066 113.046 349.708 113.139 349.284 113.139C348.853 113.139 348.49 113.046 348.195 112.861C347.9 112.672 347.676 112.423 347.524 112.115C347.371 111.804 347.295 111.462 347.295 111.091ZM348.309 110.554V111.091C348.309 111.399 348.382 111.676 348.528 111.921C348.674 112.163 348.926 112.284 349.284 112.284C349.632 112.284 349.877 112.163 350.02 111.921C350.165 111.676 350.238 111.399 350.238 111.091V110.554C350.238 110.246 350.169 109.971 350.029 109.729C349.89 109.483 349.642 109.361 349.284 109.361C348.936 109.361 348.685 109.483 348.533 109.729C348.384 109.971 348.309 110.246 348.309 110.554ZM342.224 105.264V104.727C342.224 104.356 342.3 104.016 342.453 103.708C342.609 103.397 342.834 103.148 343.129 102.962C343.427 102.773 343.788 102.679 344.213 102.679C344.644 102.679 345.005 102.773 345.297 102.962C345.588 103.148 345.809 103.397 345.958 103.708C346.107 104.016 346.181 104.356 346.181 104.727V105.264C346.181 105.635 346.105 105.977 345.953 106.288C345.804 106.597 345.582 106.845 345.287 107.034C344.995 107.22 344.637 107.312 344.213 107.312C343.782 107.312 343.419 107.22 343.124 107.034C342.829 106.845 342.605 106.597 342.453 106.288C342.3 105.977 342.224 105.635 342.224 105.264ZM343.238 104.727V105.264C343.238 105.572 343.311 105.849 343.457 106.094C343.603 106.336 343.855 106.457 344.213 106.457C344.561 106.457 344.806 106.336 344.949 106.094C345.094 105.849 345.167 105.572 345.167 105.264V104.727C345.167 104.419 345.098 104.144 344.958 103.902C344.819 103.657 344.571 103.534 344.213 103.534C343.865 103.534 343.614 103.657 343.462 103.902C343.313 104.144 343.238 104.419 343.238 104.727ZM342.602 113L349.602 102.818H350.735L343.735 113H342.602Z" fill="white"/>
</g>
</g>
<g filter="url(#filter6_d_502_453)">
<g filter="url(#filter7_d_502_453)">
<rect x="57.5" y="9.5" width="126" height="25" rx="4" fill="#1F2A2A"/>
<path d="M64.733 27V16.8182H70.8778V17.9119H65.9659V21.3523H70.5597V22.446H65.9659V25.9062H70.9574V27H64.733ZM76.3416 19.3636V20.358H72.2251V19.3636H76.3416ZM73.4581 27V18.3097C73.4581 17.8722 73.5608 17.5076 73.7663 17.2159C73.9718 16.9242 74.2386 16.7055 74.5668 16.5597C74.8949 16.4138 75.2412 16.3409 75.6058 16.3409C75.8942 16.3409 76.1295 16.3641 76.3118 16.4105C76.4941 16.4569 76.63 16.5 76.7195 16.5398L76.3814 17.554C76.3217 17.5341 76.2389 17.5092 76.1328 17.4794C76.0301 17.4496 75.8942 17.4347 75.7251 17.4347C75.3374 17.4347 75.0573 17.5324 74.8849 17.728C74.7159 17.9235 74.6314 18.2102 74.6314 18.5881V27H73.4581ZM81.3865 19.3636V20.358H77.2701V19.3636H81.3865ZM78.503 27V18.3097C78.503 17.8722 78.6058 17.5076 78.8113 17.2159C79.0167 16.9242 79.2836 16.7055 79.6117 16.5597C79.9398 16.4138 80.2862 16.3409 80.6507 16.3409C80.9391 16.3409 81.1744 16.3641 81.3567 16.4105C81.539 16.4569 81.6749 16.5 81.7644 16.5398L81.4263 17.554C81.3667 17.5341 81.2838 17.5092 81.1777 17.4794C81.075 17.4496 80.9391 17.4347 80.7701 17.4347C80.3823 17.4347 80.1022 17.5324 79.9299 17.728C79.7608 17.9235 79.6763 18.2102 79.6763 18.5881V27H78.503ZM83.0309 27V19.3636H84.2042V27H83.0309ZM83.6275 18.0909C83.3988 18.0909 83.2016 18.013 83.0359 17.8572C82.8735 17.7015 82.7923 17.5142 82.7923 17.2955C82.7923 17.0767 82.8735 16.8894 83.0359 16.7337C83.2016 16.5779 83.3988 16.5 83.6275 16.5C83.8562 16.5 84.0517 16.5779 84.2141 16.7337C84.3799 16.8894 84.4627 17.0767 84.4627 17.2955C84.4627 17.5142 84.3799 17.7015 84.2141 17.8572C84.0517 18.013 83.8562 18.0909 83.6275 18.0909ZM89.4554 27.1591C88.7395 27.1591 88.123 26.9901 87.606 26.652C87.089 26.3139 86.6912 25.8482 86.4128 25.255C86.1344 24.6617 85.9952 23.9839 85.9952 23.2216C85.9952 22.446 86.1377 21.7616 86.4228 21.1683C86.7111 20.5717 87.1122 20.1061 87.6259 19.7713C88.1429 19.4332 88.7462 19.2642 89.4355 19.2642C89.9725 19.2642 90.4564 19.3636 90.8873 19.5625C91.3181 19.7614 91.6711 20.0398 91.9462 20.3977C92.2213 20.7557 92.392 21.1733 92.4583 21.6506H91.285C91.1955 21.3026 90.9966 20.9943 90.6884 20.7259C90.3835 20.4541 89.9725 20.3182 89.4554 20.3182C88.998 20.3182 88.597 20.4375 88.2523 20.6761C87.9109 20.9115 87.6441 21.2446 87.4519 21.6754C87.263 22.103 87.1685 22.6051 87.1685 23.1818C87.1685 23.7718 87.2613 24.2855 87.4469 24.723C87.6358 25.1605 87.901 25.5002 88.2424 25.7422C88.5871 25.9841 88.9914 26.1051 89.4554 26.1051C89.7604 26.1051 90.0371 26.0521 90.2857 25.946C90.5343 25.84 90.7447 25.6875 90.9171 25.4886C91.0894 25.2898 91.2121 25.0511 91.285 24.7727H92.4583C92.392 25.2235 92.2279 25.6295 91.9661 25.9908C91.7076 26.3487 91.3645 26.6338 90.937 26.8459C90.5127 27.0547 90.0189 27.1591 89.4554 27.1591ZM94.1735 27V19.3636H95.3468V27H94.1735ZM94.7701 18.0909C94.5414 18.0909 94.3442 18.013 94.1784 17.8572C94.016 17.7015 93.9348 17.5142 93.9348 17.2955C93.9348 17.0767 94.016 16.8894 94.1784 16.7337C94.3442 16.5779 94.5414 16.5 94.7701 16.5C94.9988 16.5 95.1943 16.5779 95.3567 16.7337C95.5224 16.8894 95.6053 17.0767 95.6053 17.2955C95.6053 17.5142 95.5224 17.7015 95.3567 17.8572C95.1943 18.013 94.9988 18.0909 94.7701 18.0909ZM100.697 27.1591C99.9616 27.1591 99.3269 26.9967 98.7933 26.6719C98.263 26.3438 97.8537 25.8864 97.5653 25.2997C97.2803 24.7098 97.1378 24.0237 97.1378 23.2415C97.1378 22.4593 97.2803 21.7699 97.5653 21.1733C97.8537 20.5734 98.2547 20.1061 98.7685 19.7713C99.2855 19.4332 99.8887 19.2642 100.578 19.2642C100.976 19.2642 101.369 19.3305 101.756 19.4631C102.144 19.5956 102.497 19.8111 102.815 20.1094C103.134 20.4044 103.387 20.7955 103.576 21.2827C103.765 21.7699 103.859 22.3698 103.859 23.0824V23.5795H97.973V22.5653H102.666C102.666 22.1345 102.58 21.75 102.408 21.4119C102.239 21.0739 101.997 20.8071 101.682 20.6115C101.37 20.416 101.002 20.3182 100.578 20.3182C100.111 20.3182 99.7064 20.4342 99.3651 20.6662C99.027 20.8949 98.7668 21.1932 98.5845 21.5611C98.4022 21.929 98.3111 22.3234 98.3111 22.7443V23.4205C98.3111 23.9972 98.4105 24.486 98.6094 24.8871C98.8116 25.2848 99.0916 25.5881 99.4496 25.7969C99.8075 26.0024 100.223 26.1051 100.697 26.1051C101.006 26.1051 101.284 26.062 101.533 25.9759C101.785 25.8864 102.002 25.7538 102.184 25.5781C102.366 25.3991 102.507 25.1771 102.607 24.9119L103.74 25.2301C103.621 25.6146 103.42 25.9527 103.138 26.2443C102.857 26.5327 102.509 26.758 102.094 26.9205C101.68 27.0795 101.214 27.1591 100.697 27.1591ZM106.817 22.4062V27H105.644V19.3636H106.778V20.5568H106.877C107.056 20.169 107.328 19.8575 107.692 19.6222C108.057 19.3835 108.528 19.2642 109.104 19.2642C109.621 19.2642 110.074 19.3703 110.462 19.5824C110.849 19.7912 111.151 20.1094 111.366 20.5369C111.582 20.9612 111.69 21.4981 111.69 22.1477V27H110.516V22.2273C110.516 21.6274 110.361 21.16 110.049 20.8253C109.737 20.4872 109.31 20.3182 108.766 20.3182C108.392 20.3182 108.057 20.3994 107.762 20.5618C107.47 20.7242 107.24 20.9612 107.071 21.2727C106.902 21.5843 106.817 21.9621 106.817 22.4062ZM116.936 27.1591C116.22 27.1591 115.604 26.9901 115.086 26.652C114.569 26.3139 114.172 25.8482 113.893 25.255C113.615 24.6617 113.476 23.9839 113.476 23.2216C113.476 22.446 113.618 21.7616 113.903 21.1683C114.192 20.5717 114.593 20.1061 115.106 19.7713C115.623 19.4332 116.227 19.2642 116.916 19.2642C117.453 19.2642 117.937 19.3636 118.368 19.5625C118.799 19.7614 119.152 20.0398 119.427 20.3977C119.702 20.7557 119.872 21.1733 119.939 21.6506H118.765C118.676 21.3026 118.477 20.9943 118.169 20.7259C117.864 20.4541 117.453 20.3182 116.936 20.3182C116.479 20.3182 116.077 20.4375 115.733 20.6761C115.391 20.9115 115.125 21.2446 114.932 21.6754C114.743 22.103 114.649 22.6051 114.649 23.1818C114.649 23.7718 114.742 24.2855 114.927 24.723C115.116 25.1605 115.381 25.5002 115.723 25.7422C116.068 25.9841 116.472 26.1051 116.936 26.1051C117.241 26.1051 117.518 26.0521 117.766 25.946C118.015 25.84 118.225 25.6875 118.398 25.4886C118.57 25.2898 118.693 25.0511 118.765 24.7727H119.939C119.872 25.2235 119.708 25.6295 119.447 25.9908C119.188 26.3487 118.845 26.6338 118.417 26.8459C117.993 27.0547 117.499 27.1591 116.936 27.1591ZM122.41 29.8636C122.211 29.8636 122.033 29.8471 121.878 29.8139C121.722 29.7841 121.614 29.7543 121.555 29.7244L121.853 28.6903C122.138 28.7633 122.39 28.7898 122.608 28.7699C122.827 28.75 123.021 28.6522 123.19 28.4766C123.363 28.3042 123.52 28.0241 123.662 27.6364L123.881 27.0398L121.057 19.3636H122.33L124.438 25.4489H124.518L126.626 19.3636H127.898L124.657 28.1136C124.511 28.508 124.33 28.8345 124.115 29.093C123.899 29.3549 123.649 29.5488 123.364 29.6747C123.082 29.8007 122.764 29.8636 122.41 29.8636ZM136.367 25.2102V18.6477H137.481V25.2102H136.367ZM133.643 22.4858V21.3722H140.205V22.4858H133.643ZM146.173 16.8182V27H144.94V18.1108H144.88L142.394 19.7614V18.5085L144.94 16.8182H146.173ZM149.101 27V26.1051L152.462 22.4261C152.856 21.9953 153.181 21.6207 153.436 21.3026C153.691 20.9811 153.88 20.6795 154.003 20.3977C154.129 20.1127 154.192 19.8144 154.192 19.5028C154.192 19.1449 154.106 18.835 153.933 18.5732C153.764 18.3113 153.532 18.1091 153.237 17.9666C152.942 17.8241 152.611 17.7528 152.243 17.7528C151.852 17.7528 151.51 17.834 151.219 17.9964C150.93 18.1555 150.707 18.3793 150.548 18.6676C150.392 18.956 150.314 19.294 150.314 19.6818H149.141C149.141 19.0852 149.278 18.5616 149.553 18.1108C149.828 17.66 150.203 17.3087 150.677 17.0568C151.154 16.8049 151.689 16.679 152.283 16.679C152.879 16.679 153.408 16.8049 153.869 17.0568C154.329 17.3087 154.691 17.6484 154.952 18.076C155.214 18.5036 155.345 18.9792 155.345 19.5028C155.345 19.8774 155.277 20.2436 155.141 20.6016C155.009 20.9562 154.777 21.3523 154.445 21.7898C154.117 22.224 153.661 22.7543 153.078 23.3807L150.791 25.8267V25.9062H155.524V27H149.101ZM160.898 27.1392C160.149 27.1392 159.511 26.9354 158.984 26.5277C158.457 26.1167 158.055 25.5218 157.776 24.7429C157.498 23.9607 157.359 23.0161 157.359 21.9091C157.359 20.8087 157.498 19.8691 157.776 19.0902C158.058 18.308 158.462 17.7114 158.989 17.3004C159.52 16.8861 160.156 16.679 160.898 16.679C161.641 16.679 162.276 16.8861 162.803 17.3004C163.333 17.7114 163.737 18.308 164.016 19.0902C164.297 19.8691 164.438 20.8087 164.438 21.9091C164.438 23.0161 164.299 23.9607 164.021 24.7429C163.742 25.5218 163.339 26.1167 162.812 26.5277C162.286 26.9354 161.647 27.1392 160.898 27.1392ZM160.898 26.0455C161.641 26.0455 162.218 25.6875 162.629 24.9716C163.04 24.2557 163.245 23.2348 163.245 21.9091C163.245 21.0275 163.151 20.2768 162.962 19.657C162.776 19.0372 162.508 18.5649 162.156 18.2401C161.808 17.9152 161.389 17.7528 160.898 17.7528C160.163 17.7528 159.588 18.1158 159.173 18.8416C158.759 19.5642 158.552 20.5866 158.552 21.9091C158.552 22.7907 158.645 23.5398 158.83 24.1562C159.016 24.7727 159.283 25.2417 159.631 25.5632C159.982 25.8847 160.405 26.0455 160.898 26.0455ZM171.518 25.0909V24.554C171.518 24.1828 171.594 23.843 171.746 23.5348C171.902 23.2232 172.128 22.9747 172.423 22.7891C172.721 22.6001 173.082 22.5057 173.506 22.5057C173.937 22.5057 174.299 22.6001 174.59 22.7891C174.882 22.9747 175.102 23.2232 175.251 23.5348C175.401 23.843 175.475 24.1828 175.475 24.554V25.0909C175.475 25.4621 175.399 25.8035 175.246 26.1151C175.097 26.4233 174.875 26.6719 174.58 26.8608C174.289 27.0464 173.931 27.1392 173.506 27.1392C173.076 27.1392 172.713 27.0464 172.418 26.8608C172.123 26.6719 171.899 26.4233 171.746 26.1151C171.594 25.8035 171.518 25.4621 171.518 25.0909ZM172.532 24.554V25.0909C172.532 25.3991 172.605 25.6759 172.751 25.9212C172.897 26.1631 173.148 26.2841 173.506 26.2841C173.854 26.2841 174.1 26.1631 174.242 25.9212C174.388 25.6759 174.461 25.3991 174.461 25.0909V24.554C174.461 24.2457 174.391 23.9706 174.252 23.7287C174.113 23.4834 173.864 23.3608 173.506 23.3608C173.158 23.3608 172.908 23.4834 172.756 23.7287C172.607 23.9706 172.532 24.2457 172.532 24.554ZM166.447 19.2642V18.7273C166.447 18.3561 166.523 18.0163 166.675 17.7081C166.831 17.3965 167.057 17.148 167.352 16.9624C167.65 16.7734 168.011 16.679 168.435 16.679C168.866 16.679 169.228 16.7734 169.519 16.9624C169.811 17.148 170.031 17.3965 170.18 17.7081C170.33 18.0163 170.404 18.3561 170.404 18.7273V19.2642C170.404 19.6354 170.328 19.9768 170.175 20.2884C170.026 20.5966 169.804 20.8452 169.509 21.0341C169.218 21.2197 168.86 21.3125 168.435 21.3125C168.004 21.3125 167.642 21.2197 167.347 21.0341C167.052 20.8452 166.828 20.5966 166.675 20.2884C166.523 19.9768 166.447 19.6354 166.447 19.2642ZM167.461 18.7273V19.2642C167.461 19.5724 167.534 19.8492 167.68 20.0945C167.826 20.3364 168.077 20.4574 168.435 20.4574C168.783 20.4574 169.029 20.3364 169.171 20.0945C169.317 19.8492 169.39 19.5724 169.39 19.2642V18.7273C169.39 18.419 169.32 18.1439 169.181 17.902C169.042 17.6567 168.793 17.5341 168.435 17.5341C168.087 17.5341 167.837 17.6567 167.685 17.902C167.536 18.1439 167.461 18.419 167.461 18.7273ZM166.825 27L173.825 16.8182H174.958L167.958 27H166.825Z" fill="white"/>
</g>
</g>
<defs>
<filter id="filter0_d_502_453" x="0.5" y="0.5" width="425.742" height="177" filterUnits="userSpaceOnUse" color-interpolation-filters="sRGB">
<feFlood flood-opacity="0" result="BackgroundImageFix"/>
<feColorMatrix in="SourceAlpha" type="matrix" values="0 0 0 0 0 0 0 0 0 0 0 0 0 0 0 0 0 0 127 0" result="hardAlpha"/>
<feOffset dy="2"/>
<feGaussianBlur stdDeviation="2"/>
<feComposite in2="hardAlpha" operator="out"/>
<feColorMatrix type="matrix" values="0 0 0 0 0 0 0 0 0 0 0 0 0 0 0 0 0 0 0.25 0"/>
<feBlend mode="normal" in2="BackgroundImageFix" result="effect1_dropShadow_502_453"/>
<feBlend mode="normal" in="SourceGraphic" in2="effect1_dropShadow_502_453" result="shape"/>
</filter>
<filter id="filter1_d_502_453" x="1.04297" y="91.5037" width="428.457" height="125.201" filterUnits="userSpaceOnUse" color-interpolation-filters="sRGB">
<feFlood flood-opacity="0" result="BackgroundImageFix"/>
<feColorMatrix in="SourceAlpha" type="matrix" values="0 0 0 0 0 0 0 0 0 0 0 0 0 0 0 0 0 0 127 0" result="hardAlpha"/>
<feOffset dy="2"/>
<feGaussianBlur stdDeviation="2"/>
<feComposite in2="hardAlpha" operator="out"/>
<feColorMatrix type="matrix" values="0 0 0 0 0 0 0 0 0 0 0 0 0 0 0 0 0 0 0.25 0"/>
<feBlend mode="normal" in2="BackgroundImageFix" result="effect1_dropShadow_502_453"/>
<feBlend mode="normal" in="SourceGraphic" in2="effect1_dropShadow_502_453" result="shape"/>
</filter>
<filter id="filter2_d_502_453" x="185.656" y="29" width="25.0293" height="24" filterUnits="userSpaceOnUse" color-interpolation-filters="sRGB">
<feFlood flood-opacity="0" result="BackgroundImageFix"/>
<feColorMatrix in="SourceAlpha" type="matrix" values="0 0 0 0 0 0 0 0 0 0 0 0 0 0 0 0 0 0 127 0" result="hardAlpha"/>
<feMorphology radius="2" operator="dilate" in="SourceAlpha" result="effect1_dropShadow_502_453"/>
<feOffset/>
<feGaussianBlur stdDeviation="2"/>
<feComposite in2="hardAlpha" operator="out"/>
<feColorMatrix type="matrix" values="0 0 0 0 0.12549 0 0 0 0 0.643137 0 0 0 0 0.643137 0 0 0 0.6 0"/>
<feBlend mode="normal" in2="BackgroundImageFix" result="effect1_dropShadow_502_453"/>
<feBlend mode="normal" in="SourceGraphic" in2="effect1_dropShadow_502_453" result="shape"/>
</filter>
<filter id="filter3_d_502_453" x="264.914" y="127" width="25.0293" height="24" filterUnits="userSpaceOnUse" color-interpolation-filters="sRGB">
<feFlood flood-opacity="0" result="BackgroundImageFix"/>
<feColorMatrix in="SourceAlpha" type="matrix" values="0 0 0 0 0 0 0 0 0 0 0 0 0 0 0 0 0 0 127 0" result="hardAlpha"/>
<feMorphology radius="2" operator="dilate" in="SourceAlpha" result="effect1_dropShadow_502_453"/>
<feOffset/>
<feGaussianBlur stdDeviation="2"/>
<feComposite in2="hardAlpha" operator="out"/>
<feColorMatrix type="matrix" values="0 0 0 0 0.12549 0 0 0 0 0.643137 0 0 0 0 0.643137 0 0 0 0.6 0"/>
<feBlend mode="normal" in2="BackgroundImageFix" result="effect1_dropShadow_502_453"/>
<feBlend mode="normal" in="SourceGraphic" in2="effect1_dropShadow_502_453" result="shape"/>
</filter>
<filter id="filter4_d_502_453" x="272" y="90" width="92" height="36" filterUnits="userSpaceOnUse" color-interpolation-filters="sRGB">
<feFlood flood-opacity="0" result="BackgroundImageFix"/>
<feColorMatrix in="SourceAlpha" type="matrix" values="0 0 0 0 0 0 0 0 0 0 0 0 0 0 0 0 0 0 127 0" result="hardAlpha"/>
<feMorphology radius="1" operator="dilate" in="SourceAlpha" result="effect1_dropShadow_502_453"/>
<feOffset/>
<feGaussianBlur stdDeviation="2"/>
<feComposite in2="hardAlpha" operator="out"/>
<feColorMatrix type="matrix" values="0 0 0 0 0.137255 0 0 0 0 0.835294 0 0 0 0 0.835294 0 0 0 1 0"/>
<feBlend mode="normal" in2="BackgroundImageFix" result="effect1_dropShadow_502_453"/>
<feBlend mode="normal" in="SourceGraphic" in2="effect1_dropShadow_502_453" result="shape"/>
</filter>
<filter id="filter5_d_502_453" x="272" y="90.5" width="92" height="35" filterUnits="userSpaceOnUse" color-interpolation-filters="sRGB">
<feFlood flood-opacity="0" result="BackgroundImageFix"/>
<feColorMatrix in="SourceAlpha" type="matrix" values="0 0 0 0 0 0 0 0 0 0 0 0 0 0 0 0 0 0 127 0" result="hardAlpha"/>
<feMorphology radius="1" operator="dilate" in="SourceAlpha" result="effect1_dropShadow_502_453"/>
<feOffset/>
<feGaussianBlur stdDeviation="2"/>
<feComposite in2="hardAlpha" operator="out"/>
<feColorMatrix type="matrix" values="0 0 0 0 0.137255 0 0 0 0 0.835294 0 0 0 0 0.835294 0 0 0 1 0"/>
<feBlend mode="normal" in2="BackgroundImageFix" result="effect1_dropShadow_502_453"/>
<feBlend mode="normal" in="SourceGraphic" in2="effect1_dropShadow_502_453" result="shape"/>
</filter>
<filter id="filter6_d_502_453" x="49" y="4" width="143" height="36" filterUnits="userSpaceOnUse" color-interpolation-filters="sRGB">
<feFlood flood-opacity="0" result="BackgroundImageFix"/>
<feColorMatrix in="SourceAlpha" type="matrix" values="0 0 0 0 0 0 0 0 0 0 0 0 0 0 0 0 0 0 127 0" result="hardAlpha"/>
<feMorphology radius="1" operator="dilate" in="SourceAlpha" result="effect1_dropShadow_502_453"/>
<feOffset/>
<feGaussianBlur stdDeviation="2"/>
<feComposite in2="hardAlpha" operator="out"/>
<feColorMatrix type="matrix" values="0 0 0 0 0.137255 0 0 0 0 0.835294 0 0 0 0 0.835294 0 0 0 1 0"/>
<feBlend mode="normal" in2="BackgroundImageFix" result="effect1_dropShadow_502_453"/>
<feBlend mode="normal" in="SourceGraphic" in2="effect1_dropShadow_502_453" result="shape"/>
</filter>
<filter id="filter7_d_502_453" x="52.5" y="4.5" width="136" height="35" filterUnits="userSpaceOnUse" color-interpolation-filters="sRGB">
<feFlood flood-opacity="0" result="BackgroundImageFix"/>
<feColorMatrix in="SourceAlpha" type="matrix" values="0 0 0 0 0 0 0 0 0 0 0 0 0 0 0 0 0 0 127 0" result="hardAlpha"/>
<feMorphology radius="1" operator="dilate" in="SourceAlpha" result="effect1_dropShadow_502_453"/>
<feOffset/>
<feGaussianBlur stdDeviation="2"/>
<feComposite in2="hardAlpha" operator="out"/>
<feColorMatrix type="matrix" values="0 0 0 0 0.137255 0 0 0 0 0.835294 0 0 0 0 0.835294 0 0 0 1 0"/>
<feBlend mode="normal" in2="BackgroundImageFix" result="effect1_dropShadow_502_453"/>
<feBlend mode="normal" in="SourceGraphic" in2="effect1_dropShadow_502_453" result="shape"/>
</filter>
<linearGradient id="paint0_linear_502_453" x1="208.032" y1="46.6913" x2="210.572" y2="212.085" gradientUnits="userSpaceOnUse">
<stop stop-color="#E7E7E7" stop-opacity="0.29"/>
<stop offset="0.867743" stop-color="#383B3D" stop-opacity="0"/>
</linearGradient>
<linearGradient id="paint1_linear_502_453" x1="208.032" y1="153.556" x2="208.727" y2="240.038" gradientUnits="userSpaceOnUse">
<stop stop-color="#E7E7E7" stop-opacity="0.29"/>
<stop offset="0.867743" stop-color="#383B3D" stop-opacity="0"/>
</linearGradient>
<linearGradient id="paint2_linear_502_453" x1="15.0617" y1="190.948" x2="416.92" y2="84.1209" gradientUnits="userSpaceOnUse">
<stop stop-color="#4B4B4B" stop-opacity="0"/>
<stop offset="0.500039" stop-color="#1EB2B2"/>
<stop offset="1" stop-color="#4B4B4B" stop-opacity="0"/>
</linearGradient>
<linearGradient id="paint3_linear_502_453" x1="13.9761" y1="252.948" x2="415.835" y2="146.121" gradientUnits="userSpaceOnUse">
<stop stop-color="#4B4B4B" stop-opacity="0"/>
<stop offset="0.725" stop-color="#1EB2B2"/>
<stop offset="1" stop-color="#4B4B4B" stop-opacity="0"/>
</linearGradient>
</defs>
</svg>
