<svg width="397" height="229" viewBox="0 0 397 229" fill="none" xmlns="http://www.w3.org/2000/svg">
<path d="M73.6663 134.178L6 169.955V191H388V4L360.855 33.7637L332.136 21.1367L260.536 83.6704L182.641 41.2797L103.565 89.6833L73.6663 134.178Z" fill="url(#paint0_linear_0_566)" fill-opacity="0.7"/>
<path d="M73 198L6 181V229H388V121L360.5 98L324 173L255.5 141L167.5 210.5L99.5 180.5L73 198Z" fill="url(#paint1_linear_0_566)" fill-opacity="0.7"/>
<g filter="url(#filter0_d_0_566)">
<path d="M6 170L73.6663 134.214L103.565 89.7065L182.641 41.2899L260.536 83.692L332.136 21.1413L360.855 33.7717L388 4" stroke="url(#paint2_linear_0_566)" stroke-width="3" stroke-linecap="round" shape-rendering="crispEdges"/>
</g>
<g filter="url(#filter1_d_0_566)">
<path d="M6.5 179L72.6663 196.214L99.5 179L167.5 209L255 139.5L323.5 171L359.855 95.7717L391 121.5" stroke="url(#paint3_linear_0_566)" stroke-width="3" stroke-linecap="round" shape-rendering="crispEdges"/>
</g>
<g filter="url(#filter2_d_0_566)">
<circle cx="183" cy="41" r="6" fill="#BBF4F4"/>
</g>
<g filter="url(#filter3_d_0_566)">
<circle cx="256" cy="139" r="6" fill="#BBF4F4"/>
</g>
<g filter="url(#filter4_d_0_566)">
<rect x="39.5" y="12.5" width="125" height="25" rx="3.5" stroke="url(#paint4_linear_0_566)" stroke-opacity="0.7" shape-rendering="crispEdges"/>
<g filter="url(#filter5_d_0_566)">
<rect x="39.5" y="13" width="125" height="24" rx="3.5" stroke="url(#paint5_linear_0_566)" stroke-opacity="0.7" shape-rendering="crispEdges"/>
<path d="M46.233 30V19.8182H52.3778V20.9119H47.4659V24.3523H52.0597V25.446H47.4659V28.9062H52.4574V30H46.233ZM57.8416 22.3636V23.358H53.7251V22.3636H57.8416ZM54.9581 30V21.3097C54.9581 20.8722 55.0608 20.5076 55.2663 20.2159C55.4718 19.9242 55.7386 19.7055 56.0668 19.5597C56.3949 19.4138 56.7412 19.3409 57.1058 19.3409C57.3942 19.3409 57.6295 19.3641 57.8118 19.4105C57.9941 19.4569 58.13 19.5 58.2195 19.5398L57.8814 20.554C57.8217 20.5341 57.7389 20.5092 57.6328 20.4794C57.5301 20.4496 57.3942 20.4347 57.2251 20.4347C56.8374 20.4347 56.5573 20.5324 56.3849 20.728C56.2159 20.9235 56.1314 21.2102 56.1314 21.5881V30H54.9581ZM62.8865 22.3636V23.358H58.7701V22.3636H62.8865ZM60.003 30V21.3097C60.003 20.8722 60.1058 20.5076 60.3113 20.2159C60.5167 19.9242 60.7836 19.7055 61.1117 19.5597C61.4398 19.4138 61.7862 19.3409 62.1507 19.3409C62.4391 19.3409 62.6744 19.3641 62.8567 19.4105C63.039 19.4569 63.1749 19.5 63.2644 19.5398L62.9263 20.554C62.8667 20.5341 62.7838 20.5092 62.6777 20.4794C62.575 20.4496 62.4391 20.4347 62.2701 20.4347C61.8823 20.4347 61.6022 20.5324 61.4299 20.728C61.2608 20.9235 61.1763 21.2102 61.1763 21.5881V30H60.003ZM64.5309 30V22.3636H65.7042V30H64.5309ZM65.1275 21.0909C64.8988 21.0909 64.7016 21.013 64.5359 20.8572C64.3735 20.7015 64.2923 20.5142 64.2923 20.2955C64.2923 20.0767 64.3735 19.8894 64.5359 19.7337C64.7016 19.5779 64.8988 19.5 65.1275 19.5C65.3562 19.5 65.5517 19.5779 65.7141 19.7337C65.8799 19.8894 65.9627 20.0767 65.9627 20.2955C65.9627 20.5142 65.8799 20.7015 65.7141 20.8572C65.5517 21.013 65.3562 21.0909 65.1275 21.0909ZM70.9554 30.1591C70.2395 30.1591 69.623 29.9901 69.106 29.652C68.589 29.3139 68.1912 28.8482 67.9128 28.255C67.6344 27.6617 67.4952 26.9839 67.4952 26.2216C67.4952 25.446 67.6377 24.7616 67.9228 24.1683C68.2111 23.5717 68.6122 23.1061 69.1259 22.7713C69.6429 22.4332 70.2462 22.2642 70.9355 22.2642C71.4725 22.2642 71.9564 22.3636 72.3873 22.5625C72.8181 22.7614 73.1711 23.0398 73.4462 23.3977C73.7213 23.7557 73.892 24.1733 73.9583 24.6506H72.785C72.6955 24.3026 72.4966 23.9943 72.1884 23.7259C71.8835 23.4541 71.4725 23.3182 70.9554 23.3182C70.498 23.3182 70.097 23.4375 69.7523 23.6761C69.4109 23.9115 69.1441 24.2446 68.9519 24.6754C68.763 25.103 68.6685 25.6051 68.6685 26.1818C68.6685 26.7718 68.7613 27.2855 68.9469 27.723C69.1358 28.1605 69.401 28.5002 69.7424 28.7422C70.0871 28.9841 70.4914 29.1051 70.9554 29.1051C71.2604 29.1051 71.5371 29.0521 71.7857 28.946C72.0343 28.84 72.2447 28.6875 72.4171 28.4886C72.5894 28.2898 72.7121 28.0511 72.785 27.7727H73.9583C73.892 28.2235 73.7279 28.6295 73.4661 28.9908C73.2076 29.3487 72.8645 29.6338 72.437 29.8459C72.0127 30.0547 71.5189 30.1591 70.9554 30.1591ZM75.6735 30V22.3636H76.8468V30H75.6735ZM76.2701 21.0909C76.0414 21.0909 75.8442 21.013 75.6784 20.8572C75.516 20.7015 75.4348 20.5142 75.4348 20.2955C75.4348 20.0767 75.516 19.8894 75.6784 19.7337C75.8442 19.5779 76.0414 19.5 76.2701 19.5C76.4988 19.5 76.6943 19.5779 76.8567 19.7337C77.0224 19.8894 77.1053 20.0767 77.1053 20.2955C77.1053 20.5142 77.0224 20.7015 76.8567 20.8572C76.6943 21.013 76.4988 21.0909 76.2701 21.0909ZM82.1974 30.1591C81.4616 30.1591 80.8269 29.9967 80.2933 29.6719C79.763 29.3438 79.3537 28.8864 79.0653 28.2997C78.7803 27.7098 78.6378 27.0237 78.6378 26.2415C78.6378 25.4593 78.7803 24.7699 79.0653 24.1733C79.3537 23.5734 79.7547 23.1061 80.2685 22.7713C80.7855 22.4332 81.3887 22.2642 82.0781 22.2642C82.4759 22.2642 82.8686 22.3305 83.2564 22.4631C83.6442 22.5956 83.9972 22.8111 84.3153 23.1094C84.6335 23.4044 84.8871 23.7955 85.076 24.2827C85.2649 24.7699 85.3594 25.3698 85.3594 26.0824V26.5795H79.473V25.5653H84.1662C84.1662 25.1345 84.08 24.75 83.9077 24.4119C83.7386 24.0739 83.4967 23.8071 83.1818 23.6115C82.8703 23.416 82.5024 23.3182 82.0781 23.3182C81.6108 23.3182 81.2064 23.4342 80.8651 23.6662C80.527 23.8949 80.2668 24.1932 80.0845 24.5611C79.9022 24.929 79.8111 25.3234 79.8111 25.7443V26.4205C79.8111 26.9972 79.9105 27.486 80.1094 27.8871C80.3116 28.2848 80.5916 28.5881 80.9496 28.7969C81.3075 29.0024 81.7235 29.1051 82.1974 29.1051C82.5057 29.1051 82.7841 29.062 83.0327 28.9759C83.2846 28.8864 83.5017 28.7538 83.6839 28.5781C83.8662 28.3991 84.0071 28.1771 84.1065 27.9119L85.2401 28.2301C85.1207 28.6146 84.9202 28.9527 84.6385 29.2443C84.3568 29.5327 84.0088 29.758 83.5945 29.9205C83.1802 30.0795 82.7145 30.1591 82.1974 30.1591ZM88.3175 25.4062V30H87.1442V22.3636H88.2777V23.5568H88.3771C88.5561 23.169 88.8279 22.8575 89.1925 22.6222C89.5571 22.3835 90.0277 22.2642 90.6044 22.2642C91.1214 22.2642 91.5739 22.3703 91.9616 22.5824C92.3494 22.7912 92.651 23.1094 92.8665 23.5369C93.0819 23.9612 93.1896 24.4981 93.1896 25.1477V30H92.0163V25.2273C92.0163 24.6274 91.8606 24.16 91.549 23.8253C91.2375 23.4872 90.8099 23.3182 90.2663 23.3182C89.8918 23.3182 89.5571 23.3994 89.2621 23.5618C88.9704 23.7242 88.7401 23.9612 88.571 24.2727C88.402 24.5843 88.3175 24.9621 88.3175 25.4062ZM98.4359 30.1591C97.72 30.1591 97.1035 29.9901 96.5865 29.652C96.0694 29.3139 95.6717 28.8482 95.3933 28.255C95.1149 27.6617 94.9757 26.9839 94.9757 26.2216C94.9757 25.446 95.1182 24.7616 95.4032 24.1683C95.6916 23.5717 96.0926 23.1061 96.6064 22.7713C97.1234 22.4332 97.7266 22.2642 98.416 22.2642C98.9529 22.2642 99.4368 22.3636 99.8677 22.5625C100.299 22.7614 100.652 23.0398 100.927 23.3977C101.202 23.7557 101.372 24.1733 101.439 24.6506H100.265C100.176 24.3026 99.9771 23.9943 99.6689 23.7259C99.3639 23.4541 98.9529 23.3182 98.4359 23.3182C97.9785 23.3182 97.5775 23.4375 97.2328 23.6761C96.8914 23.9115 96.6246 24.2446 96.4324 24.6754C96.2434 25.103 96.149 25.6051 96.149 26.1818C96.149 26.7718 96.2418 27.2855 96.4274 27.723C96.6163 28.1605 96.8815 28.5002 97.2228 28.7422C97.5675 28.9841 97.9719 29.1051 98.4359 29.1051C98.7408 29.1051 99.0176 29.0521 99.2662 28.946C99.5147 28.84 99.7252 28.6875 99.8975 28.4886C100.07 28.2898 100.193 28.0511 100.265 27.7727H101.439C101.372 28.2235 101.208 28.6295 100.947 28.9908C100.688 29.3487 100.345 29.6338 99.9174 29.8459C99.4932 30.0547 98.9993 30.1591 98.4359 30.1591ZM103.91 32.8636C103.711 32.8636 103.533 32.8471 103.378 32.8139C103.222 32.7841 103.114 32.7543 103.055 32.7244L103.353 31.6903C103.638 31.7633 103.89 31.7898 104.108 31.7699C104.327 31.75 104.521 31.6522 104.69 31.4766C104.863 31.3042 105.02 31.0241 105.162 30.6364L105.381 30.0398L102.557 22.3636H103.83L105.938 28.4489H106.018L108.126 22.3636H109.398L106.157 31.1136C106.011 31.508 105.83 31.8345 105.615 32.093C105.399 32.3549 105.149 32.5488 104.864 32.6747C104.582 32.8007 104.264 32.8636 103.91 32.8636ZM117.867 28.2102V21.6477H118.981V28.2102H117.867ZM115.143 25.4858V24.3722H121.705V25.4858H115.143ZM127.673 19.8182V30H126.44V21.1108H126.38L123.894 22.7614V21.5085L126.44 19.8182H127.673ZM130.601 30V29.1051L133.962 25.4261C134.356 24.9953 134.681 24.6207 134.936 24.3026C135.191 23.9811 135.38 23.6795 135.503 23.3977C135.629 23.1127 135.692 22.8144 135.692 22.5028C135.692 22.1449 135.606 21.835 135.433 21.5732C135.264 21.3113 135.032 21.1091 134.737 20.9666C134.442 20.8241 134.111 20.7528 133.743 20.7528C133.352 20.7528 133.01 20.834 132.719 20.9964C132.43 21.1555 132.207 21.3793 132.048 21.6676C131.892 21.956 131.814 22.294 131.814 22.6818H130.641C130.641 22.0852 130.778 21.5616 131.053 21.1108C131.328 20.66 131.703 20.3087 132.177 20.0568C132.654 19.8049 133.189 19.679 133.783 19.679C134.379 19.679 134.908 19.8049 135.369 20.0568C135.829 20.3087 136.191 20.6484 136.452 21.076C136.714 21.5036 136.845 21.9792 136.845 22.5028C136.845 22.8774 136.777 23.2436 136.641 23.6016C136.509 23.9562 136.277 24.3523 135.945 24.7898C135.617 25.224 135.161 25.7543 134.578 26.3807L132.291 28.8267V28.9062H137.024V30H130.601ZM142.398 30.1392C141.649 30.1392 141.011 29.9354 140.484 29.5277C139.957 29.1167 139.555 28.5218 139.276 27.7429C138.998 26.9607 138.859 26.0161 138.859 24.9091C138.859 23.8087 138.998 22.8691 139.276 22.0902C139.558 21.308 139.962 20.7114 140.489 20.3004C141.02 19.8861 141.656 19.679 142.398 19.679C143.141 19.679 143.776 19.8861 144.303 20.3004C144.833 20.7114 145.237 21.308 145.516 22.0902C145.797 22.8691 145.938 23.8087 145.938 24.9091C145.938 26.0161 145.799 26.9607 145.521 27.7429C145.242 28.5218 144.839 29.1167 144.312 29.5277C143.786 29.9354 143.147 30.1392 142.398 30.1392ZM142.398 29.0455C143.141 29.0455 143.718 28.6875 144.129 27.9716C144.54 27.2557 144.745 26.2348 144.745 24.9091C144.745 24.0275 144.651 23.2768 144.462 22.657C144.276 22.0372 144.008 21.5649 143.656 21.2401C143.308 20.9152 142.889 20.7528 142.398 20.7528C141.663 20.7528 141.088 21.1158 140.673 21.8416C140.259 22.5642 140.052 23.5866 140.052 24.9091C140.052 25.7907 140.145 26.5398 140.33 27.1562C140.516 27.7727 140.783 28.2417 141.131 28.5632C141.482 28.8847 141.905 29.0455 142.398 29.0455ZM153.018 28.0909V27.554C153.018 27.1828 153.094 26.843 153.246 26.5348C153.402 26.2232 153.628 25.9747 153.923 25.7891C154.221 25.6001 154.582 25.5057 155.006 25.5057C155.437 25.5057 155.799 25.6001 156.09 25.7891C156.382 25.9747 156.602 26.2232 156.751 26.5348C156.901 26.843 156.975 27.1828 156.975 27.554V28.0909C156.975 28.4621 156.899 28.8035 156.746 29.1151C156.597 29.4233 156.375 29.6719 156.08 29.8608C155.789 30.0464 155.431 30.1392 155.006 30.1392C154.576 30.1392 154.213 30.0464 153.918 29.8608C153.623 29.6719 153.399 29.4233 153.246 29.1151C153.094 28.8035 153.018 28.4621 153.018 28.0909ZM154.032 27.554V28.0909C154.032 28.3991 154.105 28.6759 154.251 28.9212C154.397 29.1631 154.648 29.2841 155.006 29.2841C155.354 29.2841 155.6 29.1631 155.742 28.9212C155.888 28.6759 155.961 28.3991 155.961 28.0909V27.554C155.961 27.2457 155.891 26.9706 155.752 26.7287C155.613 26.4834 155.364 26.3608 155.006 26.3608C154.658 26.3608 154.408 26.4834 154.256 26.7287C154.107 26.9706 154.032 27.2457 154.032 27.554ZM147.947 22.2642V21.7273C147.947 21.3561 148.023 21.0163 148.175 20.7081C148.331 20.3965 148.557 20.148 148.852 19.9624C149.15 19.7734 149.511 19.679 149.935 19.679C150.366 19.679 150.728 19.7734 151.019 19.9624C151.311 20.148 151.531 20.3965 151.68 20.7081C151.83 21.0163 151.904 21.3561 151.904 21.7273V22.2642C151.904 22.6354 151.828 22.9768 151.675 23.2884C151.526 23.5966 151.304 23.8452 151.009 24.0341C150.718 24.2197 150.36 24.3125 149.935 24.3125C149.504 24.3125 149.142 24.2197 148.847 24.0341C148.552 23.8452 148.328 23.5966 148.175 23.2884C148.023 22.9768 147.947 22.6354 147.947 22.2642ZM148.961 21.7273V22.2642C148.961 22.5724 149.034 22.8492 149.18 23.0945C149.326 23.3364 149.577 23.4574 149.935 23.4574C150.283 23.4574 150.529 23.3364 150.671 23.0945C150.817 22.8492 150.89 22.5724 150.89 22.2642V21.7273C150.89 21.419 150.82 21.1439 150.681 20.902C150.542 20.6567 150.293 20.5341 149.935 20.5341C149.587 20.5341 149.337 20.6567 149.185 20.902C149.036 21.1439 148.961 21.419 148.961 21.7273ZM148.325 30L155.325 19.8182H156.458L149.458 30H148.325Z" fill="white"/>
</g>
</g>
<g filter="url(#filter6_d_0_566)">
<rect x="256.5" y="95.5" width="81" height="25" rx="3.5" stroke="url(#paint6_linear_0_566)" stroke-opacity="0.7" shape-rendering="crispEdges"/>
<g filter="url(#filter7_d_0_566)">
<rect x="256.5" y="96" width="81" height="24" rx="3.5" stroke="url(#paint7_linear_0_566)" stroke-opacity="0.7" shape-rendering="crispEdges"/>
<path d="M271.426 106H270.193C270.12 105.645 269.993 105.334 269.81 105.065C269.631 104.797 269.413 104.571 269.154 104.389C268.899 104.204 268.616 104.064 268.304 103.972C267.992 103.879 267.668 103.832 267.33 103.832C266.713 103.832 266.155 103.988 265.654 104.3C265.157 104.611 264.761 105.07 264.466 105.677C264.174 106.283 264.028 107.027 264.028 107.909C264.028 108.791 264.174 109.535 264.466 110.141C264.761 110.748 265.157 111.207 265.654 111.518C266.155 111.83 266.713 111.986 267.33 111.986C267.668 111.986 267.992 111.939 268.304 111.847C268.616 111.754 268.899 111.616 269.154 111.434C269.413 111.248 269.631 111.021 269.81 110.753C269.993 110.481 270.12 110.17 270.193 109.818H271.426C271.333 110.339 271.164 110.804 270.919 111.215C270.674 111.626 270.369 111.976 270.004 112.264C269.64 112.549 269.23 112.766 268.776 112.915C268.326 113.065 267.843 113.139 267.33 113.139C266.461 113.139 265.689 112.927 265.013 112.503C264.337 112.079 263.805 111.475 263.417 110.693C263.029 109.911 262.835 108.983 262.835 107.909C262.835 106.835 263.029 105.907 263.417 105.125C263.805 104.343 264.337 103.74 265.013 103.315C265.689 102.891 266.461 102.679 267.33 102.679C267.843 102.679 268.326 102.754 268.776 102.903C269.23 103.052 269.64 103.271 270.004 103.559C270.369 103.844 270.674 104.192 270.919 104.603C271.164 105.011 271.333 105.476 271.426 106ZM276.362 113.159C275.672 113.159 275.067 112.995 274.547 112.667C274.03 112.339 273.626 111.88 273.334 111.29C273.046 110.7 272.901 110.01 272.901 109.222C272.901 108.426 273.046 107.732 273.334 107.138C273.626 106.545 274.03 106.085 274.547 105.756C275.067 105.428 275.672 105.264 276.362 105.264C277.051 105.264 277.654 105.428 278.171 105.756C278.692 106.085 279.096 106.545 279.384 107.138C279.676 107.732 279.822 108.426 279.822 109.222C279.822 110.01 279.676 110.7 279.384 111.29C279.096 111.88 278.692 112.339 278.171 112.667C277.654 112.995 277.051 113.159 276.362 113.159ZM276.362 112.105C276.885 112.105 277.316 111.971 277.654 111.702C277.992 111.434 278.243 111.081 278.405 110.643C278.567 110.206 278.649 109.732 278.649 109.222C278.649 108.711 278.567 108.236 278.405 107.795C278.243 107.354 277.992 106.998 277.654 106.726C277.316 106.454 276.885 106.318 276.362 106.318C275.838 106.318 275.407 106.454 275.069 106.726C274.731 106.998 274.481 107.354 274.318 107.795C274.156 108.236 274.075 108.711 274.075 109.222C274.075 109.732 274.156 110.206 274.318 110.643C274.481 111.081 274.731 111.434 275.069 111.702C275.407 111.971 275.838 112.105 276.362 112.105ZM287.022 107.074L285.968 107.372C285.902 107.196 285.804 107.026 285.675 106.86C285.549 106.691 285.376 106.552 285.158 106.442C284.939 106.333 284.659 106.278 284.317 106.278C283.85 106.278 283.461 106.386 283.149 106.602C282.841 106.814 282.687 107.084 282.687 107.412C282.687 107.704 282.793 107.934 283.005 108.103C283.217 108.272 283.549 108.413 283.999 108.526L285.133 108.804C285.816 108.97 286.324 109.223 286.659 109.565C286.994 109.903 287.161 110.339 287.161 110.872C287.161 111.31 287.035 111.701 286.783 112.045C286.535 112.39 286.187 112.662 285.739 112.861C285.292 113.06 284.772 113.159 284.178 113.159C283.399 113.159 282.755 112.99 282.244 112.652C281.734 112.314 281.411 111.82 281.275 111.17L282.388 110.892C282.495 111.303 282.695 111.611 282.99 111.817C283.288 112.022 283.678 112.125 284.158 112.125C284.705 112.125 285.139 112.009 285.461 111.777C285.786 111.542 285.948 111.26 285.948 110.932C285.948 110.667 285.855 110.445 285.67 110.266C285.484 110.083 285.199 109.947 284.815 109.858L283.542 109.56C282.843 109.394 282.329 109.137 282.001 108.789C281.676 108.438 281.513 107.999 281.513 107.472C281.513 107.041 281.634 106.66 281.876 106.328C282.122 105.997 282.455 105.737 282.876 105.548C283.3 105.359 283.781 105.264 284.317 105.264C285.073 105.264 285.666 105.43 286.097 105.761C286.531 106.093 286.84 106.53 287.022 107.074ZM292.248 105.364V106.358H288.291V105.364H292.248ZM289.444 103.534H290.618V110.812C290.618 111.144 290.666 111.393 290.762 111.558C290.861 111.721 290.987 111.83 291.14 111.886C291.296 111.939 291.46 111.966 291.632 111.966C291.761 111.966 291.867 111.959 291.95 111.946C292.033 111.929 292.099 111.916 292.149 111.906L292.388 112.96C292.308 112.99 292.197 113.02 292.055 113.05C291.912 113.083 291.731 113.099 291.513 113.099C291.181 113.099 290.856 113.028 290.538 112.886C290.223 112.743 289.961 112.526 289.753 112.234C289.547 111.943 289.444 111.575 289.444 111.131V103.534ZM302.326 107.362V108.456H297.871V107.362H302.326ZM307.751 113.139C307.333 113.133 306.916 113.053 306.498 112.901C306.081 112.748 305.699 112.491 305.355 112.13C305.01 111.765 304.733 111.273 304.525 110.653C304.316 110.03 304.211 109.248 304.211 108.307C304.211 107.405 304.296 106.607 304.465 105.911C304.634 105.211 304.879 104.623 305.201 104.146C305.522 103.665 305.91 103.3 306.364 103.052C306.821 102.803 307.337 102.679 307.91 102.679C308.48 102.679 308.987 102.793 309.431 103.022C309.879 103.247 310.243 103.562 310.525 103.967C310.807 104.371 310.989 104.837 311.072 105.364H309.859C309.746 104.906 309.528 104.527 309.203 104.225C308.878 103.924 308.447 103.773 307.91 103.773C307.121 103.773 306.5 104.116 306.046 104.802C305.595 105.488 305.368 106.451 305.365 107.69H305.444C305.63 107.409 305.85 107.168 306.105 106.969C306.364 106.767 306.649 106.612 306.961 106.502C307.272 106.393 307.602 106.338 307.95 106.338C308.533 106.338 309.067 106.484 309.551 106.776C310.035 107.064 310.422 107.463 310.714 107.974C311.006 108.481 311.152 109.062 311.152 109.719C311.152 110.348 311.011 110.925 310.729 111.449C310.447 111.969 310.051 112.384 309.541 112.692C309.034 112.997 308.437 113.146 307.751 113.139ZM307.751 112.045C308.169 112.045 308.543 111.941 308.875 111.732C309.209 111.523 309.473 111.243 309.665 110.892C309.861 110.541 309.958 110.15 309.958 109.719C309.958 109.298 309.864 108.915 309.675 108.57C309.489 108.222 309.233 107.946 308.904 107.74C308.58 107.535 308.208 107.432 307.791 107.432C307.476 107.432 307.183 107.495 306.911 107.621C306.639 107.743 306.4 107.912 306.195 108.128C305.993 108.343 305.834 108.59 305.718 108.869C305.602 109.144 305.544 109.434 305.544 109.739C305.544 110.143 305.638 110.521 305.827 110.872C306.019 111.223 306.281 111.507 306.613 111.722C306.947 111.938 307.327 112.045 307.751 112.045ZM313.425 113L317.979 103.991V103.912H312.729V102.818H319.252V103.972L314.718 113H313.425ZM326.295 111.091V110.554C326.295 110.183 326.371 109.843 326.524 109.535C326.68 109.223 326.905 108.975 327.2 108.789C327.498 108.6 327.859 108.506 328.284 108.506C328.715 108.506 329.076 108.6 329.368 108.789C329.659 108.975 329.88 109.223 330.029 109.535C330.178 109.843 330.252 110.183 330.252 110.554V111.091C330.252 111.462 330.176 111.804 330.024 112.115C329.875 112.423 329.653 112.672 329.358 112.861C329.066 113.046 328.708 113.139 328.284 113.139C327.853 113.139 327.49 113.046 327.195 112.861C326.9 112.672 326.676 112.423 326.524 112.115C326.371 111.804 326.295 111.462 326.295 111.091ZM327.309 110.554V111.091C327.309 111.399 327.382 111.676 327.528 111.921C327.674 112.163 327.926 112.284 328.284 112.284C328.632 112.284 328.877 112.163 329.02 111.921C329.165 111.676 329.238 111.399 329.238 111.091V110.554C329.238 110.246 329.169 109.971 329.029 109.729C328.89 109.483 328.642 109.361 328.284 109.361C327.936 109.361 327.685 109.483 327.533 109.729C327.384 109.971 327.309 110.246 327.309 110.554ZM321.224 105.264V104.727C321.224 104.356 321.3 104.016 321.453 103.708C321.609 103.397 321.834 103.148 322.129 102.962C322.427 102.773 322.788 102.679 323.213 102.679C323.644 102.679 324.005 102.773 324.297 102.962C324.588 103.148 324.809 103.397 324.958 103.708C325.107 104.016 325.181 104.356 325.181 104.727V105.264C325.181 105.635 325.105 105.977 324.953 106.288C324.804 106.597 324.582 106.845 324.287 107.034C323.995 107.22 323.637 107.312 323.213 107.312C322.782 107.312 322.419 107.22 322.124 107.034C321.829 106.845 321.605 106.597 321.453 106.288C321.3 105.977 321.224 105.635 321.224 105.264ZM322.238 104.727V105.264C322.238 105.572 322.311 105.849 322.457 106.094C322.603 106.336 322.855 106.457 323.213 106.457C323.561 106.457 323.806 106.336 323.949 106.094C324.094 105.849 324.167 105.572 324.167 105.264V104.727C324.167 104.419 324.098 104.144 323.958 103.902C323.819 103.657 323.571 103.534 323.213 103.534C322.865 103.534 322.614 103.657 322.462 103.902C322.313 104.144 322.238 104.419 322.238 104.727ZM321.602 113L328.602 102.818H329.735L322.735 113H321.602Z" fill="white"/>
</g>
</g>
<defs>
<filter id="filter0_d_0_566" x="0.499756" y="0.5" width="393" height="177" filterUnits="userSpaceOnUse" color-interpolation-filters="sRGB">
<feFlood flood-opacity="0" result="BackgroundImageFix"/>
<feColorMatrix in="SourceAlpha" type="matrix" values="0 0 0 0 0 0 0 0 0 0 0 0 0 0 0 0 0 0 127 0" result="hardAlpha"/>
<feOffset dy="2"/>
<feGaussianBlur stdDeviation="2"/>
<feComposite in2="hardAlpha" operator="out"/>
<feColorMatrix type="matrix" values="0 0 0 0 0 0 0 0 0 0 0 0 0 0 0 0 0 0 0.25 0"/>
<feBlend mode="normal" in2="BackgroundImageFix" result="effect1_dropShadow_0_566"/>
<feBlend mode="normal" in="SourceGraphic" in2="effect1_dropShadow_0_566" result="shape"/>
</filter>
<filter id="filter1_d_0_566" x="0.999756" y="91.3977" width="395.5" height="125.34" filterUnits="userSpaceOnUse" color-interpolation-filters="sRGB">
<feFlood flood-opacity="0" result="BackgroundImageFix"/>
<feColorMatrix in="SourceAlpha" type="matrix" values="0 0 0 0 0 0 0 0 0 0 0 0 0 0 0 0 0 0 127 0" result="hardAlpha"/>
<feOffset dy="2"/>
<feGaussianBlur stdDeviation="2"/>
<feComposite in2="hardAlpha" operator="out"/>
<feColorMatrix type="matrix" values="0 0 0 0 0 0 0 0 0 0 0 0 0 0 0 0 0 0 0.25 0"/>
<feBlend mode="normal" in2="BackgroundImageFix" result="effect1_dropShadow_0_566"/>
<feBlend mode="normal" in="SourceGraphic" in2="effect1_dropShadow_0_566" result="shape"/>
</filter>
<filter id="filter2_d_0_566" x="171" y="29" width="24" height="24" filterUnits="userSpaceOnUse" color-interpolation-filters="sRGB">
<feFlood flood-opacity="0" result="BackgroundImageFix"/>
<feColorMatrix in="SourceAlpha" type="matrix" values="0 0 0 0 0 0 0 0 0 0 0 0 0 0 0 0 0 0 127 0" result="hardAlpha"/>
<feMorphology radius="2" operator="dilate" in="SourceAlpha" result="effect1_dropShadow_0_566"/>
<feOffset/>
<feGaussianBlur stdDeviation="2"/>
<feComposite in2="hardAlpha" operator="out"/>
<feColorMatrix type="matrix" values="0 0 0 0 0.12549 0 0 0 0 0.643137 0 0 0 0 0.643137 0 0 0 0.6 0"/>
<feBlend mode="normal" in2="BackgroundImageFix" result="effect1_dropShadow_0_566"/>
<feBlend mode="normal" in="SourceGraphic" in2="effect1_dropShadow_0_566" result="shape"/>
</filter>
<filter id="filter3_d_0_566" x="244" y="127" width="24" height="24" filterUnits="userSpaceOnUse" color-interpolation-filters="sRGB">
<feFlood flood-opacity="0" result="BackgroundImageFix"/>
<feColorMatrix in="SourceAlpha" type="matrix" values="0 0 0 0 0 0 0 0 0 0 0 0 0 0 0 0 0 0 127 0" result="hardAlpha"/>
<feMorphology radius="2" operator="dilate" in="SourceAlpha" result="effect1_dropShadow_0_566"/>
<feOffset/>
<feGaussianBlur stdDeviation="2"/>
<feComposite in2="hardAlpha" operator="out"/>
<feColorMatrix type="matrix" values="0 0 0 0 0.12549 0 0 0 0 0.643137 0 0 0 0 0.643137 0 0 0 0.6 0"/>
<feBlend mode="normal" in2="BackgroundImageFix" result="effect1_dropShadow_0_566"/>
<feBlend mode="normal" in="SourceGraphic" in2="effect1_dropShadow_0_566" result="shape"/>
</filter>
<filter id="filter4_d_0_566" x="34" y="7" width="136" height="36" filterUnits="userSpaceOnUse" color-interpolation-filters="sRGB">
<feFlood flood-opacity="0" result="BackgroundImageFix"/>
<feColorMatrix in="SourceAlpha" type="matrix" values="0 0 0 0 0 0 0 0 0 0 0 0 0 0 0 0 0 0 127 0" result="hardAlpha"/>
<feMorphology radius="1" operator="dilate" in="SourceAlpha" result="effect1_dropShadow_0_566"/>
<feOffset/>
<feGaussianBlur stdDeviation="2"/>
<feComposite in2="hardAlpha" operator="out"/>
<feColorMatrix type="matrix" values="0 0 0 0 0.137255 0 0 0 0 0.835294 0 0 0 0 0.835294 0 0 0 1 0"/>
<feBlend mode="normal" in2="BackgroundImageFix" result="effect1_dropShadow_0_566"/>
<feBlend mode="normal" in="SourceGraphic" in2="effect1_dropShadow_0_566" result="shape"/>
</filter>
<filter id="filter5_d_0_566" x="34" y="7.5" width="136" height="35" filterUnits="userSpaceOnUse" color-interpolation-filters="sRGB">
<feFlood flood-opacity="0" result="BackgroundImageFix"/>
<feColorMatrix in="SourceAlpha" type="matrix" values="0 0 0 0 0 0 0 0 0 0 0 0 0 0 0 0 0 0 127 0" result="hardAlpha"/>
<feMorphology radius="1" operator="dilate" in="SourceAlpha" result="effect1_dropShadow_0_566"/>
<feOffset/>
<feGaussianBlur stdDeviation="2"/>
<feComposite in2="hardAlpha" operator="out"/>
<feColorMatrix type="matrix" values="0 0 0 0 0.137255 0 0 0 0 0.835294 0 0 0 0 0.835294 0 0 0 1 0"/>
<feBlend mode="normal" in2="BackgroundImageFix" result="effect1_dropShadow_0_566"/>
<feBlend mode="normal" in="SourceGraphic" in2="effect1_dropShadow_0_566" result="shape"/>
</filter>
<filter id="filter6_d_0_566" x="251" y="90" width="92" height="36" filterUnits="userSpaceOnUse" color-interpolation-filters="sRGB">
<feFlood flood-opacity="0" result="BackgroundImageFix"/>
<feColorMatrix in="SourceAlpha" type="matrix" values="0 0 0 0 0 0 0 0 0 0 0 0 0 0 0 0 0 0 127 0" result="hardAlpha"/>
<feMorphology radius="1" operator="dilate" in="SourceAlpha" result="effect1_dropShadow_0_566"/>
<feOffset/>
<feGaussianBlur stdDeviation="2"/>
<feComposite in2="hardAlpha" operator="out"/>
<feColorMatrix type="matrix" values="0 0 0 0 0.137255 0 0 0 0 0.835294 0 0 0 0 0.835294 0 0 0 1 0"/>
<feBlend mode="normal" in2="BackgroundImageFix" result="effect1_dropShadow_0_566"/>
<feBlend mode="normal" in="SourceGraphic" in2="effect1_dropShadow_0_566" result="shape"/>
</filter>
<filter id="filter7_d_0_566" x="251" y="90.5" width="92" height="35" filterUnits="userSpaceOnUse" color-interpolation-filters="sRGB">
<feFlood flood-opacity="0" result="BackgroundImageFix"/>
<feColorMatrix in="SourceAlpha" type="matrix" values="0 0 0 0 0 0 0 0 0 0 0 0 0 0 0 0 0 0 127 0" result="hardAlpha"/>
<feMorphology radius="1" operator="dilate" in="SourceAlpha" result="effect1_dropShadow_0_566"/>
<feOffset/>
<feGaussianBlur stdDeviation="2"/>
<feComposite in2="hardAlpha" operator="out"/>
<feColorMatrix type="matrix" values="0 0 0 0 0.137255 0 0 0 0 0.835294 0 0 0 0 0.835294 0 0 0 1 0"/>
<feBlend mode="normal" in2="BackgroundImageFix" result="effect1_dropShadow_0_566"/>
<feBlend mode="normal" in="SourceGraphic" in2="effect1_dropShadow_0_566" result="shape"/>
</filter>
<linearGradient id="paint0_linear_0_566" x1="192.082" y1="46.6913" x2="194.84" y2="212.078" gradientUnits="userSpaceOnUse">
<stop stop-color="#E7E7E7" stop-opacity="0.29"/>
<stop offset="0.867743" stop-color="#383B3D" stop-opacity="0"/>
</linearGradient>
<linearGradient id="paint1_linear_0_566" x1="192.082" y1="153.556" x2="192.836" y2="240.037" gradientUnits="userSpaceOnUse">
<stop stop-color="#E7E7E7" stop-opacity="0.29"/>
<stop offset="0.867743" stop-color="#383B3D" stop-opacity="0"/>
</linearGradient>
<linearGradient id="paint2_linear_0_566" x1="14.3463" y1="190.948" x2="388.222" y2="99.4062" gradientUnits="userSpaceOnUse">
<stop stop-color="#4B4B4B" stop-opacity="0"/>
<stop offset="0.500039" stop-color="#1EB2B2"/>
<stop offset="1" stop-color="#4B4B4B" stop-opacity="0"/>
</linearGradient>
<linearGradient id="paint3_linear_0_566" x1="13.3463" y1="252.948" x2="387.222" y2="161.406" gradientUnits="userSpaceOnUse">
<stop stop-color="#4B4B4B" stop-opacity="0"/>
<stop offset="0.725" stop-color="#1EB2B2"/>
<stop offset="1" stop-color="#4B4B4B" stop-opacity="0"/>
</linearGradient>
<linearGradient id="paint4_linear_0_566" x1="42.1632" y1="12.9142" x2="82.2403" y2="84.3986" gradientUnits="userSpaceOnUse">
<stop stop-color="#949494"/>
</linearGradient>
<linearGradient id="paint5_linear_0_566" x1="42.1632" y1="13.3791" x2="79.8975" y2="83.3769" gradientUnits="userSpaceOnUse">
<stop stop-color="#949494"/>
</linearGradient>
<linearGradient id="paint6_linear_0_566" x1="258.059" y1="95.9142" x2="304.518" y2="149.844" gradientUnits="userSpaceOnUse">
<stop stop-color="#949494"/>
</linearGradient>
<linearGradient id="paint7_linear_0_566" x1="258.059" y1="96.3791" x2="302.439" y2="149.957" gradientUnits="userSpaceOnUse">
<stop stop-color="#949494"/>
</linearGradient>
</defs>
</svg>
