<svg width="22" height="22" viewBox="0 0 22 22" fill="none" xmlns="http://www.w3.org/2000/svg">
<path d="M11.75 11.75H15.6065C15.7891 12.457 16.2232 13.0732 16.8275 13.483C17.4318 13.8928 18.1649 14.0681 18.8893 13.9761C19.6136 13.8841 20.2796 13.5311 20.7622 12.9832C21.2449 12.4353 21.5112 11.7302 21.5112 11C21.5112 10.2698 21.2449 9.56471 20.7622 9.01683C20.2796 8.46895 19.6136 8.11592 18.8893 8.02392C18.1649 7.93191 17.4318 8.10725 16.8275 8.51706C16.2232 8.92687 15.7891 9.54301 15.6065 10.25H11.75V4.25001H15.6065C15.7891 4.957 16.2232 5.57315 16.8275 5.98296C17.4318 6.39277 18.1649 6.5681 18.8893 6.4761C19.6136 6.38409 20.2796 6.03106 20.7622 5.48318C21.2449 4.9353 21.5112 4.23019 21.5112 3.50001C21.5112 2.76983 21.2449 2.06471 20.7622 1.51683C20.2796 0.968953 19.6136 0.615924 18.8893 0.523918C18.1649 0.431912 17.4318 0.607247 16.8275 1.01706C16.2232 1.42687 15.7891 2.04301 15.6065 2.75001H11.75C11.3522 2.75001 10.9707 2.90804 10.6893 3.18935C10.408 3.47065 10.25 3.85218 10.25 4.25001V10.25H6.39351C6.21096 9.54301 5.77683 8.92687 5.1725 8.51706C4.56817 8.10725 3.83512 7.93191 3.11076 8.02392C2.3864 8.11592 1.72046 8.46895 1.23777 9.01683C0.755074 9.56471 0.48877 10.2698 0.48877 11C0.48877 11.7302 0.755074 12.4353 1.23777 12.9832C1.72046 13.5311 2.3864 13.8841 3.11076 13.9761C3.83512 14.0681 4.56817 13.8928 5.1725 13.483C5.77683 13.0732 6.21096 12.457 6.39351 11.75H10.25V17.75C10.25 18.1478 10.408 18.5294 10.6893 18.8107C10.9707 19.092 11.3522 19.25 11.75 19.25H15.6065C15.7891 19.957 16.2232 20.5732 16.8275 20.983C17.4318 21.3928 18.1649 21.5681 18.8893 21.4761C19.6136 21.3841 20.2796 21.0311 20.7622 20.4832C21.2449 19.9353 21.5112 19.2302 21.5112 18.5C21.5112 17.7698 21.2449 17.0647 20.7622 16.5168C20.2796 15.969 19.6136 15.6159 18.8893 15.5239C18.1649 15.4319 17.4318 15.6072 16.8275 16.0171C16.2232 16.4269 15.7891 17.043 15.6065 17.75H11.75V11.75ZM18.5 9.50001C18.7967 9.50001 19.0867 9.58798 19.3334 9.7528C19.58 9.91763 19.7723 10.1519 19.8858 10.426C19.9994 10.7001 20.0291 11.0017 19.9712 11.2926C19.9133 11.5836 19.7704 11.8509 19.5607 12.0607C19.3509 12.2704 19.0836 12.4133 18.7926 12.4712C18.5017 12.5291 18.2001 12.4994 17.926 12.3858C17.6519 12.2723 17.4176 12.08 17.2528 11.8334C17.088 11.5867 17 11.2967 17 11C17 10.6022 17.158 10.2207 17.4393 9.93935C17.7207 9.65804 18.1022 9.50001 18.5 9.50001ZM18.5 2.00001C18.7967 2.00001 19.0867 2.08798 19.3334 2.2528C19.58 2.41763 19.7723 2.65189 19.8858 2.92598C19.9994 3.20007 20.0291 3.50167 19.9712 3.79264C19.9133 4.08361 19.7704 4.35089 19.5607 4.56067C19.3509 4.77045 19.0836 4.91331 18.7926 4.97119C18.5017 5.02906 18.2001 4.99936 17.926 4.88583C17.6519 4.7723 17.4176 4.58004 17.2528 4.33336C17.088 4.08669 17 3.79668 17 3.50001C17 3.10218 17.158 2.72065 17.4393 2.43935C17.7207 2.15804 18.1022 2.00001 18.5 2.00001ZM3.50001 12.5C3.20334 12.5 2.91333 12.412 2.66665 12.2472C2.41998 12.0824 2.22772 11.8481 2.11419 11.574C2.00066 11.2999 1.97095 10.9983 2.02883 10.7074C2.08671 10.4164 2.22957 10.1491 2.43935 9.93935C2.64913 9.72957 2.9164 9.58671 3.20737 9.52883C3.49834 9.47095 3.79994 9.50066 4.07403 9.61419C4.34812 9.72772 4.58239 9.91998 4.74721 10.1667C4.91203 10.4133 5.00001 10.7033 5.00001 11C5.00001 11.3978 4.84197 11.7794 4.56067 12.0607C4.27936 12.342 3.89783 12.5 3.50001 12.5ZM18.5 17C18.7967 17 19.0867 17.088 19.3334 17.2528C19.58 17.4176 19.7723 17.6519 19.8858 17.926C19.9994 18.2001 20.0291 18.5017 19.9712 18.7926C19.9133 19.0836 19.7704 19.3509 19.5607 19.5607C19.3509 19.7704 19.0836 19.9133 18.7926 19.9712C18.5017 20.0291 18.2001 19.9994 17.926 19.8858C17.6519 19.7723 17.4176 19.58 17.2528 19.3334C17.088 19.0867 17 18.7967 17 18.5C17 18.1022 17.158 17.7207 17.4393 17.4393C17.7207 17.158 18.1022 17 18.5 17Z" fill="#23D5D5"/>
</svg>
