<svg width="24" height="24" viewBox="0 0 24 24" fill="none" xmlns="http://www.w3.org/2000/svg">
<path d="M14.4861 3.1429C14.7414 3.21469 14.9576 3.3849 15.0874 3.61612C15.2172 3.84734 15.2498 4.12063 15.1781 4.3759L10.7481 20.1639C10.7127 20.2904 10.6526 20.4086 10.5715 20.5119C10.4903 20.6151 10.3896 20.7014 10.2751 20.7658C10.1606 20.8301 10.0346 20.8713 9.90419 20.8869C9.77378 20.9026 9.64157 20.8924 9.51511 20.8569C9.38865 20.8214 9.27041 20.7614 9.16714 20.6803C9.06387 20.5991 8.9776 20.4984 8.91325 20.3839C8.8489 20.2694 8.80773 20.1434 8.79209 20.013C8.77645 19.8826 8.78665 19.7504 8.82211 19.6239L13.2521 3.8359C13.2875 3.70931 13.3476 3.59096 13.4288 3.4876C13.51 3.38425 13.6108 3.29792 13.7254 3.23355C13.84 3.16919 13.9662 3.12805 14.0967 3.1125C14.2273 3.09694 14.3596 3.10727 14.4861 3.1429ZM7.20711 7.0499C7.39458 7.23742 7.4999 7.49173 7.4999 7.7569C7.4999 8.02206 7.39458 8.27637 7.20711 8.46389L3.67211 11.9999L7.20711 15.5349C7.30002 15.6277 7.37373 15.738 7.42404 15.8593C7.47435 15.9806 7.50027 16.1107 7.50031 16.242C7.50036 16.3734 7.47453 16.5035 7.42431 16.6248C7.37409 16.7462 7.30046 16.8565 7.20761 16.9494C7.11477 17.0423 7.00453 17.116 6.8832 17.1663C6.76187 17.2166 6.63181 17.2426 6.50046 17.2426C6.36912 17.2426 6.23904 17.2168 6.11768 17.1666C5.99631 17.1164 5.88602 17.0427 5.79311 16.9499L1.55011 12.7069C1.36264 12.5194 1.25732 12.2651 1.25732 11.9999C1.25732 11.7347 1.36264 11.4804 1.55011 11.2929L5.79311 7.0499C5.98064 6.86242 6.23495 6.75711 6.50011 6.75711C6.76528 6.75711 7.01958 6.86242 7.20711 7.0499ZM16.7931 8.46389C16.6976 8.37165 16.6214 8.2613 16.569 8.1393C16.5166 8.0173 16.489 7.88608 16.4879 7.7533C16.4867 7.62052 16.512 7.48884 16.5623 7.36594C16.6126 7.24304 16.6868 7.13139 16.7807 7.0375C16.8746 6.94361 16.9863 6.86935 17.1092 6.81907C17.2321 6.76879 17.3637 6.74349 17.4965 6.74464C17.6293 6.7458 17.7605 6.77338 17.8825 6.82579C18.0045 6.8782 18.1149 6.95439 18.2071 7.0499L22.4501 11.2929C22.6376 11.4804 22.7429 11.7347 22.7429 11.9999C22.7429 12.2651 22.6376 12.5194 22.4501 12.7069L18.2071 16.9499C18.0195 17.1374 17.765 17.2427 17.4998 17.2426C17.2345 17.2425 16.9801 17.137 16.7926 16.9494C16.6051 16.7618 16.4998 16.5073 16.4999 16.242C16.5 15.9768 16.6055 15.7224 16.7931 15.5349L20.3281 11.9999L16.7931 8.46389Z" fill="#23D5D5"/>
</svg>
