<svg width="24" height="24" viewBox="0 0 24 24" fill="none" xmlns="http://www.w3.org/2000/svg">
<path d="M22.5 14.25H19.5V11.25H18V18H6V6H12.75V4.5H9.75V1.5H8.25V4.5H6C5.60218 4.5 5.22064 4.65804 4.93934 4.93934C4.65804 5.22064 4.5 5.60218 4.5 6V8.25H1.5V9.75H4.5V14.25H1.5V15.75H4.5V18C4.5 18.3978 4.65804 18.7794 4.93934 19.0607C5.22064 19.342 5.60218 19.5 6 19.5H8.25V22.5H9.75V19.5H14.25V22.5H15.75V19.5H18C18.3976 19.4994 18.7788 19.3412 19.06 19.06C19.3412 18.7788 19.4994 18.3976 19.5 18V15.75H22.5V14.25Z" fill="#23D5D5"/>
<path d="M19.5 1.5C18.7046 1.50079 17.942 1.81712 17.3796 2.37956C16.8171 2.94199 16.5008 3.70459 16.5 4.5C16.503 5.03405 16.6499 5.55742 16.9252 6.015L14.6895 8.25H8.25V15.75H15.75V9.3105L17.985 7.0755C18.4427 7.35062 18.966 7.49727 19.5 7.5C20.2956 7.5 21.0587 7.18393 21.6213 6.62132C22.1839 6.05871 22.5 5.29565 22.5 4.5C22.5 3.70435 22.1839 2.94129 21.6213 2.37868C21.0587 1.81607 20.2956 1.5 19.5 1.5ZM14.25 14.25H9.75V9.75H14.25V14.25ZM19.5 6C19.2033 6 18.9133 5.91203 18.6666 5.7472C18.42 5.58238 18.2277 5.34811 18.1142 5.07403C18.0006 4.79994 17.9709 4.49834 18.0288 4.20736C18.0867 3.91639 18.2296 3.64912 18.4393 3.43934C18.6491 3.22956 18.9164 3.0867 19.2074 3.02882C19.4983 2.97094 19.7999 3.00065 20.074 3.11418C20.3481 3.22771 20.5824 3.41997 20.7472 3.66664C20.912 3.91332 21 4.20333 21 4.5C21 4.89782 20.842 5.27936 20.5607 5.56066C20.2794 5.84196 19.8978 6 19.5 6Z" fill="#23D5D5"/>
</svg>
