<svg width="1193" height="465" viewBox="0 0 1193 465" fill="none" xmlns="http://www.w3.org/2000/svg">
<g style="mix-blend-mode:soft-light" clip-path="url(#clip0_0_1755)">
<g style="mix-blend-mode:color-dodge">
<path d="M1192.48 476.821C1077.47 472.12 960.696 470.517 845.53 474.227C798.49 475.743 751.324 476.491 704.269 474.898C652.955 473.159 604.104 466.224 553.473 461.989C463.432 454.452 372.134 472.159 282.474 475.111C188.03 478.229 95.2862 470.129 0.603913 477.51" stroke="url(#paint0_linear_0_1755)" stroke-miterlimit="10"/>
<path d="M1192.48 466C1073.02 457.929 949.207 456.453 829.463 463.698C781.455 466.603 733.049 468.137 684.961 465.058C628.212 461.435 578.964 448.09 524.36 439.94C433.158 426.333 343.116 459.376 253.583 464.747C214.283 467.108 175.38 461.95 136.175 460.406C89.8195 458.57 45.5931 461.494 0.603913 468.516" stroke="url(#paint1_linear_0_1755)" stroke-miterlimit="10"/>
<path d="M1192.48 454.267C1069.35 443.359 942.755 444.7 819.531 454.811C771.046 458.784 722.529 460.969 673.932 456.365C648.648 453.966 623.985 449.935 599.861 444.739C567.061 437.677 536.819 424.701 504.289 418.213C412.991 400.001 326.35 446.468 239.773 454.772C200.044 458.58 163.795 450.683 124.654 447.954C81.0632 444.914 41.3659 450.12 0.588006 459.532" stroke="url(#paint2_linear_0_1755)" stroke-miterlimit="10"/>
<path d="M1192.48 441.796C1071.94 428.887 948.793 432.928 828.685 445.992C776.56 451.664 724.356 455.404 671.914 448.896C605.328 440.63 556.223 416.163 495.262 400.525C396.401 375.164 317.674 436.687 225.454 446.04C189.047 449.731 159.028 440.31 124.177 436.201C79.4423 430.927 40.7938 438.687 0.603913 450.547" stroke="url(#paint3_linear_0_1755)" stroke-miterlimit="10"/>
<path d="M1192.48 428.79C1071.84 413.657 953.513 422.613 834.66 438.998C782.376 446.205 729.95 450.149 677.206 442.174C649.824 438.037 623.953 431.286 598.971 423.36C561.578 411.501 528.492 391.686 490.972 381.089C390.123 352.601 318.166 424.439 228.458 436.366C187.632 441.796 160.474 429.868 122.826 424.011C78.0756 417.057 39.0616 428.275 0.603913 441.553" stroke="url(#paint4_linear_0_1755)" stroke-miterlimit="10"/>
<path d="M1192.48 415.454C1074.23 398.291 965.766 412.618 851.187 431.685C797.982 440.533 744.809 445.885 690.634 436.706C661.966 431.85 635.283 423.846 609.666 414.726C569.524 400.438 534.896 377.661 494.484 364.704C388.344 330.679 325.397 414.104 233.67 427.391C190.556 433.637 165.305 419.32 126.911 411.928C80.4434 402.983 39.141 417.844 0.619731 432.559" stroke="url(#paint5_linear_0_1755)" stroke-miterlimit="10"/>
<path d="M1192.48 401.972C1079.55 382.954 983.644 401.739 876.63 423.244C823.552 433.909 770.617 441.893 715.298 433.151C631.136 419.854 576.278 379.39 505.544 352.125C390.68 307.863 339.493 406.431 239.28 418.98C195.896 424.419 171.359 407.509 133.013 399.34C84.4481 388.996 39.6178 407.625 0.603913 423.545" stroke="url(#paint6_linear_0_1755)" stroke-miterlimit="10"/>
<path d="M1192.48 388.559C1082.9 366.928 998.773 391.24 898.147 415.338C843.813 428.343 788.86 438.892 730.967 428.139C645.136 412.2 589.198 368.783 518.242 338.585C397.608 287.252 358.007 396.941 254.393 409.84C210.294 415.328 183.072 396.562 145.313 387.403C91.9807 374.465 43.0187 396.485 0.603913 414.58" stroke="url(#paint7_linear_0_1755)" stroke-miterlimit="10"/>
<path d="M1192.48 375.388C1143.39 363.956 1095.47 361.324 1044.7 370.551C997.819 379.069 957.566 396.271 913.323 408.441C861.072 422.817 807.39 435.424 750.212 423.972C659.391 405.78 604.724 356.38 530.605 323.608C410.592 270.536 375.678 383.663 277.15 398.923C227.266 406.644 198.359 384.256 155.945 374.018C98.6234 360.177 45.0687 386.014 0.603913 405.586" stroke="url(#paint8_linear_0_1755)" stroke-miterlimit="10"/>
<path d="M1192.48 362.674C1148.3 350.445 1104.28 346.638 1057.62 356.195C1011.66 365.607 974.331 385.422 931.996 399.136C882.748 415.095 832.069 431.111 775.4 420.893C680.384 403.779 620.743 348.298 547.005 312.399C421.271 251.178 400.405 374.29 297.396 388.462C244.54 395.737 211.629 369.774 166.242 359.653C105.187 346.045 46.626 375.777 0.619731 396.582" stroke="url(#paint9_linear_0_1755)" stroke-miterlimit="10"/>
<path d="M1192.48 350.6C1090.37 317.09 1029.05 356.729 945.885 388.763C898.655 406.955 847.802 428.003 789.925 416.289C696.196 397.32 634.537 340.285 563.485 302.356C517.622 277.879 473.713 272.197 434.429 303.162C400.358 330.009 378.475 368.676 317.848 376.456C265.056 383.226 227.775 356.651 182.484 345.821C115.834 329.873 49.8521 364.742 0.603913 387.597" stroke="url(#paint10_linear_0_1755)" stroke-miterlimit="10"/>
<path d="M1192.48 339.372C1093.58 301.385 1031.95 340.829 953.958 376.631C912.354 395.727 865.251 422.176 809.043 413.21C774.828 407.752 744.491 392.24 718.365 378.545C668.147 352.232 626.464 321.189 578.789 293.391C533.084 266.738 488.032 256.248 448.843 291.409C419.634 317.615 397.227 358.099 338.507 363.82C282.68 369.259 241.823 339.984 192.861 329.863C122.238 315.255 51.0439 354.515 0.603913 378.584" stroke="url(#paint11_linear_0_1755)" stroke-miterlimit="10"/>
<path d="M1192.48 329.193C1153.92 312.244 1111.38 301.608 1064.41 311.933C1022.58 321.131 990.064 342.5 957.915 360.304C921.682 380.371 875.914 415.998 820.294 408.995C788.987 405.051 761.447 390.404 738.055 377.933C686.423 350.396 641.163 318.499 594.744 287.815C551.296 259.084 503.145 238.415 462.621 278.404C435.335 305.318 414.152 347.89 352.27 349.386C297.348 350.717 256.078 323.909 206.575 314.021C130.645 298.859 53.6183 343.422 0.588006 369.599" stroke="url(#paint12_linear_0_1755)" stroke-miterlimit="10"/>
<path d="M1192.48 319.849C1152.91 301.006 1108.82 288.496 1058.84 299.355C1016.67 308.514 981.737 329.397 950.557 348.172C918.139 367.705 874.627 406.071 821.549 399.525C791.848 395.863 765.722 381.187 743.823 369.279C693.749 342.034 649.03 310.971 603.786 280.832C562.357 253.237 513.697 228.081 472.601 267.885C445.712 293.925 425.292 335.487 364.57 336.002C310.125 336.458 264.723 312.302 213.885 304.027C134.761 291.138 57.4324 333.389 0.603913 360.382" stroke="url(#paint13_linear_0_1755)" stroke-miterlimit="10"/>
<path d="M1192.48 309.437C1148.82 288.447 1102.24 277.161 1048.88 291.73C1004.75 303.784 966.099 326.59 931.948 346.783C901.309 364.908 863.344 395.494 815.034 385.966C785.555 380.147 759.922 364.607 737.928 352.116C693.844 327.085 652.876 299.976 611.287 273.421C571.653 248.099 523.565 223.467 480.96 258.774C450.655 283.892 431.362 324.065 370.863 325.9C316.974 327.532 264.866 305.804 212.916 299.976C134.348 291.157 61.2781 324.259 0.588006 349.765" stroke="url(#paint14_linear_0_1755)" stroke-miterlimit="10"/>
<path d="M1192.48 297.869C1145.53 275.975 1097.7 266.35 1042.86 283.639C1000.84 296.878 962.063 318.198 927.499 337.653C895.286 355.787 855.732 387.034 807.056 373.203C781.645 365.986 760.732 352.242 740.772 340.615C698.786 316.139 659.073 290.186 618.073 265.107C575.658 239.163 527.602 219.048 483.598 253.538C453.309 277.287 431.489 314.672 374.057 316.226C321.217 317.664 268.727 302.191 217.159 297.043C137.558 289.098 66.8879 313.905 0.588006 337.808" stroke="url(#paint15_linear_0_1755)" stroke-miterlimit="10"/>
<path d="M1192.48 285.358C1138.33 261.484 1086.69 256.083 1029.03 278.297C987.601 294.255 949.302 315.876 912.227 335.37C881.27 351.649 846.451 377.204 803.131 362.402C779.929 354.476 760.621 340.343 742.139 328.911C702.791 304.561 664.476 279.618 623.985 255.967C582.031 231.461 534.006 213.773 489.351 244.738C456.01 267.855 432.92 304.726 375.63 308.067C325.143 311.01 270.126 298.947 220.464 294.246C141.102 286.737 71.2739 303.881 0.619731 324.812" stroke="url(#paint16_linear_0_1755)" stroke-miterlimit="10"/>
<path d="M1192.48 272.139C1133.82 248.021 1079.88 245.438 1021.1 270.672C976.747 289.71 936.891 313.769 894.714 334.632C865.712 348.969 833.627 368.628 797.378 352.154C773.414 341.266 753.851 324.861 733.955 311.496C700.312 288.913 665.827 266.631 628.816 246.098C583.461 220.932 534.276 209.043 488.604 239.377C455.168 261.581 429.551 296.237 374.613 299.996C322.616 303.551 266.391 295.207 214.887 290.885C139.147 284.533 71.7348 294.877 0.603913 310.971" stroke="url(#paint17_linear_0_1755)" stroke-miterlimit="10"/>
<path d="M1192.48 258.414C1125.6 232.859 1068.76 235.579 1007.37 265.534C960.792 288.262 921.094 314.711 872.545 336.157C839.237 350.863 815.224 359.167 784.824 338.673C733.16 303.842 691.317 264.145 630.786 234.112C586.353 212.074 537.471 203.856 493.197 229.509C455.788 251.178 430.615 284.445 376.616 292.254C326.764 299.452 264.198 292.352 214.076 288.175C140.101 282.007 73.3399 285.63 0.588006 296.586" stroke="url(#paint18_linear_0_1755)" stroke-miterlimit="10"/>
<path d="M1192.48 244.418C1117.59 217.717 1056.62 226.39 993.481 260.571C948.253 285.057 910.638 313.409 859.308 333.525C821.629 348.298 801.796 350.911 776.02 327.386C735.178 290.117 694.067 252.023 634.568 224.535C586.464 202.302 537.725 197.31 490.717 222.942C451.576 244.292 423.718 278.637 368.368 286.193C319.279 292.895 261.989 289.71 212.503 285.591C140.657 279.608 73.165 276.908 0.588006 281.852" stroke="url(#paint19_linear_0_1755)" stroke-miterlimit="10"/>
<path d="M1192.48 230.373C1110.86 202.837 1047 216.406 982.309 254.082C936.525 280.745 898.783 313.312 842.415 332.214C800.572 346.249 785.888 338.955 765.929 314.895C734.177 276.636 694.019 237.968 635.204 213.045C585.416 191.939 535.055 191.288 488.286 215.541C447.492 236.706 417.775 270.157 363.124 279.54C245.907 299.665 118.345 269.584 0.588006 267.088" stroke="url(#paint20_linear_0_1755)" stroke-miterlimit="10"/>
<path d="M1192.48 216.493C1151.87 203.274 1113.7 195.425 1068.27 205.051C1030.68 213.016 999.901 229.732 972.329 246.759C926.847 274.868 887.96 312.691 827.366 329.397C781.916 341.927 771.157 325.045 755.821 301.491C730.824 263.067 693.081 223.7 634.108 201.205C505.576 152.164 459.189 251.392 356.926 272.906C237.5 298.034 117.376 266.33 0.588006 252.509" stroke="url(#paint21_linear_0_1755)" stroke-miterlimit="10"/>
<path d="M1192.48 203.002C1150.12 189.306 1111.09 181.672 1064.83 192.075C1026.03 200.797 994.657 218.62 966.544 236.677C922.334 265.068 876.614 314.215 810.663 325.521C764.498 333.438 757.22 307.038 745.524 285.786C725.055 248.585 689.776 207.567 630.754 187.888C508.23 147.035 446.523 238.891 354.018 264.854C232.653 298.918 115.135 263.99 0.603913 238.367" stroke="url(#paint22_linear_0_1755)" stroke-miterlimit="10"/>
<path d="M1192.48 190.132C1149.71 175.912 1111.19 168.19 1064.12 178.263C1025.09 186.616 993.195 205.255 965.448 223.418C920.427 252.897 872.164 308.893 802.161 317.246C754.582 322.928 747.907 293.877 737.514 272.061C719.668 234.637 687.535 193.211 625.86 175.805C503.161 141.178 436.988 229.363 346.485 257.88C299.366 272.722 238.358 280.327 185.868 275.16C119.33 268.613 58.4812 244.515 0.588006 224.963" stroke="url(#paint23_linear_0_1755)" stroke-miterlimit="10"/>
<path d="M1192.48 178.088C1146.93 161.993 1102.91 152.718 1052.49 166.627C1014.65 177.068 984.629 196.261 957.502 214.89C916.851 242.806 865.617 301.618 797.235 306.028C745.762 309.349 739.262 274.994 728.234 251.8C711.182 215.949 680.479 177.515 618.677 163.684C496.899 136.419 426.483 218.173 338.619 250.12C294.217 266.263 236.181 277.316 184.247 273.363C114.674 268.059 54.4606 237.289 0.619731 212.472" stroke="url(#paint24_linear_0_1755)" stroke-miterlimit="10"/>
<path d="M1192.48 167.102C1149.47 150.357 1107.14 138.702 1056.33 151.241C1015.62 161.294 983.199 182.634 955.23 202.574C915.246 231.082 864.965 289.612 793.93 290.642C743.283 291.371 733.907 256.52 721.956 233.248C703.474 197.29 674.25 162.411 609.428 152.242C485.298 132.757 416.376 207.509 327.558 243.369C284.079 260.93 226.09 275.412 173.123 270.74C103.852 264.621 48.1993 229.431 0.603913 201.205" stroke="url(#paint25_linear_0_1755)" stroke-miterlimit="10"/>
<path d="M1192.48 157.399C1153 139.906 1112 125.249 1061.8 135.525C1022.67 143.529 991.86 163.13 965.527 181.72C922.397 212.161 879.013 266.311 804.768 269.769C748.321 272.391 733.653 238.862 717.411 212.336C695.259 176.145 664.381 145.501 596.54 139.896C476.272 129.96 406.969 193.162 323.41 232.947C281.52 252.888 224.803 271.983 169.993 268.72C97.2886 264.388 43.7815 223.069 0.603913 191.395" stroke="url(#paint26_linear_0_1755)" stroke-miterlimit="10"/>
<path d="M1192.48 149.745C1153.19 132.99 1112.68 119.198 1063.48 128.989C1025.17 136.613 994.673 155.35 968.658 173.377C926.752 202.4 882.398 258.113 810.282 259.638C754.518 260.814 735.432 230.626 715.441 204.09C689.808 170.084 655.116 138.954 589.325 133.525C473.268 123.948 400.771 182.993 318.405 220.757C277.992 239.28 220.989 258.123 169.087 257.501C96.5258 256.627 42.7803 214.444 0.603913 183.653" stroke="url(#paint27_linear_0_1755)" stroke-miterlimit="10"/>
<path d="M1192.48 144.51C1153.81 128.338 1113.89 114.924 1065.66 123.841C1028.39 130.727 998.344 148.269 972.742 165.442C931.503 193.114 887.341 248.245 817.56 248.507C762.846 248.711 739.548 222.097 715.663 196.173C686.486 164.509 648.187 134.127 584.732 128.804C472.871 119.431 397.306 172.386 314.892 207.635C274.877 224.749 218.494 243.845 168.976 246.545C96.7799 250.479 42.1604 207.878 0.619731 178.195" stroke="url(#paint28_linear_0_1755)" stroke-miterlimit="10"/>
<path d="M1192.48 141.266C1155.38 125.774 1115.73 112.379 1069.41 119.567C1029.92 125.686 998.55 143.937 971.661 161.605C930.788 188.461 889.804 238.347 821.517 236.492C769.854 235.093 743.521 211.122 716.537 187.529C683.403 158.545 643.404 131.368 582.73 126.104C472.553 116.537 395.368 162.314 309.648 194.969C270.046 210.063 219.797 227.964 174.172 235.181C100.213 246.875 43.8927 204.517 0.603913 174.601" stroke="url(#paint29_linear_0_1755)" stroke-miterlimit="10"/>
<path d="M1192.48 139.595C1156.4 124.336 1117.59 110.651 1072.03 116.313C1034.1 121.034 1003.27 137.274 976.842 153.582C935.397 179.147 896.812 225.06 830.655 223.263C780.469 221.903 750.291 201.72 719.589 179.972C682.799 153.922 640.337 129.173 581.999 123.987C476.478 114.604 395.622 151.202 308.901 180.322C265.867 194.775 220.607 212.443 175.428 224.137C102.692 242.971 45.5136 202.215 0.619731 172.484" stroke="url(#paint30_linear_0_1755)" stroke-miterlimit="10"/>
<path d="M1192.48 139.08C1116.58 106.192 1050.93 106.357 982.007 145.355C939.688 169.297 903.725 210.393 839.888 208.995C791.339 207.926 757.585 191.569 723.371 172.367C683.054 149.745 638.637 127.862 582.619 122.772C482.072 113.632 396.941 140.1 309.442 165.208C261.274 179.03 222.308 196.368 177.446 213.181C106.601 239.726 48.7714 201.826 0.588006 171.473" stroke="url(#paint31_linear_0_1755)" stroke-miterlimit="10"/>
<path d="M1192.48 139.304C1121.84 107.678 1056.82 101.54 986.87 136.74C943.438 158.594 909.986 194.396 848.74 193.658C746.763 192.434 683.96 131.388 584.287 122.18C488.81 113.36 399.118 128.998 311.301 149.716C257.619 162.382 223.818 180.322 180.275 202.205C111.972 236.531 53.9203 202.953 0.603913 171.124" stroke="url(#paint32_linear_0_1755)" stroke-miterlimit="10"/>
<path d="M1192.48 139.848C1127.88 109.757 1063.37 97.0134 992.813 126.823C949.191 145.248 917.201 176.038 860.833 177.223C759.477 179.37 684.055 130.844 586.782 121.568C498.028 113.108 403.17 117.799 317.546 133.495C256.586 144.675 225.454 165.004 182.484 192.143C166.433 202.283 148.38 212.841 124.273 214.434C76.3116 217.591 31.4496 188.539 0.603913 171.094" stroke="url(#paint33_linear_0_1755)" stroke-miterlimit="10"/>
<path d="M1192.48 140.295C1132.37 111.175 1068.17 92.6718 996.039 117.051C951.416 132.136 920.379 157.739 867.158 159.633C768.137 163.159 684.722 130.727 589.468 121.684C504.019 113.574 407.191 106.814 321.853 118.003C256.205 126.609 226.678 150.61 186.885 181.283C171.645 193.036 154.387 206.557 129.199 210.248C80.5388 217.377 32.5301 188.073 0.619731 170.988" stroke="url(#paint34_linear_0_1755)" stroke-miterlimit="10"/>
<path d="M1192.48 140.217C1133.82 110.689 1068.63 87.8346 993.115 107.533C951.94 118.275 921.301 137.963 875.485 140.702C777.021 146.598 687.487 130.601 591.343 121.976C540.681 117.43 490.765 112.923 440.532 106.736C401.486 101.928 363.537 99.432 323.84 102.909C255.251 108.912 226.281 138.867 190.715 171.502C176.477 184.566 159.361 200.787 133.49 205.984C83.9078 215.949 34.4531 187.587 0.603913 170.366" stroke="url(#paint35_linear_0_1755)" stroke-miterlimit="10"/>
<path d="M1192.48 139.207C1135.98 109.854 1070.76 82.6576 993.544 95.2359C952.607 101.909 919.569 117.43 877.027 120.713C779.977 128.192 690.062 129.892 593.091 121.636C541.745 117.265 493.61 110.825 444.632 100.452C406.921 92.4677 370.736 85.9212 330.308 87.6695C258.318 90.7777 229.078 126.162 196.579 160.527C182.738 175.164 166.02 193.998 139.195 201.117C88.6595 214.531 36.5827 186.344 0.572285 168.89" stroke="url(#paint36_linear_0_1755)" stroke-miterlimit="10"/>
<path d="M1192.48 136.846C1136.78 107.222 1071.81 76.9658 993.671 81.5503C951.718 84.0077 913.323 96.1295 871.671 99.8787C776.465 108.455 692.716 128.027 594.919 120.733C543.176 116.867 496.677 108.611 450.051 94.488C414.93 83.8523 381.463 73.0903 341.225 72.7795C263.006 72.1967 233.464 113.953 201.967 150.785C188.363 166.694 172.011 187.393 144.296 195.921C92.8707 211.753 38.6485 183.867 0.603913 166.121" stroke="url(#paint37_linear_0_1755)" stroke-miterlimit="10"/>
<path d="M1192.48 132.718C1135.63 102.132 1070.49 69.9044 991.59 66.7185C949.048 64.9993 904.265 72.7308 862.867 77.9759C769.758 89.7674 692.239 125.638 593.361 119.11C542.524 115.759 497.63 105.648 455.009 88.5922C420.619 74.8288 389.106 60.0748 346.406 58.5499C266.487 55.704 237.214 104.201 208.053 141.003C194.196 158.477 178.288 179.613 149.715 189.957C98.401 208.528 39.2364 179.185 0.603913 161.702" stroke="url(#paint38_linear_0_1755)" stroke-miterlimit="10"/>
<path d="M1192.48 126.386C1095.2 74.1686 992.686 33.9082 860.261 53.4702C765.992 67.3986 693.383 121.568 591.105 116.459C539.282 113.866 495.628 101.151 456.201 81.0162C425.323 65.2521 397.815 47.9629 355.686 45.1753C275.338 39.8623 245.891 89.5345 218.351 126.289C203.317 146.346 187.044 171.435 154.419 183.382C101.818 202.642 40.7302 173.047 0.619731 155.214" stroke="url(#paint39_linear_0_1755)" stroke-miterlimit="10"/>
<path d="M1192.48 117.78C1098.87 68.9041 978.463 14.8415 847.516 37.2591C755.599 52.9942 686.153 112.914 585.129 109.747C534.61 108.164 491.687 93.3711 456.026 72.4105C427.739 55.7915 402.455 37.0455 360.851 34.2287C283.777 28.9934 252.407 78.0246 225.248 112.885C208.991 133.738 191.955 159.264 158.519 172.095C104.98 192.638 43.1457 164.587 0.619731 146.482" stroke="url(#paint40_linear_0_1755)" stroke-miterlimit="10"/>
<path d="M1192.48 108.786C1098.54 61.9883 975.221 10.3152 846.34 29.7218C751.61 43.9804 676.57 103.443 574.005 99.3737C527.522 97.5282 488.572 83.726 455.931 64.2612C429.884 48.7301 407.048 31.033 369.019 27.2352C293.169 19.6591 255.696 69.9238 226.265 103.259C209.356 122.393 191.017 144.568 160.331 156.913C106.665 178.505 46.2764 154.602 0.603913 136.633" stroke="url(#paint41_linear_0_1755)" stroke-miterlimit="10"/>
<path d="M1192.48 99.7914C1096.76 54.6454 967.434 4.72059 839.507 24.6128C746.493 39.0755 666.876 93.3517 566.505 90.0201C523.708 88.602 486.236 74.6639 456.312 56.928C432.332 42.7178 410.989 25.7881 376.536 21.3298C301.877 11.6751 258.938 62.3284 226.424 93.9539C206.877 112.962 186.441 133.884 152.877 144.636C99.7677 161.644 46.9439 142.869 0.603913 126.055" stroke="url(#paint42_linear_0_1755)" stroke-miterlimit="10"/>
<path d="M1192.48 90.7971C1093.69 47.0594 961.221 1.12666 833.42 20.475C741.297 34.4228 658.295 84.6779 559.465 80.5498C519.656 78.8889 485.632 66.6603 457.186 50.3133C433.269 36.5694 411.784 19.8145 377.617 15.9584C306.629 7.93548 260.384 55.5 225.741 84.9693C205.86 101.88 184.788 119.13 154.483 129.377C101.754 147.191 48.6125 130.883 0.603913 114.876" stroke="url(#paint43_linear_0_1755)" stroke-miterlimit="10"/>
<path d="M1192.48 81.8028C1093.01 40.8625 964.669 1.34034 839.952 15.7059C743.426 26.8272 656.197 76.1304 554.824 71.7887C516.382 70.1375 483.646 58.1517 455.645 42.7468C432.745 30.1394 411.943 15.6087 380.207 11.9469C314.511 4.36108 265.597 45.3305 229.491 72.0995C205.86 89.6315 180.036 108.873 144.677 117.838C94.6824 130.513 45.4659 116.974 0.588006 103.239" stroke="url(#paint44_linear_0_1755)" stroke-miterlimit="10"/>
<path d="M1192.48 72.8087C1090.53 34.2869 959.536 -1.05865 835.979 13.3846C741.789 24.3991 650.269 68.1465 551.757 63.7076C480.213 60.4829 448.986 17.6194 384.498 8.93602C319.66 0.213752 266.868 38.8132 227.012 63.795C203.047 78.821 178.034 94.6047 145.679 102.764C95.5881 115.39 46.9756 104.191 0.619731 91.2731" stroke="url(#paint45_linear_0_1755)" stroke-miterlimit="10"/>
<path d="M1192.48 63.8145C1087.85 28.061 959.33 -0.961462 836.932 11.0729C741.98 20.4071 648.776 60.0653 550.454 55.5682C482.915 52.4794 446.809 13.9674 384.466 6.49812C323.681 -0.776914 271.381 29.8676 229.634 52.2561C203.858 66.0874 177.335 80.5986 144.868 88.2816C95.1432 100.054 47.5795 91.0206 0.588006 79.1416" stroke="url(#paint46_linear_0_1755)" stroke-miterlimit="10"/>
<path d="M1192.48 54.8202C1086.27 22.6508 959.187 -1.10721 838.998 9.3634C743.982 17.6389 648.569 51.9452 551.058 47.6229C486.252 44.7479 444.33 11.3351 383.131 4.53604C322.759 -2.17564 267.774 25.5161 222.626 45.7483C198.105 56.7337 172.551 67.8454 143.629 74.1005C93.7765 84.882 48.2788 77.772 0.603913 66.9712" stroke="url(#paint47_linear_0_1755)" stroke-miterlimit="10"/>
<path d="M1192.48 45.826C1085.14 17.7748 959.838 -1.01012 842.018 7.88698C746.843 15.0746 650.539 43.7571 553.553 39.833C489.907 37.2591 441.247 9.31479 379.842 3.22474C323.172 -2.38937 269.744 18.513 223.373 35.5302C147.999 63.1928 85.7989 71.9248 0.603913 54.8785" stroke="url(#paint48_linear_0_1755)" stroke-miterlimit="10"/>
<path d="M1192.48 36.8316C1084.51 13.3942 965.654 0.485599 850.679 6.42024C753.517 11.4419 656.896 34.889 558.734 31.878C492.895 29.8577 436.479 6.02201 371.673 1.9814C318.134 -1.35987 267.599 13.5107 220.496 27.1089C144.948 48.934 82.6682 57.1707 0.603913 43.0382" stroke="url(#paint49_linear_0_1755)" stroke-miterlimit="10"/>
<path d="M1192.48 27.8375C1082.57 9.20797 965.225 0.534267 851.108 5.47818C755.869 9.60621 660.265 26.9439 564.391 24.4282C497.058 22.6605 434.223 5.15765 367.414 1.56384C311.19 -1.4569 258.398 10.5289 206.114 21.5823C135.889 36.4335 74.0073 41.9602 0.603913 31.5867" stroke="url(#paint50_linear_0_1755)" stroke-miterlimit="10"/>
<path d="M1192.48 18.8531C1084.17 6.03193 971.979 0.971454 861.676 3.98248C765.627 6.60499 669.689 18.1052 573.37 16.5511C499.633 15.3661 427.691 3.35114 354.113 1.01031C301.607 -0.66033 250.849 6.73126 200.044 13.9092C132.377 23.4668 69.653 27.9153 0.603913 20.6403" stroke="url(#paint51_linear_0_1755)" stroke-miterlimit="10"/>
<path d="M1192.48 9.85888C1085.03 3.05978 976.493 0.971483 868.493 2.45757C773.541 3.76883 678.636 9.54806 583.604 8.77102C502.779 8.11054 422.368 1.93307 341.575 0.709232C226.98 -1.02939 115.548 17.4253 0.603913 10.3542" stroke="url(#paint52_linear_0_1755)" stroke-miterlimit="10"/>
<path d="M1192.48 0.864492C795.201 -0.475902 397.879 2.33115 0.603913 0.864492" stroke="url(#paint53_linear_0_1755)" stroke-miterlimit="10"/>
</g>
</g>
<defs>
<linearGradient id="paint0_linear_0_1755" x1="596.54" y1="460.137" x2="596.54" y2="477.51" gradientUnits="userSpaceOnUse">
<stop stop-color="#23D5D5"/>
<stop offset="1" stop-color="#1EB2B2"/>
</linearGradient>
<linearGradient id="paint1_linear_0_1755" x1="596.54" y1="436.68" x2="596.54" y2="468.516" gradientUnits="userSpaceOnUse">
<stop stop-color="#23D5D5"/>
<stop offset="1" stop-color="#1EB2B2"/>
</linearGradient>
<linearGradient id="paint2_linear_0_1755" x1="596.532" y1="414.017" x2="596.532" y2="459.532" gradientUnits="userSpaceOnUse">
<stop stop-color="#23D5D5"/>
<stop offset="1" stop-color="#1EB2B2"/>
</linearGradient>
<linearGradient id="paint3_linear_0_1755" x1="596.54" y1="394.44" x2="596.54" y2="452.332" gradientUnits="userSpaceOnUse">
<stop stop-color="#23D5D5"/>
<stop offset="1" stop-color="#1EB2B2"/>
</linearGradient>
<linearGradient id="paint4_linear_0_1755" x1="596.54" y1="374.461" x2="596.54" y2="446.58" gradientUnits="userSpaceOnUse">
<stop stop-color="#23D5D5"/>
<stop offset="1" stop-color="#1EB2B2"/>
</linearGradient>
<linearGradient id="paint5_linear_0_1755" x1="596.548" y1="356.61" x2="596.548" y2="441.486" gradientUnits="userSpaceOnUse">
<stop stop-color="#23D5D5"/>
<stop offset="1" stop-color="#1EB2B2"/>
</linearGradient>
<linearGradient id="paint6_linear_0_1755" x1="596.54" y1="340.772" x2="596.54" y2="436.882" gradientUnits="userSpaceOnUse">
<stop stop-color="#23D5D5"/>
<stop offset="1" stop-color="#1EB2B2"/>
</linearGradient>
<linearGradient id="paint7_linear_0_1755" x1="596.54" y1="324.994" x2="596.54" y2="432.579" gradientUnits="userSpaceOnUse">
<stop stop-color="#23D5D5"/>
<stop offset="1" stop-color="#1EB2B2"/>
</linearGradient>
<linearGradient id="paint8_linear_0_1755" x1="596.54" y1="309.543" x2="596.54" y2="428.426" gradientUnits="userSpaceOnUse">
<stop stop-color="#23D5D5"/>
<stop offset="1" stop-color="#1EB2B2"/>
</linearGradient>
<linearGradient id="paint9_linear_0_1755" x1="596.548" y1="295.437" x2="596.548" y2="424.108" gradientUnits="userSpaceOnUse">
<stop stop-color="#23D5D5"/>
<stop offset="1" stop-color="#1EB2B2"/>
</linearGradient>
<linearGradient id="paint10_linear_0_1755" x1="596.54" y1="281.928" x2="596.54" y2="419.671" gradientUnits="userSpaceOnUse">
<stop stop-color="#23D5D5"/>
<stop offset="1" stop-color="#1EB2B2"/>
</linearGradient>
<linearGradient id="paint11_linear_0_1755" x1="596.54" y1="268.988" x2="596.54" y2="415.011" gradientUnits="userSpaceOnUse">
<stop stop-color="#23D5D5"/>
<stop offset="1" stop-color="#1EB2B2"/>
</linearGradient>
<linearGradient id="paint12_linear_0_1755" x1="596.532" y1="256.167" x2="596.532" y2="409.893" gradientUnits="userSpaceOnUse">
<stop stop-color="#23D5D5"/>
<stop offset="1" stop-color="#1EB2B2"/>
</linearGradient>
<linearGradient id="paint13_linear_0_1755" x1="596.54" y1="247.213" x2="596.54" y2="400.267" gradientUnits="userSpaceOnUse">
<stop stop-color="#23D5D5"/>
<stop offset="1" stop-color="#1EB2B2"/>
</linearGradient>
<linearGradient id="paint14_linear_0_1755" x1="596.532" y1="241.182" x2="596.532" y2="387.763" gradientUnits="userSpaceOnUse">
<stop stop-color="#23D5D5"/>
<stop offset="1" stop-color="#1EB2B2"/>
</linearGradient>
<linearGradient id="paint15_linear_0_1755" x1="596.532" y1="235.198" x2="596.532" y2="376.635" gradientUnits="userSpaceOnUse">
<stop stop-color="#23D5D5"/>
<stop offset="1" stop-color="#1EB2B2"/>
</linearGradient>
<linearGradient id="paint16_linear_0_1755" x1="596.548" y1="228.219" x2="596.548" y2="366.848" gradientUnits="userSpaceOnUse">
<stop stop-color="#23D5D5"/>
<stop offset="1" stop-color="#1EB2B2"/>
</linearGradient>
<linearGradient id="paint17_linear_0_1755" x1="596.54" y1="221.356" x2="596.54" y2="358.412" gradientUnits="userSpaceOnUse">
<stop stop-color="#23D5D5"/>
<stop offset="1" stop-color="#1EB2B2"/>
</linearGradient>
<linearGradient id="paint18_linear_0_1755" x1="596.532" y1="213.609" x2="596.532" y2="350.917" gradientUnits="userSpaceOnUse">
<stop stop-color="#23D5D5"/>
<stop offset="1" stop-color="#1EB2B2"/>
</linearGradient>
<linearGradient id="paint19_linear_0_1755" x1="596.532" y1="205.705" x2="596.532" y2="344.848" gradientUnits="userSpaceOnUse">
<stop stop-color="#23D5D5"/>
<stop offset="1" stop-color="#1EB2B2"/>
</linearGradient>
<linearGradient id="paint20_linear_0_1755" x1="596.532" y1="197.276" x2="596.532" y2="339.312" gradientUnits="userSpaceOnUse">
<stop stop-color="#23D5D5"/>
<stop offset="1" stop-color="#1EB2B2"/>
</linearGradient>
<linearGradient id="paint21_linear_0_1755" x1="596.532" y1="187.754" x2="596.532" y2="333.653" gradientUnits="userSpaceOnUse">
<stop stop-color="#23D5D5"/>
<stop offset="1" stop-color="#1EB2B2"/>
</linearGradient>
<linearGradient id="paint22_linear_0_1755" x1="596.54" y1="177.567" x2="596.54" y2="326.959" gradientUnits="userSpaceOnUse">
<stop stop-color="#23D5D5"/>
<stop offset="1" stop-color="#1EB2B2"/>
</linearGradient>
<linearGradient id="paint23_linear_0_1755" x1="596.532" y1="167.869" x2="596.532" y2="317.968" gradientUnits="userSpaceOnUse">
<stop stop-color="#23D5D5"/>
<stop offset="1" stop-color="#1EB2B2"/>
</linearGradient>
<linearGradient id="paint24_linear_0_1755" x1="596.548" y1="158.207" x2="596.548" y2="306.252" gradientUnits="userSpaceOnUse">
<stop stop-color="#23D5D5"/>
<stop offset="1" stop-color="#1EB2B2"/>
</linearGradient>
<linearGradient id="paint25_linear_0_1755" x1="596.54" y1="145.97" x2="596.54" y2="290.653" gradientUnits="userSpaceOnUse">
<stop stop-color="#23D5D5"/>
<stop offset="1" stop-color="#1EB2B2"/>
</linearGradient>
<linearGradient id="paint26_linear_0_1755" x1="596.54" y1="132.123" x2="596.54" y2="269.914" gradientUnits="userSpaceOnUse">
<stop stop-color="#23D5D5"/>
<stop offset="1" stop-color="#1EB2B2"/>
</linearGradient>
<linearGradient id="paint27_linear_0_1755" x1="596.54" y1="125.725" x2="596.54" y2="259.672" gradientUnits="userSpaceOnUse">
<stop stop-color="#23D5D5"/>
<stop offset="1" stop-color="#1EB2B2"/>
</linearGradient>
<linearGradient id="paint28_linear_0_1755" x1="596.548" y1="120.99" x2="596.548" y2="248.508" gradientUnits="userSpaceOnUse">
<stop stop-color="#23D5D5"/>
<stop offset="1" stop-color="#1EB2B2"/>
</linearGradient>
<linearGradient id="paint29_linear_0_1755" x1="596.54" y1="117.572" x2="596.54" y2="237.172" gradientUnits="userSpaceOnUse">
<stop stop-color="#23D5D5"/>
<stop offset="1" stop-color="#1EB2B2"/>
</linearGradient>
<linearGradient id="paint30_linear_0_1755" x1="596.548" y1="115.008" x2="596.548" y2="228.929" gradientUnits="userSpaceOnUse">
<stop stop-color="#23D5D5"/>
<stop offset="1" stop-color="#1EB2B2"/>
</linearGradient>
<linearGradient id="paint31_linear_0_1755" x1="596.532" y1="115.206" x2="596.532" y2="222.154" gradientUnits="userSpaceOnUse">
<stop stop-color="#23D5D5"/>
<stop offset="1" stop-color="#1EB2B2"/>
</linearGradient>
<linearGradient id="paint32_linear_0_1755" x1="596.54" y1="112.856" x2="596.54" y2="216.645" gradientUnits="userSpaceOnUse">
<stop stop-color="#23D5D5"/>
<stop offset="1" stop-color="#1EB2B2"/>
</linearGradient>
<linearGradient id="paint33_linear_0_1755" x1="596.54" y1="109.863" x2="596.54" y2="214.671" gradientUnits="userSpaceOnUse">
<stop stop-color="#23D5D5"/>
<stop offset="1" stop-color="#1EB2B2"/>
</linearGradient>
<linearGradient id="paint34_linear_0_1755" x1="596.548" y1="105.762" x2="596.548" y2="211.345" gradientUnits="userSpaceOnUse">
<stop stop-color="#23D5D5"/>
<stop offset="1" stop-color="#1EB2B2"/>
</linearGradient>
<linearGradient id="paint35_linear_0_1755" x1="596.54" y1="100.167" x2="596.54" y2="208.052" gradientUnits="userSpaceOnUse">
<stop stop-color="#23D5D5"/>
<stop offset="1" stop-color="#1EB2B2"/>
</linearGradient>
<linearGradient id="paint36_linear_0_1755" x1="596.524" y1="87.3845" x2="596.524" y2="204.623" gradientUnits="userSpaceOnUse">
<stop stop-color="#23D5D5"/>
<stop offset="1" stop-color="#1EB2B2"/>
</linearGradient>
<linearGradient id="paint37_linear_0_1755" x1="596.54" y1="72.7734" x2="596.54" y2="200.611" gradientUnits="userSpaceOnUse">
<stop stop-color="#23D5D5"/>
<stop offset="1" stop-color="#1EB2B2"/>
</linearGradient>
<linearGradient id="paint38_linear_0_1755" x1="596.54" y1="58.4302" x2="596.54" y2="195.897" gradientUnits="userSpaceOnUse">
<stop stop-color="#23D5D5"/>
<stop offset="1" stop-color="#1EB2B2"/>
</linearGradient>
<linearGradient id="paint39_linear_0_1755" x1="596.548" y1="44.7822" x2="596.548" y2="189.656" gradientUnits="userSpaceOnUse">
<stop stop-color="#23D5D5"/>
<stop offset="1" stop-color="#1EB2B2"/>
</linearGradient>
<linearGradient id="paint40_linear_0_1755" x1="596.548" y1="32.0378" x2="596.548" y2="179.306" gradientUnits="userSpaceOnUse">
<stop stop-color="#23D5D5"/>
<stop offset="1" stop-color="#1EB2B2"/>
</linearGradient>
<linearGradient id="paint41_linear_0_1755" x1="596.54" y1="25.5298" x2="596.54" y2="165.48" gradientUnits="userSpaceOnUse">
<stop stop-color="#23D5D5"/>
<stop offset="1" stop-color="#1EB2B2"/>
</linearGradient>
<linearGradient id="paint42_linear_0_1755" x1="596.54" y1="20.1172" x2="596.54" y2="151.335" gradientUnits="userSpaceOnUse">
<stop stop-color="#23D5D5"/>
<stop offset="1" stop-color="#1EB2B2"/>
</linearGradient>
<linearGradient id="paint43_linear_0_1755" x1="596.54" y1="15.0601" x2="596.54" y2="137.132" gradientUnits="userSpaceOnUse">
<stop stop-color="#23D5D5"/>
<stop offset="1" stop-color="#1EB2B2"/>
</linearGradient>
<linearGradient id="paint44_linear_0_1755" x1="596.532" y1="11.0256" x2="596.532" y2="122.891" gradientUnits="userSpaceOnUse">
<stop stop-color="#23D5D5"/>
<stop offset="1" stop-color="#1EB2B2"/>
</linearGradient>
<linearGradient id="paint45_linear_0_1755" x1="596.548" y1="7.67773" x2="596.548" y2="108.296" gradientUnits="userSpaceOnUse">
<stop stop-color="#23D5D5"/>
<stop offset="1" stop-color="#1EB2B2"/>
</linearGradient>
<linearGradient id="paint46_linear_0_1755" x1="596.532" y1="5.40649" x2="596.532" y2="93.7843" gradientUnits="userSpaceOnUse">
<stop stop-color="#23D5D5"/>
<stop offset="1" stop-color="#1EB2B2"/>
</linearGradient>
<linearGradient id="paint47_linear_0_1755" x1="596.54" y1="3.51123" x2="596.54" y2="79.4548" gradientUnits="userSpaceOnUse">
<stop stop-color="#23D5D5"/>
<stop offset="1" stop-color="#1EB2B2"/>
</linearGradient>
<linearGradient id="paint48_linear_0_1755" x1="596.54" y1="2.29346" x2="596.54" y2="63.598" gradientUnits="userSpaceOnUse">
<stop stop-color="#23D5D5"/>
<stop offset="1" stop-color="#1EB2B2"/>
</linearGradient>
<linearGradient id="paint49_linear_0_1755" x1="596.54" y1="1.50537" x2="596.54" y2="50.041" gradientUnits="userSpaceOnUse">
<stop stop-color="#23D5D5"/>
<stop offset="1" stop-color="#1EB2B2"/>
</linearGradient>
<linearGradient id="paint50_linear_0_1755" x1="596.54" y1="1.09009" x2="596.54" y2="36.9176" gradientUnits="userSpaceOnUse">
<stop stop-color="#23D5D5"/>
<stop offset="1" stop-color="#1EB2B2"/>
</linearGradient>
<linearGradient id="paint51_linear_0_1755" x1="596.54" y1="0.771484" x2="596.54" y2="24.2554" gradientUnits="userSpaceOnUse">
<stop stop-color="#23D5D5"/>
<stop offset="1" stop-color="#1EB2B2"/>
</linearGradient>
<linearGradient id="paint52_linear_0_1755" x1="596.54" y1="0.593018" x2="596.54" y2="11.9755" gradientUnits="userSpaceOnUse">
<stop stop-color="#23D5D5"/>
<stop offset="1" stop-color="#1EB2B2"/>
</linearGradient>
<linearGradient id="paint53_linear_0_1755" x1="596.54" y1="0.490479" x2="596.54" y2="1.30163" gradientUnits="userSpaceOnUse">
<stop stop-color="#23D5D5"/>
<stop offset="1" stop-color="#1EB2B2"/>
</linearGradient>
<clipPath id="clip0_0_1755">
<rect width="1193" height="487" fill="white" transform="matrix(-1 0 0 1 1193 0)"/>
</clipPath>
</defs>
</svg>
