<svg width="20" height="20" viewBox="0 0 20 20" fill="none" xmlns="http://www.w3.org/2000/svg">
<path d="M10.0001 8.33317C11.841 8.33317 13.3334 6.84079 13.3334 4.99984C13.3334 3.15889 11.841 1.6665 10.0001 1.6665C8.15913 1.6665 6.66675 3.15889 6.66675 4.99984C6.66675 6.84079 8.15913 8.33317 10.0001 8.33317Z" fill="#87FDF1"/>
<path d="M17.0835 15.0833C16.0835 12 13.1668 10 10.0001 10C6.83345 10 3.91679 12 2.91679 15.0833C2.66679 15.8333 2.75012 16.6667 3.25012 17.3333C3.75012 17.9167 4.50012 18.3333 5.25012 18.3333H14.6668C15.5001 18.3333 16.2501 17.9167 16.7501 17.25C17.2501 16.5833 17.3335 15.8333 17.0835 15.0833Z" fill="#1F736A"/>
<path d="M13.3333 4.99984C13.3333 3.1665 11.8333 1.6665 10 1.6665V8.33317C11.8333 8.33317 13.3333 6.83317 13.3333 4.99984Z" fill="#4CCCBF"/>
<path d="M16.75 17.25C17.25 16.5833 17.3333 15.75 17.0833 15C16.0833 12 13.1667 10 10 10V18.3333H14.75C15.5 18.3333 16.25 17.9167 16.75 17.25Z" fill="#0F4C46"/>
</svg>
