<svg width="160" height="167" viewBox="0 0 160 167" fill="none" xmlns="http://www.w3.org/2000/svg">
<path d="M17.0044 96.755L52.6844 35.3587L72.2924 68.7891H96.4003C96.4003 68.7891 70.6849 23.4653 66.8279 18.3221C66.8279 18.3221 56.2201 1.92829 35.3264 12.2146C14.4327 22.5009 25.3617 47.8951 25.3617 47.8951C16.0465 48.6956 10.7224 50.2486 5.11083 57.2169C-11.2825 84.8613 17.0044 96.755 17.0044 96.755Z" fill="white"/>
<path d="M116.779 107.333L45.7692 107.131L64.9164 73.4343L52.8624 52.5559C52.8624 52.5559 26.4691 97.4883 23.9435 103.4C23.9435 103.4 15.0502 120.784 34.4051 133.735C53.76 146.687 70.2872 124.525 70.2872 124.525C75.6381 132.192 79.645 136.026 88.4855 137.402C120.623 137.777 116.779 107.333 116.779 107.333Z" fill="white"/>
<path d="M75.3473 14.7264L110.677 76.3248L71.9221 76.5908L59.8682 97.4692C59.8682 97.4692 111.977 97.8607 118.359 97.0919C118.359 97.0919 137.861 96.102 139.399 72.8641C140.938 49.6262 113.482 46.3941 113.482 46.3941C117.446 37.9265 118.763 32.5392 115.535 24.1951C99.7908 -3.82428 75.3473 14.7264 75.3473 14.7264Z" fill="white"/>
</svg>
