<svg width="1439" height="594" viewBox="0 0 1439 594" fill="none" xmlns="http://www.w3.org/2000/svg">
<g opacity="0.8">
<mask id="mask0_0_2393" style="mask-type:alpha" maskUnits="userSpaceOnUse" x="298" y="-174" width="768" height="768">
<rect width="768" height="768" transform="translate(298 -174)" fill="url(#paint0_radial_0_2393)"/>
</mask>
<g mask="url(#mask0_0_2393)">
<g clip-path="url(#clip0_0_2393)">
<g opacity="0.5">
<g clip-path="url(#clip1_0_2393)">
<line x1="298.3" y1="-174" x2="298.3" y2="594" stroke="#0BCACA" stroke-opacity="0.4" stroke-width="0.6"/>
<line x1="346.3" y1="-174" x2="346.3" y2="594" stroke="#0BCACA" stroke-opacity="0.4" stroke-width="0.6"/>
<line x1="394.3" y1="-174" x2="394.3" y2="594" stroke="#0BCACA" stroke-opacity="0.4" stroke-width="0.6"/>
<line x1="442.3" y1="-174" x2="442.3" y2="594" stroke="#0BCACA" stroke-opacity="0.4" stroke-width="0.6"/>
<line x1="490.3" y1="-174" x2="490.3" y2="594" stroke="#0BCACA" stroke-opacity="0.4" stroke-width="0.6"/>
<line x1="538.3" y1="-174" x2="538.3" y2="594" stroke="#0BCACA" stroke-opacity="0.4" stroke-width="0.6"/>
<line x1="586.3" y1="-174" x2="586.3" y2="594" stroke="#0BCACA" stroke-opacity="0.4" stroke-width="0.6"/>
<line x1="634.3" y1="-174" x2="634.3" y2="594" stroke="#0BCACA" stroke-opacity="0.4" stroke-width="0.6"/>
<line x1="682.3" y1="-174" x2="682.3" y2="594" stroke="#0BCACA" stroke-opacity="0.4" stroke-width="0.6"/>
<line x1="730.3" y1="-174" x2="730.3" y2="594" stroke="#0BCACA" stroke-opacity="0.4" stroke-width="0.6"/>
<line x1="778.3" y1="-174" x2="778.3" y2="594" stroke="#0BCACA" stroke-opacity="0.4" stroke-width="0.6"/>
<line x1="826.3" y1="-174" x2="826.3" y2="594" stroke="#0BCACA" stroke-opacity="0.4" stroke-width="0.6"/>
<line x1="874.3" y1="-174" x2="874.3" y2="594" stroke="#0BCACA" stroke-opacity="0.4" stroke-width="0.6"/>
<line x1="922.3" y1="-174" x2="922.3" y2="594" stroke="#0BCACA" stroke-opacity="0.4" stroke-width="0.6"/>
<line x1="970.3" y1="-174" x2="970.3" y2="594" stroke="#0BCACA" stroke-opacity="0.4" stroke-width="0.6"/>
<line x1="1018.3" y1="-174" x2="1018.3" y2="594" stroke="#0BCACA" stroke-opacity="0.4" stroke-width="0.6"/>
</g>
<rect x="298.5" y="-173.5" width="767" height="767" stroke="#1F242F"/>
</g>
<g opacity="0.5">
<g clip-path="url(#clip2_0_2393)">
<line x1="298" y1="17.7" x2="1066" y2="17.7" stroke="#0BCACA" stroke-opacity="0.4" stroke-width="0.6"/>
<line x1="298" y1="65.7" x2="1066" y2="65.7" stroke="#0BCACA" stroke-opacity="0.4" stroke-width="0.6"/>
<line x1="298" y1="113.7" x2="1066" y2="113.7" stroke="#0BCACA" stroke-opacity="0.4" stroke-width="0.6"/>
<line x1="298" y1="161.7" x2="1066" y2="161.7" stroke="#0BCACA" stroke-opacity="0.4" stroke-width="0.6"/>
<line x1="298" y1="209.7" x2="1066" y2="209.7" stroke="#0BCACA" stroke-opacity="0.4" stroke-width="0.6"/>
<line x1="298" y1="257.7" x2="1066" y2="257.7" stroke="#0BCACA" stroke-opacity="0.4" stroke-width="0.6"/>
<line x1="298" y1="305.7" x2="1066" y2="305.7" stroke="#0BCACA" stroke-opacity="0.4" stroke-width="0.6"/>
<line x1="298" y1="353.7" x2="1066" y2="353.7" stroke="#0BCACA" stroke-opacity="0.4" stroke-width="0.6"/>
<line x1="298" y1="401.7" x2="1066" y2="401.7" stroke="#0BCACA" stroke-opacity="0.4" stroke-width="0.6"/>
<line x1="298" y1="449.7" x2="1066" y2="449.7" stroke="#0BCACA" stroke-opacity="0.4" stroke-width="0.6"/>
<line x1="298" y1="497.7" x2="1066" y2="497.7" stroke="#0BCACA" stroke-opacity="0.4" stroke-width="0.6"/>
<line x1="298" y1="545.7" x2="1066" y2="545.7" stroke="#0BCACA" stroke-opacity="0.4" stroke-width="0.6"/>
<line x1="298" y1="593.7" x2="1066" y2="593.7" stroke="#0BCACA" stroke-opacity="0.4" stroke-width="0.6"/>
</g>
<rect x="298.5" y="-173.5" width="767" height="767" stroke="#1F242F"/>
</g>
</g>
<path d="M682 102L682 126" stroke="url(#paint1_linear_0_2393)"/>
<path d="M694 114L670 114" stroke="url(#paint2_linear_0_2393)"/>
<path d="M538 202L538 218" stroke="url(#paint3_linear_0_2393)"/>
<path d="M550 210L526 210" stroke="url(#paint4_linear_0_2393)"/>
<path d="M923 344L923 362" stroke="url(#paint5_linear_0_2393)"/>
<path d="M932 353L914 353" stroke="url(#paint6_linear_0_2393)"/>
<path d="M874 202L874 218" stroke="url(#paint7_linear_0_2393)"/>
<path d="M882 210L866 210" stroke="url(#paint8_linear_0_2393)"/>
<path d="M491 297L491 315" stroke="url(#paint9_linear_0_2393)"/>
<path d="M500 306L482 306" stroke="url(#paint10_linear_0_2393)"/>
<path d="M875 54L875 78" stroke="url(#paint11_linear_0_2393)"/>
<path d="M887 66L863 66" stroke="url(#paint12_linear_0_2393)"/>
<path d="M778 149L778 173" stroke="url(#paint13_linear_0_2393)"/>
<path d="M790 161L766 161" stroke="url(#paint14_linear_0_2393)"/>
<circle cx="586" cy="162" r="2" fill="#0BCACA" fill-opacity="0.4"/>
<circle cx="778" cy="66" r="2" fill="#0BCACA" fill-opacity="0.4"/>
<circle cx="827" cy="258" r="2" fill="#0BCACA" fill-opacity="0.4"/>
<circle cx="442" cy="210" r="2" fill="#0BCACA" fill-opacity="0.4"/>
<rect x="826" y="114" width="49" height="48" fill="#0BCACA" fill-opacity="0.15"/>
<rect x="394" y="258" width="49" height="48" fill="#0BCACA" fill-opacity="0.15"/>
<rect x="923" y="258" width="49" height="48" fill="#0BCACA" fill-opacity="0.15"/>
</g>
</g>
<defs>
<radialGradient id="paint0_radial_0_2393" cx="0" cy="0" r="1" gradientUnits="userSpaceOnUse" gradientTransform="translate(384 384) rotate(90) scale(384 384)">
<stop/>
<stop offset="1" stop-opacity="0"/>
</radialGradient>
<linearGradient id="paint1_linear_0_2393" x1="682" y1="126" x2="682" y2="102" gradientUnits="userSpaceOnUse">
<stop stop-color="white" stop-opacity="0"/>
<stop offset="0.50284" stop-color="white"/>
<stop offset="1" stop-color="white" stop-opacity="0"/>
</linearGradient>
<linearGradient id="paint2_linear_0_2393" x1="670" y1="114" x2="694" y2="114" gradientUnits="userSpaceOnUse">
<stop stop-color="white" stop-opacity="0"/>
<stop offset="0.50284" stop-color="white"/>
<stop offset="1" stop-color="white" stop-opacity="0"/>
</linearGradient>
<linearGradient id="paint3_linear_0_2393" x1="538" y1="218" x2="538" y2="202" gradientUnits="userSpaceOnUse">
<stop stop-color="white" stop-opacity="0"/>
<stop offset="0.50284" stop-color="white"/>
<stop offset="1" stop-color="white" stop-opacity="0"/>
</linearGradient>
<linearGradient id="paint4_linear_0_2393" x1="526" y1="210" x2="550" y2="210" gradientUnits="userSpaceOnUse">
<stop stop-color="white" stop-opacity="0"/>
<stop offset="0.50284" stop-color="white"/>
<stop offset="1" stop-color="white" stop-opacity="0"/>
</linearGradient>
<linearGradient id="paint5_linear_0_2393" x1="923" y1="362" x2="923" y2="344" gradientUnits="userSpaceOnUse">
<stop stop-color="white" stop-opacity="0"/>
<stop offset="0.50284" stop-color="white"/>
<stop offset="1" stop-color="white" stop-opacity="0"/>
</linearGradient>
<linearGradient id="paint6_linear_0_2393" x1="914" y1="353" x2="932" y2="353" gradientUnits="userSpaceOnUse">
<stop stop-color="white" stop-opacity="0"/>
<stop offset="0.50284" stop-color="white"/>
<stop offset="1" stop-color="white" stop-opacity="0"/>
</linearGradient>
<linearGradient id="paint7_linear_0_2393" x1="874" y1="218" x2="874" y2="202" gradientUnits="userSpaceOnUse">
<stop stop-color="white" stop-opacity="0"/>
<stop offset="0.50284" stop-color="white"/>
<stop offset="1" stop-color="white" stop-opacity="0"/>
</linearGradient>
<linearGradient id="paint8_linear_0_2393" x1="866" y1="210" x2="882" y2="210" gradientUnits="userSpaceOnUse">
<stop stop-color="white" stop-opacity="0"/>
<stop offset="0.50284" stop-color="white"/>
<stop offset="1" stop-color="white" stop-opacity="0"/>
</linearGradient>
<linearGradient id="paint9_linear_0_2393" x1="491" y1="315" x2="491" y2="297" gradientUnits="userSpaceOnUse">
<stop stop-color="white" stop-opacity="0"/>
<stop offset="0.50284" stop-color="white"/>
<stop offset="1" stop-color="white" stop-opacity="0"/>
</linearGradient>
<linearGradient id="paint10_linear_0_2393" x1="482" y1="306" x2="500" y2="306" gradientUnits="userSpaceOnUse">
<stop stop-color="white" stop-opacity="0"/>
<stop offset="0.50284" stop-color="white"/>
<stop offset="1" stop-color="white" stop-opacity="0"/>
</linearGradient>
<linearGradient id="paint11_linear_0_2393" x1="875" y1="78" x2="875" y2="54" gradientUnits="userSpaceOnUse">
<stop stop-color="white" stop-opacity="0"/>
<stop offset="0.50284" stop-color="white"/>
<stop offset="1" stop-color="white" stop-opacity="0"/>
</linearGradient>
<linearGradient id="paint12_linear_0_2393" x1="863" y1="66" x2="887" y2="66" gradientUnits="userSpaceOnUse">
<stop stop-color="white" stop-opacity="0"/>
<stop offset="0.50284" stop-color="white"/>
<stop offset="1" stop-color="white" stop-opacity="0"/>
</linearGradient>
<linearGradient id="paint13_linear_0_2393" x1="778" y1="173" x2="778" y2="149" gradientUnits="userSpaceOnUse">
<stop stop-color="white" stop-opacity="0"/>
<stop offset="0.50284" stop-color="white"/>
<stop offset="1" stop-color="white" stop-opacity="0"/>
</linearGradient>
<linearGradient id="paint14_linear_0_2393" x1="766" y1="161" x2="790" y2="161" gradientUnits="userSpaceOnUse">
<stop stop-color="white" stop-opacity="0"/>
<stop offset="0.50284" stop-color="white"/>
<stop offset="1" stop-color="white" stop-opacity="0"/>
</linearGradient>
<clipPath id="clip0_0_2393">
<rect width="768" height="768" fill="white" transform="translate(298 -174)"/>
</clipPath>
<clipPath id="clip1_0_2393">
<rect x="298" y="-174" width="768" height="768" fill="white"/>
</clipPath>
<clipPath id="clip2_0_2393">
<rect x="298" y="-174" width="768" height="768" fill="white"/>
</clipPath>
</defs>
</svg>
