<svg width="759" height="300" viewBox="0 0 759 300" fill="none" xmlns="http://www.w3.org/2000/svg">
<mask id="mask0_0_2720" style="mask-type:luminance" maskUnits="userSpaceOnUse" x="0" y="0" width="759" height="300">
<path d="M759 0H0.20459V300H759V0Z" fill="white"/>
</mask>
<g mask="url(#mask0_0_2720)">
<mask id="mask1_0_2720" style="mask-type:alpha" maskUnits="userSpaceOnUse" x="0" y="14" width="760" height="798">
<path d="M379.603 565.962C459.931 565.962 525.05 497.479 525.05 413C525.05 328.522 459.931 260.038 379.603 260.038C299.274 260.038 234.155 328.522 234.155 413C234.155 497.479 299.274 565.962 379.603 565.962Z" stroke="url(#paint0_linear_0_2720)"/>
<path opacity="0.32" d="M379.603 658.038C508.285 658.038 612.602 548.331 612.602 413C612.602 277.669 508.285 167.962 379.603 167.962C250.921 167.962 146.603 277.669 146.603 413C146.603 548.331 250.921 658.038 379.603 658.038Z" stroke="url(#paint1_linear_0_2720)"/>
<path opacity="0.32" d="M379.603 596.654C476.049 596.654 554.234 514.43 554.234 413C554.234 311.571 476.049 229.346 379.603 229.346C283.156 229.346 204.971 311.571 204.971 413C204.971 514.43 283.156 596.654 379.603 596.654Z" stroke="url(#paint2_linear_0_2720)"/>
<path opacity="0.32" d="M379.602 719.423C540.521 719.423 670.971 582.233 670.971 413C670.971 243.767 540.521 106.577 379.602 106.577C218.684 106.577 88.2334 243.767 88.2334 413C88.2334 582.233 218.684 719.423 379.602 719.423Z" stroke="url(#paint3_linear_0_2720)"/>
<path opacity="0.32" d="M379.602 780.808C572.758 780.808 729.341 616.135 729.341 413C729.341 209.865 572.758 45.1919 379.602 45.1919C186.447 45.1919 29.8643 209.865 29.8643 413C29.8643 616.135 186.447 780.808 379.602 780.808Z" stroke="url(#paint4_linear_0_2720)"/>
<path d="M379.603 627.346C492.167 627.346 583.418 531.38 583.418 413C583.418 294.62 492.167 198.654 379.603 198.654C267.038 198.654 175.787 294.62 175.787 413C175.787 531.38 267.038 627.346 379.603 627.346Z" stroke="url(#paint5_linear_0_2720)"/>
<path d="M379.603 688.731C524.403 688.731 641.788 565.282 641.788 413C641.788 260.718 524.403 137.269 379.603 137.269C234.802 137.269 117.418 260.718 117.418 413C117.418 565.282 234.802 688.731 379.603 688.731Z" stroke="url(#paint6_linear_0_2720)"/>
<path d="M379.602 750.115C556.639 750.115 700.155 599.183 700.155 413C700.155 226.816 556.639 75.8848 379.602 75.8848C202.566 75.8848 59.0493 226.816 59.0493 413C59.0493 599.183 202.566 750.115 379.602 750.115Z" stroke="url(#paint7_linear_0_2720)"/>
<path d="M379.603 811.5C588.876 811.5 758.525 633.085 758.525 413C758.525 192.915 588.876 14.5 379.603 14.5C170.329 14.5 0.680176 192.915 0.680176 413C0.680176 633.085 170.329 811.5 379.603 811.5Z" stroke="url(#paint8_linear_0_2720)"/>
<path d="M379.603 565.962C459.931 565.962 525.05 497.479 525.05 413C525.05 328.522 459.931 260.038 379.603 260.038C299.274 260.038 234.155 328.522 234.155 413C234.155 497.479 299.274 565.962 379.603 565.962Z" stroke="url(#paint9_linear_0_2720)"/>
</mask>
<g mask="url(#mask1_0_2720)">
<path d="M771.258 14H-12.0527V351.615H771.258V14Z" fill="url(#paint10_linear_0_2720)" fill-opacity="0.3"/>
</g>
<g clip-path="url(#clip0_0_2720)">
<path d="M118.848 174.141C122.457 174.141 123.792 171.624 125.047 167.849C126.347 163.962 126.29 160.223 125.047 155.244C124.152 151.658 122.46 148.952 118.848 148.952H114.196V154.457C114.196 158.728 110.573 162.326 106.444 162.326H94.046C90.6552 162.326 87.8472 165.228 87.8472 168.629V180.446C87.8472 183.811 90.7722 185.785 94.046 186.749C97.9677 187.897 101.742 188.105 106.441 186.749C109.564 185.843 112.64 184.019 112.64 180.446V175.721H100.253V174.143H118.848V174.141ZM107.219 178.867C108.506 178.867 109.553 179.924 109.553 181.224C109.553 182.537 108.508 183.592 107.219 183.592C106.597 183.585 106.002 183.332 105.565 182.888C105.128 182.445 104.884 181.847 104.886 181.224C104.886 180.603 105.131 180.007 105.568 179.566C106.005 179.124 106.598 178.873 107.219 178.867Z" fill="#F2BB30"/>
<path d="M81.4618 174.144H85.7214V168.478C85.7214 164.381 89.2618 160.769 93.4738 160.769H105.869C109.316 160.769 112.068 157.926 112.068 154.466V142.64C112.068 139.276 109.236 136.754 105.869 136.188C101.714 135.501 97.1983 135.54 93.4738 136.201L93.4759 136.199C88.2283 137.126 87.2793 139.063 87.2793 142.649V147.375H99.6878V148.954H82.6231C79.0134 148.954 75.8544 151.125 74.8708 155.246C73.7333 159.972 73.6878 162.918 74.8708 167.852C75.7504 171.52 77.8543 174.144 81.4618 174.144ZM92.6981 144.218C92.0763 144.214 91.4815 143.963 91.0441 143.521C90.6066 143.079 90.3623 142.482 90.3646 141.86C90.3623 141.238 90.6063 140.639 91.0434 140.195C91.4805 139.752 92.0753 139.499 92.6981 139.492C93.9764 139.492 95.0316 140.558 95.0316 141.86C95.0316 143.163 93.9873 144.218 92.6981 144.218Z" fill="#35668F"/>
</g>
<path d="M193.886 171.49C200.236 165.145 201.292 155.907 196.242 150.861C191.192 145.815 181.954 146.872 175.605 153.217C169.255 159.563 171.091 171.693 173.248 173.847C174.991 175.589 187.536 177.836 193.886 171.49Z" fill="#F89939"/>
<path d="M167.829 162.321C164.144 158.641 158.782 158.027 155.853 160.952C152.924 163.881 153.537 169.24 157.222 172.92C160.906 176.605 167.947 175.537 169.198 174.289C170.209 173.278 171.518 166.002 167.829 162.321Z" fill="#3499CD"/>
<path d="M204.302 170.495C204.066 170.495 203.948 170.353 203.948 170.064C203.948 169.849 204.09 169.378 204.371 168.659C204.781 167.606 204.988 166.851 204.988 166.392C204.988 166.115 204.907 165.884 204.744 165.701C204.582 165.518 204.379 165.425 204.135 165.425C203.778 165.425 203.367 165.591 202.904 165.929C202.441 166.266 201.819 166.871 201.035 167.749C201.149 167.18 201.393 166.4 201.759 165.409L200.008 165.746C199.609 166.607 199.321 167.383 199.142 168.074C199.053 168.411 198.988 168.76 198.943 169.114C198.395 169.646 198.037 169.967 197.883 170.085C197.724 170.202 197.558 170.259 197.387 170.259C197.229 170.259 197.103 170.198 197.009 170.08C196.916 169.963 196.871 169.8 196.871 169.601C196.871 169.386 196.912 169.138 196.993 168.858C197.115 168.437 197.253 168.049 197.534 167.273L198.2 165.437L197.546 165.465C196.953 166.595 196.258 167.204 195.462 167.29C195.677 166.729 195.787 166.298 195.787 165.998C195.787 165.616 195.6 165.425 195.226 165.425C194.783 165.425 194.438 165.632 194.19 166.05C193.938 166.469 193.812 166.863 193.812 167.233C193.812 167.787 194.019 167.862 194.43 168.045C194.162 168.439 193.861 168.809 193.536 169.158C193.15 169.54 192.849 169.833 192.63 170.024C192.407 170.223 192.199 170.32 192.013 170.32C191.72 170.32 191.574 170.113 191.574 169.703C191.574 169.292 191.736 168.585 192.061 167.529L192.695 165.425H192.293L190.826 166.237C190.587 165.689 190.168 165.413 189.571 165.413C189.096 165.413 188.551 165.616 187.934 166.018C187.316 166.42 186.809 166.944 186.414 167.598C186.11 168.102 185.923 168.63 185.854 169.175C185.301 169.727 184.887 170.085 184.611 170.251C184.322 170.422 184.022 170.507 183.705 170.507C182.896 170.507 182.397 170.04 182.206 169.105C184.314 168.488 185.366 167.684 185.366 166.692C185.366 166.319 185.232 166.018 184.964 165.786C184.696 165.555 184.339 165.441 183.896 165.441C183.039 165.441 182.259 165.851 181.556 166.672C180.918 167.415 180.573 168.24 180.512 169.146C179.931 169.719 179.492 170.097 179.208 170.28C178.915 170.466 178.639 170.56 178.383 170.56C178.127 170.56 177.924 170.438 177.774 170.194C177.619 169.95 177.542 169.621 177.542 169.203C177.542 169.016 177.562 168.675 177.599 168.175C178.558 167.135 179.26 166.16 179.711 165.246C180.162 164.332 180.386 163.385 180.386 162.41C180.386 162.065 180.341 161.793 180.252 161.59C180.162 161.387 180.049 161.285 179.91 161.285C179.882 161.285 179.837 161.293 179.78 161.314L177.956 161.988C177.335 163.174 176.803 164.47 176.368 165.88C175.933 167.285 175.714 168.492 175.714 169.495C175.714 170.166 175.868 170.698 176.185 171.096C176.498 171.494 176.912 171.693 177.424 171.693C177.871 171.693 178.338 171.551 178.83 171.267C179.321 170.982 179.89 170.54 180.544 169.942C181.198 169.345 180.544 169.934 180.544 169.934C180.621 170.385 180.808 170.763 181.101 171.072C181.503 171.486 182.027 171.697 182.677 171.697C183.262 171.697 183.794 171.555 184.278 171.271C184.745 170.999 185.269 170.572 185.854 170.007C185.903 170.43 186.041 170.795 186.272 171.108C186.569 171.502 186.926 171.701 187.345 171.701C187.763 171.701 188.194 171.539 188.6 171.214C189.006 170.889 189.445 170.381 189.924 169.699C189.88 171.035 190.237 171.701 190.993 171.701C191.294 171.701 191.61 171.592 191.939 171.372C192.269 171.153 192.817 170.678 193.585 169.95C194.251 169.292 194.739 168.675 195.051 168.098C195.474 168.025 195.86 167.899 196.213 167.716C195.49 168.85 195.129 169.755 195.129 170.43C195.129 170.795 195.23 171.1 195.429 171.344C195.628 171.588 195.876 171.714 196.169 171.714C196.806 171.714 197.712 171.141 198.882 170.007C198.882 170.097 198.874 170.182 198.874 170.271C198.874 170.588 198.903 171.068 198.951 171.714L200.54 171.34C200.54 170.909 200.548 170.568 200.56 170.312C200.584 169.971 200.633 169.597 200.702 169.191C200.747 168.951 200.857 168.724 201.031 168.508L201.434 168.041C201.58 167.87 201.722 167.716 201.848 167.582C201.998 167.424 202.132 167.29 202.25 167.18C202.384 167.062 202.502 166.965 202.604 166.9C202.713 166.835 202.803 166.798 202.868 166.798C202.985 166.798 203.046 166.875 203.046 167.03C203.046 167.184 202.933 167.541 202.709 168.106C202.287 169.158 202.075 169.942 202.075 170.454C202.075 170.832 202.173 171.133 202.372 171.36C202.567 171.584 202.827 171.697 203.148 171.697C203.936 171.697 204.887 171.112 205.992 169.946V169.122C205.208 170.044 204.643 170.507 204.294 170.507L204.302 170.495ZM177.79 167.127C178.115 165.539 178.448 164.308 178.785 163.426C179.122 162.545 179.382 162.102 179.557 162.102C179.638 162.102 179.707 162.155 179.76 162.264C179.813 162.37 179.837 162.516 179.837 162.691C179.837 163.296 179.65 164.015 179.269 164.856C178.891 165.693 178.395 166.453 177.79 167.127ZM182.579 166.729C182.868 166.245 183.169 166.006 183.485 166.006C183.819 166.006 183.989 166.237 183.989 166.696C183.989 167.627 183.376 168.26 182.149 168.606C182.149 167.834 182.291 167.208 182.579 166.729ZM189.681 169.105C189.258 169.922 188.803 170.328 188.328 170.328C188.133 170.328 187.97 170.247 187.844 170.089C187.719 169.93 187.654 169.719 187.654 169.459C187.654 168.776 187.869 168.025 188.295 167.212C188.722 166.4 189.177 165.994 189.656 165.994C189.855 165.994 190.018 166.067 190.136 166.221C190.254 166.371 190.314 166.583 190.314 166.851C190.314 167.541 190.103 168.293 189.681 169.11V169.105Z" fill="white"/>
<path d="M184.656 162.045C184.716 162.13 184.745 162.24 184.745 162.37C184.745 162.5 184.708 162.618 184.635 162.727C184.562 162.837 184.456 162.926 184.314 162.987C184.176 163.048 184.018 163.081 183.843 163.081C183.551 163.081 183.331 163.02 183.177 162.898C183.022 162.776 182.925 162.597 182.884 162.358L183.262 162.297C183.282 162.447 183.343 162.565 183.437 162.642C183.534 162.723 183.668 162.764 183.843 162.764C184.018 162.764 184.148 162.727 184.233 162.658C184.318 162.589 184.359 162.504 184.359 162.406C184.359 162.321 184.322 162.252 184.245 162.203C184.192 162.171 184.062 162.126 183.855 162.073C183.575 162.004 183.384 161.943 183.274 161.89C183.165 161.838 183.083 161.769 183.031 161.675C182.978 161.582 182.945 161.484 182.945 161.374C182.945 161.273 182.97 161.184 183.014 161.098C183.059 161.013 183.124 160.944 183.201 160.887C183.262 160.842 183.339 160.806 183.441 160.777C183.542 160.749 183.652 160.733 183.77 160.733C183.945 160.733 184.099 160.757 184.233 160.81C184.367 160.859 184.465 160.928 184.53 161.017C184.595 161.102 184.635 161.22 184.66 161.366L184.286 161.415C184.27 161.301 184.221 161.208 184.14 161.143C184.058 161.078 183.945 161.045 183.794 161.045C183.62 161.045 183.494 161.074 183.421 161.131C183.347 161.188 183.307 161.257 183.307 161.334C183.307 161.383 183.323 161.427 183.351 161.468C183.384 161.509 183.433 161.541 183.498 161.569C183.534 161.582 183.648 161.614 183.835 161.667C184.103 161.74 184.29 161.797 184.4 161.842C184.505 161.886 184.591 161.955 184.651 162.041L184.656 162.045ZM186.471 162.63C186.37 162.723 186.248 162.768 186.098 162.768C185.911 162.768 185.761 162.699 185.647 162.565C185.533 162.431 185.472 162.207 185.472 161.907C185.472 161.606 185.533 161.391 185.651 161.257C185.769 161.123 185.927 161.049 186.118 161.049C186.244 161.049 186.354 161.086 186.443 161.163C186.532 161.24 186.593 161.354 186.63 161.504L187 161.448C186.955 161.22 186.857 161.045 186.703 160.924C186.549 160.802 186.35 160.741 186.106 160.741C185.911 160.741 185.736 160.785 185.57 160.879C185.407 160.968 185.281 161.106 185.204 161.289C185.123 161.472 185.082 161.683 185.082 161.927C185.082 162.301 185.176 162.589 185.362 162.788C185.549 162.987 185.797 163.089 186.102 163.089C186.346 163.089 186.553 163.016 186.723 162.869C186.89 162.723 186.996 162.52 187.036 162.264L186.662 162.215C186.634 162.406 186.573 162.544 186.471 162.638V162.63ZM187.361 163.028H187.743V160.785H187.361V163.028ZM187.361 160.367H187.743V159.928H187.361V160.367ZM190.095 160.781H189.604L188.702 161.695V159.928H188.32V163.024H188.702V162.134L188.97 161.878L189.713 163.024H190.185L189.238 161.614L190.095 160.781ZM190.485 160.367H190.867V159.928H190.485V160.367ZM190.485 163.028H190.867V160.785H190.485V163.028ZM192.277 162.687C192.208 162.695 192.151 162.703 192.11 162.703C192.053 162.703 192.009 162.695 191.98 162.674C191.952 162.654 191.927 162.63 191.915 162.601C191.903 162.569 191.895 162.5 191.895 162.394V161.082H192.277V160.785H191.895V160.001L191.517 160.229V160.785H191.237V161.082H191.517V162.374C191.517 162.601 191.533 162.752 191.562 162.821C191.594 162.894 191.647 162.951 191.72 162.991C191.797 163.036 191.903 163.056 192.041 163.056C192.126 163.056 192.22 163.044 192.33 163.024L192.273 162.687H192.277Z" fill="white"/>
<g clip-path="url(#clip1_0_2720)">
<path d="M280.042 148.818L271.598 148.815V165.601C271.598 172.998 271.215 175.814 270.008 178.243C268.858 180.618 267.046 182.165 263.317 183.931L271.159 187.688C274.887 185.811 276.697 184.1 278.068 181.393C279.548 178.579 280.042 175.32 280.042 168.53V148.818Z" fill="white"/>
<path d="M266.606 175.047V135.688H258.163V148.653C256.902 148.321 255.86 148.211 254.49 148.211C245.661 148.211 239.958 153.842 239.958 162.511C239.958 171.511 245.332 176.204 255.641 176.204C259.094 176.206 262.275 175.875 266.606 175.047ZM248.567 162.346C248.567 157.707 251.032 155.057 255.311 155.057H255.303C255.363 155.053 255.422 155.053 255.48 155.053C256.44 155.053 257.361 155.216 258.161 155.497V169.134C256.956 169.301 256.187 169.355 255.255 169.355C250.926 169.358 248.567 166.875 248.567 162.346Z" fill="white"/>
<path d="M280.042 135.733H271.598V144.456H280.042V135.733Z" fill="white"/>
</g>
<g clip-path="url(#clip2_0_2720)">
<path d="M337.08 187.52C336.307 187.427 335.496 187.308 335.279 187.255C334.959 187.179 334.637 187.111 334.314 187.052C333.945 186.98 333.579 186.894 333.216 186.794C331.532 186.312 331.411 186.272 330.142 185.753C328.974 185.277 326.822 184.165 326.086 183.659C325.884 183.519 325.696 183.406 325.667 183.406C325.638 183.406 325.167 183.075 324.62 182.67C321.138 180.093 318.524 176.965 316.636 173.112C316.311 172.45 316.045 171.863 316.045 171.808C316.045 171.753 315.987 171.603 315.915 171.476C315.768 171.212 315.558 170.644 315.389 170.057C315.316 169.808 315.231 169.562 315.135 169.321C315.055 169.134 314.992 168.906 314.992 168.815C314.992 168.722 314.912 168.423 314.816 168.146C314.719 167.872 314.641 167.548 314.641 167.427C314.641 167.307 314.565 166.891 314.471 166.503C314.243 165.544 314 163.06 314 161.669C314 160.278 314.243 157.795 314.471 156.837C314.565 156.448 314.641 156.024 314.641 155.894C314.641 155.764 314.7 155.508 314.771 155.325C314.844 155.143 314.938 154.816 314.981 154.599C315.025 154.382 315.127 154.007 315.209 153.764L315.449 153.063C315.625 152.538 315.788 152.093 315.866 151.92C315.911 151.824 316.085 151.429 316.255 151.043C316.53 150.419 317.118 149.243 317.462 148.628C317.588 148.402 317.636 148.327 318.315 147.266C319.391 145.581 321.23 143.484 322.942 141.989C323.545 141.463 325.561 139.933 325.651 139.933C325.676 139.933 325.867 139.818 326.075 139.679C326.622 139.312 327.159 139.001 327.858 138.65C328.11 138.526 328.358 138.397 328.604 138.263C328.72 138.197 328.937 138.097 330.053 137.597C330.299 137.487 330.564 137.387 331.327 137.121C331.496 137.062 331.834 136.938 332.075 136.848C332.318 136.757 332.603 136.683 332.71 136.683C332.815 136.683 333.09 136.609 333.322 136.519C333.554 136.429 333.975 136.326 334.258 136.291C334.541 136.257 334.917 136.178 335.093 136.116C335.268 136.056 335.747 135.978 336.158 135.943C336.693 135.895 337.227 135.832 337.759 135.754C338.851 135.594 341.225 135.594 342.306 135.754C342.816 135.828 343.328 135.888 343.842 135.935C344.229 135.967 344.723 136.048 344.94 136.115C345.157 136.18 345.534 136.261 345.775 136.291C346.016 136.323 346.422 136.423 346.678 136.514C346.933 136.608 347.224 136.683 347.323 136.683C347.423 136.683 347.63 136.738 347.78 136.808C347.933 136.876 348.255 136.991 348.498 137.062C348.739 137.135 349.153 137.279 349.42 137.386C349.685 137.492 350.04 137.632 350.21 137.695C350.523 137.813 352.835 138.969 353.149 139.166C355.701 140.758 357.013 141.797 358.778 143.621C360.906 145.82 362.319 147.915 363.756 150.998C363.858 151.216 364.013 151.538 364.102 151.712C364.189 151.889 364.262 152.095 364.262 152.171C364.262 152.248 364.336 152.48 364.426 152.687C364.67 153.249 364.88 153.888 364.978 154.377C365.027 154.617 365.118 154.913 365.179 155.035C365.242 155.157 365.314 155.467 365.343 155.721C365.372 155.975 365.456 156.391 365.527 156.643C365.941 158.077 366.147 162.304 365.897 164.173C365.822 164.728 365.738 165.4 365.71 165.664C365.662 166.118 365.422 167.291 365.218 168.08L365.006 168.914C364.608 170.522 363.624 172.812 362.423 174.931C361.947 175.772 360.351 178.046 360.049 178.312C360.022 178.336 359.887 178.495 359.751 178.663C359.614 178.833 359.176 179.307 358.78 179.717C357.032 181.521 355.623 182.636 353.149 184.173C352.856 184.355 350.368 185.571 349.902 185.76C349.661 185.856 349.258 186.02 349.007 186.121C348.758 186.222 348.48 186.306 348.393 186.307C348.306 186.308 348.076 186.386 347.882 186.48C347.689 186.573 347.443 186.651 347.333 186.653C347.225 186.655 346.91 186.731 346.632 186.823C346.354 186.916 345.968 187.017 345.774 187.046C345.581 187.077 345.167 187.159 344.853 187.229C344.539 187.299 343.589 187.435 342.745 187.532C340.863 187.752 338.962 187.748 337.08 187.52ZM338.991 182.441C339.113 182.346 339.238 182.157 339.272 182.024C339.345 181.73 351.148 158.068 351.37 157.771C351.557 157.52 351.575 157.119 351.403 156.978C351.313 156.902 350.183 156.878 347.166 156.883C344.903 156.887 343.001 156.889 342.939 156.887C342.847 156.884 342.828 155.372 342.837 148.896C342.844 144.501 342.823 140.866 342.791 140.815C342.76 140.764 342.636 140.723 342.515 140.723C342.345 140.723 342.266 140.796 342.162 141.051C341.965 141.526 341.42 142.603 338.77 147.748C338.22 148.816 337.671 149.885 337.123 150.954C336.653 151.873 335.912 153.315 335.479 154.159C334.312 156.427 333.148 158.697 331.986 160.967C329.982 164.882 329.739 165.349 329.653 165.452C329.487 165.654 329.396 166.118 329.49 166.293C329.575 166.453 329.745 166.46 333.976 166.453C336.395 166.45 338.389 166.463 338.41 166.481C338.466 166.539 338.445 181.639 338.388 181.999C338.35 182.235 338.375 182.36 338.483 182.468C338.67 182.655 338.721 182.654 338.991 182.441Z" fill="#049688"/>
</g>
<path d="M407.215 148.51C399.928 148.51 394 154.42 394 161.687C394 168.954 399.928 174.867 407.215 174.867H432.783C440.072 174.867 446 168.952 446 161.687C446 154.423 440.072 148.51 432.785 148.51H407.215ZM406.95 152.696C408.018 152.722 409.16 153.237 409.708 154.046C410.506 155.04 410.744 156.357 411.648 157.28C412.861 158.606 414.245 159.772 415.366 161.185C416.427 162.474 417.183 163.988 417.844 165.514C418.113 166.019 418.115 166.64 418.516 167.074C418.711 167.334 419.673 168.044 419.465 168.296C419.584 168.556 420.483 168.915 420.171 169.167C419.751 169.253 419.276 169.271 418.954 168.935C418.837 169.208 418.559 169.065 418.345 169.028L418.291 169.188C417.576 169.236 417.043 168.51 416.705 167.964C416.031 167.6 415.264 167.379 414.577 166.998C414.536 167.626 414.674 168.402 414.076 168.807C414.046 170.014 415.903 168.95 416.074 169.847C415.942 169.862 415.795 169.828 415.688 169.929C415.205 170.4 414.648 169.572 414.089 169.914C413.34 170.291 413.266 170.599 412.334 170.677C412.285 170.599 412.304 170.547 412.347 170.501C412.607 170.198 412.629 169.841 413.075 169.711C412.616 169.639 412.23 169.893 411.843 170.092C411.34 170.298 411.344 169.628 410.569 170.129C410.482 170.057 410.525 169.994 410.573 169.94C410.77 169.702 411.028 169.665 411.32 169.68C409.884 168.879 409.208 170.655 408.545 169.773C408.345 169.825 408.27 170.003 408.144 170.131C408.036 170.012 408.118 169.869 408.122 169.728C407.992 169.667 407.83 169.639 407.869 169.431C407.615 169.344 407.436 169.496 407.249 169.639C407.076 169.507 407.364 169.314 407.416 169.178C407.568 168.915 407.914 169.123 408.09 168.935C408.588 168.651 409.286 169.108 409.858 169.032C410.298 169.089 410.842 168.638 410.621 168.187C410.15 167.587 410.233 166.803 410.224 166.086C410.166 165.67 409.16 165.137 408.868 164.686C408.508 164.281 408.229 163.811 407.949 163.347C406.937 161.397 407.256 158.888 405.982 157.075C405.405 157.393 404.656 157.244 404.16 156.817C403.891 157.062 403.878 157.38 403.856 157.72C403.215 157.077 403.295 155.866 403.811 155.151C404.019 154.869 404.27 154.637 404.552 154.431C404.615 154.388 404.636 154.342 404.634 154.271C404.888 153.129 405.88 152.668 406.95 152.696ZM433.834 153.692C435.041 153.692 436.174 154.16 437.026 155.01C437.877 155.859 438.347 156.992 438.347 158.195C438.349 158.787 438.233 159.373 438.007 159.92C437.78 160.467 437.446 160.963 437.026 161.38V161.382L435.071 163.332C434.55 163.85 433.91 164.233 433.208 164.45L433.173 164.461L433.163 164.495C432.938 165.091 432.587 165.631 432.136 166.079L430.181 168.029C429.327 168.879 428.194 169.347 426.985 169.347C425.776 169.347 424.645 168.879 423.792 168.029C423.373 167.611 423.041 167.115 422.814 166.568C422.587 166.022 422.471 165.436 422.471 164.844C422.471 164.253 422.587 163.667 422.814 163.12C423.041 162.574 423.373 162.077 423.792 161.659L425.746 159.709C426.265 159.191 426.903 158.808 427.605 158.596L427.642 158.583L427.655 158.548C427.883 157.952 428.233 157.411 428.684 156.96L430.638 155.01C431.057 154.59 431.555 154.257 432.103 154.031C432.651 153.805 433.241 153.69 433.834 153.692ZM433.832 155.636C433.494 155.634 433.159 155.7 432.847 155.829C432.535 155.957 432.251 156.147 432.012 156.386L430.06 158.336C429.799 158.596 429.597 158.91 429.469 159.255C429.341 159.601 429.289 159.97 429.317 160.338L429.328 160.463C429.399 161.037 429.653 161.555 430.06 161.96C430.341 162.242 430.651 162.42 431.028 162.543C431.047 162.656 431.058 162.771 431.059 162.886C431.06 163.139 431.011 163.39 430.915 163.625C430.818 163.859 430.675 164.072 430.495 164.251L430.374 164.372C429.736 164.164 429.157 163.807 428.684 163.332C428.034 162.687 427.599 161.858 427.436 160.957L427.414 160.832L427.315 160.912C427.248 160.966 427.186 161.024 427.126 161.085L425.17 163.033C424.81 163.392 424.565 163.849 424.466 164.347C424.367 164.845 424.418 165.361 424.613 165.83C424.808 166.299 425.139 166.699 425.562 166.98C425.985 167.261 426.482 167.41 426.99 167.407C427.648 167.407 428.305 167.156 428.805 166.658L430.76 164.708C430.998 164.47 431.188 164.188 431.317 163.877C431.447 163.566 431.513 163.232 431.513 162.895C431.513 162.559 431.447 162.225 431.317 161.914C431.188 161.603 430.998 161.321 430.76 161.083C430.492 160.818 430.169 160.615 429.815 160.487C429.796 160.373 429.785 160.257 429.785 160.14C429.784 159.861 429.84 159.584 429.948 159.326C430.055 159.069 430.214 158.835 430.413 158.639C431.172 158.894 431.849 159.349 432.372 159.956C432.895 160.563 433.245 161.299 433.386 162.088L433.407 162.214L433.507 162.132C433.574 162.078 433.638 162.02 433.698 161.958L435.652 160.01C436.133 159.53 436.403 158.878 436.403 158.198C436.403 157.518 436.133 156.866 435.652 156.386C435.413 156.147 435.129 155.957 434.817 155.829C434.505 155.7 434.17 155.634 433.832 155.636ZM412.222 166.809C412.048 167.479 411.994 168.614 411.125 168.647C411.054 169.03 411.392 169.175 411.699 169.052C412.005 168.913 412.15 169.162 412.254 169.412C412.727 169.481 413.424 169.253 413.45 168.697C412.746 168.291 412.527 167.52 412.222 166.809Z" fill="white"/>
<path d="M524.7 156.853C522.953 155.838 520.638 155.716 518.688 156.284C518.444 154.172 517.063 152.344 515.438 151.044L514.788 150.516L514.219 151.166C513.122 152.425 512.797 154.538 512.96 156.163C513.081 157.341 513.447 158.559 514.178 159.534C513.61 159.859 513 160.306 512.431 160.509C511.294 160.916 510.035 161.322 508.816 161.322H506.094V155.594H500.813V145.438H494.719V150.313H484.563V155.594H479.281V161.281H474.731L474.65 161.891C474.447 164.491 474.772 167.009 475.869 169.406L476.316 170.3L476.356 170.381C479.566 175.825 485.172 178.1 491.306 178.1C503.169 178.1 512.96 172.778 517.428 161.606C520.435 161.769 523.522 160.875 524.985 157.991L525.35 157.259L524.7 156.853ZM485.375 151.531H489.438V156H485.375V151.531ZM490.697 169.488C490.697 170.178 490.128 170.747 489.438 170.747C488.747 170.747 488.178 170.178 488.178 169.488C488.178 168.797 488.747 168.228 489.438 168.228C490.128 168.269 490.697 168.797 490.697 169.488ZM485.375 156.813H489.438V161.281H485.375V156.813ZM480.094 156.813H484.563V161.281H480.094V156.813ZM491.347 177.206C484.928 177.166 481.475 175.013 478.631 172.169C479.485 172.209 480.297 172.25 481.028 172.25C481.678 172.25 482.328 172.25 482.938 172.209C484.522 172.128 485.903 171.925 487.041 171.6C487.975 173.753 489.681 175.744 492.728 177.206H491.347ZM494.719 161.281H490.25V156.813H494.719V161.281ZM494.719 156H490.25V151.531H494.719V156ZM500 161.281H495.531V156.813H500V161.281ZM500 156H495.531V151.531H500V156ZM500 150.719H495.531V146.25H500V150.719ZM505.281 161.281H500.813V156.813H505.281V161.281ZM489.763 168.675C489.681 168.634 489.56 168.594 489.438 168.594C488.95 168.594 488.544 169 488.544 169.488C488.544 169.975 488.95 170.381 489.438 170.381C489.925 170.381 490.331 169.975 490.331 169.488C490.331 169.366 490.291 169.244 490.25 169.163C490.169 169.284 490.088 169.366 489.925 169.366C489.722 169.366 489.56 169.203 489.56 169C489.6 168.838 489.681 168.716 489.763 168.675Z" fill="#019BC6"/>
<g clip-path="url(#clip3_0_2720)">
<path d="M564.09 146.993C563.571 146.689 562.996 146.491 562.4 146.411C561.803 146.332 561.197 146.372 560.616 146.53C560.035 146.687 559.492 146.96 559.018 147.33C558.543 147.701 558.148 148.162 557.854 148.688C557.639 149.072 557.478 149.485 557.378 149.914C556.788 152.408 558.296 154.915 560.745 155.513L560.742 167.86C559.891 168.072 559.119 168.526 558.519 169.167C557.684 170.063 557.232 171.25 557.26 172.475C557.288 173.7 557.793 174.866 558.669 175.723C559.099 176.143 559.608 176.472 560.167 176.692C560.726 176.913 561.323 177.019 561.924 177.004C562.524 176.99 563.116 176.856 563.664 176.61C564.212 176.364 564.705 176.011 565.115 175.572L575.63 181.74C575.505 182.169 575.441 182.613 575.441 183.06C575.443 185.618 577.484 187.69 580 187.688C580.485 187.688 580.964 187.607 581.428 187.454C583.82 186.65 585.12 184.026 584.327 181.591L594.774 175.455C595.251 176.001 595.852 176.424 596.526 176.69C597.201 176.955 597.929 177.054 598.651 176.979C599.372 176.904 600.064 176.657 600.67 176.259C601.275 175.86 601.776 175.322 602.13 174.69C602.353 174.298 602.522 173.873 602.624 173.431C603.207 170.948 601.699 168.456 599.259 167.865V155.517C599.677 155.414 600.077 155.251 600.449 155.034C601.506 154.409 602.275 153.394 602.592 152.208C602.909 151.022 602.748 149.758 602.143 148.69C601.926 148.309 601.655 147.961 601.339 147.656C600.908 147.236 600.397 146.907 599.836 146.687C599.275 146.468 598.677 146.363 598.075 146.378C597.473 146.394 596.88 146.53 596.332 146.778C595.783 147.026 595.29 147.381 594.88 147.823L584.368 141.648C584.493 141.217 584.561 140.764 584.558 140.311C584.556 137.755 582.515 135.685 580 135.688C579.56 135.688 579.12 135.75 578.7 135.878C576.293 136.604 574.915 139.18 575.63 141.635L565.11 147.81C564.813 147.489 564.469 147.213 564.09 146.993ZM583.371 179.933C582.947 179.458 582.428 179.077 581.847 178.817C581.266 178.556 580.637 178.421 580 178.421C578.708 178.421 577.545 178.96 576.719 179.835L566.198 173.656L566.244 173.476H593.756C593.78 173.58 593.806 173.682 593.836 173.784L583.371 179.933ZM583.271 143.548L593.808 149.741L593.767 149.897C593.162 152.38 594.646 154.891 597.086 155.504V167.869C597.03 167.884 596.967 167.899 596.911 167.919L583.148 143.674C583.192 143.635 583.233 143.593 583.271 143.548ZM578.732 144.775C579.56 145.017 580.44 145.017 581.272 144.775L595.036 169.011C594.403 169.629 593.958 170.413 593.752 171.273H566.25C566.043 170.416 565.6 169.635 564.972 169.017L578.732 144.775ZM566.185 149.725L576.722 143.546L576.849 143.676L563.091 167.919L562.911 167.869V155.502L563.074 155.456C565.49 154.748 566.883 152.185 566.185 149.725Z" fill="#DF34A6"/>
</g>
<path d="M679.775 148.011L661.842 137.609C660.713 136.965 659.233 136.965 658.094 137.609L640.021 148.011C638.855 148.681 638.062 149.942 638.062 151.29V172.067C638.062 173.415 638.872 174.676 640.038 175.35L644.803 178.067C647.089 179.194 647.722 179.194 648.762 179.194C652.148 179.194 653.906 177.146 653.906 173.576V153.064C653.906 152.775 654.087 152.344 653.802 152.344H651.518C651.229 152.344 650.656 152.775 650.656 153.064V173.576C650.656 175.158 649.187 176.733 646.512 175.396L641.587 172.547C641.416 172.453 641.312 172.265 641.312 172.067V151.29C641.312 151.094 641.501 150.898 641.674 150.798L659.703 140.413C659.872 140.318 660.11 140.318 660.278 140.413L678.138 150.795C678.309 150.898 678.282 151.088 678.282 151.29V172.067C678.282 172.265 678.319 172.458 678.15 172.553L660.221 182.944C660.068 183.036 659.868 183.036 659.699 182.944L655.102 180.202C654.963 180.121 654.796 180.093 654.663 180.167C653.385 180.891 653.148 180.988 651.95 181.403C651.654 181.506 651.219 181.684 652.115 182.187L658.127 185.743C658.702 186.076 659.357 186.249 660.015 186.249C660.682 186.249 661.335 186.076 661.911 185.743L679.776 175.35C680.942 174.671 681.532 173.415 681.532 172.067V151.29C681.531 149.942 680.942 148.685 679.775 148.011ZM665.577 168.774C660.812 168.774 659.764 167.46 659.414 165.091C659.372 164.836 659.156 164.531 658.896 164.531H656.568C656.28 164.531 656.048 164.881 656.048 165.167C656.048 168.2 657.698 171.875 665.577 171.875C671.28 171.875 674.55 169.659 674.55 165.737C674.55 161.849 671.923 160.828 666.392 160.096C660.801 159.357 660.233 158.984 660.233 157.674C660.233 156.594 660.714 155.154 664.853 155.154C668.552 155.154 669.915 155.948 670.476 158.441C670.525 158.676 670.739 158.844 670.981 158.844H673.318C673.462 158.844 673.599 158.786 673.7 158.683C673.797 158.572 673.849 158.434 673.836 158.285C673.473 153.991 670.621 151.991 664.853 151.991C659.721 151.991 656.661 154.158 656.661 157.79C656.661 161.73 659.706 162.818 664.632 163.306C670.525 163.883 670.983 164.744 670.983 165.904C670.983 167.917 669.367 168.774 665.577 168.774Z" fill="#83CD29"/>
<g clip-path="url(#clip4_0_2720)">
<path d="M179.005 271.688L170.132 266.536V236.161L156.767 243.884L156.799 232.379L179.005 219.688V271.688ZM180.999 219.688V271.688L189.872 266.536V251.907L196.571 255.779L196.53 245.773L189.872 241.97V236.161L203.233 243.884L203.201 232.379L180.999 219.688Z" fill="#FF6F00"/>
</g>
<path d="M260 250.337C262.569 250.337 264.652 248.255 264.652 245.686C264.652 243.116 262.569 241.034 260 241.034C257.431 241.034 255.348 243.116 255.348 245.686C255.348 248.255 257.431 250.337 260 250.337Z" fill="#53C1DE"/>
<path d="M243.78 253.923C244.238 254.075 244.695 254.228 245.163 254.361C245.011 254.969 244.879 255.57 244.755 256.189C243.689 261.827 244.521 266.295 247.182 267.829C249.925 269.412 254.536 267.787 259.025 263.857C259.38 263.543 259.736 263.218 260.091 262.871C260.537 263.309 261.005 263.725 261.471 264.13C265.818 267.868 270.114 269.38 272.766 267.848C275.509 266.264 276.402 261.461 275.245 255.611C275.151 255.152 275.049 254.695 274.939 254.239C275.264 254.148 275.578 254.046 275.895 253.945C281.756 252.005 286 248.866 286 245.646C286 242.57 281.998 239.584 276.473 237.684C275.928 237.502 275.38 237.327 274.829 237.164C274.92 236.789 275.002 236.412 275.082 236.037C276.332 229.983 275.509 225.121 272.736 223.516C270.064 221.982 265.707 223.577 261.3 227.416C260.862 227.791 260.438 228.187 260.03 228.584C259.754 228.318 259.473 228.057 259.188 227.802C254.566 223.698 249.936 221.971 247.163 223.587C244.502 225.132 243.709 229.713 244.827 235.437C244.94 236.007 245.061 236.564 245.202 237.133C244.552 237.315 243.913 237.519 243.312 237.734C237.889 239.612 234 242.578 234 245.646C234 248.816 238.143 251.992 243.78 253.923ZM257.593 262.197C255.918 263.732 253.977 264.948 251.864 265.783C250.738 266.321 249.438 266.373 248.278 265.915C246.664 264.982 245.993 261.396 246.907 256.571C247.019 256.003 247.141 255.433 247.282 254.874C249.557 255.362 251.851 255.697 254.178 255.869C255.521 257.77 256.986 259.582 258.566 261.292C258.241 261.606 257.916 261.911 257.591 262.195L257.593 262.197ZM270.491 243.126C270.017 242.23 269.526 241.343 269.018 240.466C268.519 239.603 268.001 238.75 267.464 237.907C269.1 238.111 270.664 238.384 272.127 238.719C271.659 240.216 271.113 241.687 270.491 243.126ZM270.511 248.183C271.16 249.657 271.73 251.15 272.227 252.684C270.651 253.039 269.059 253.314 267.453 253.496C268.549 251.77 269.569 249.997 270.511 248.183ZM269.336 245.657C267.973 248.461 266.42 251.169 264.687 253.76C263.174 253.873 261.599 253.923 260.004 253.923C258.41 253.923 256.867 253.873 255.374 253.78C253.611 251.207 252.046 248.505 250.692 245.696H250.688C252.031 242.891 253.586 240.192 255.34 237.623C258.444 237.393 261.561 237.393 264.665 237.623C265.527 238.904 266.351 240.212 267.133 241.553C267.913 242.896 268.648 244.265 269.336 245.657ZM250.969 240.485C250.471 241.348 249.984 242.229 249.526 243.124C248.913 241.676 248.371 240.199 247.901 238.698C249.364 238.373 250.917 238.108 252.532 237.905C251.996 238.748 251.468 239.61 250.969 240.485ZM249.529 248.264C249.997 249.158 250.473 250.042 250.98 250.916C251.498 251.8 252.027 252.684 252.586 253.546C251.003 253.373 249.43 253.119 247.873 252.783C248.319 251.321 248.878 249.808 249.529 248.264ZM260.082 259.727C258.995 258.552 257.968 257.322 257.006 256.042C259.033 256.125 261.063 256.121 263.09 256.031C262.156 257.317 261.152 258.551 260.082 259.727ZM273.358 262.778C273.31 263.394 273.137 263.994 272.848 264.54C272.56 265.086 272.162 265.568 271.681 265.954C270.066 266.888 266.624 265.671 262.906 262.481C262.468 262.1 262.038 261.711 261.616 261.313C263.168 259.6 264.6 257.781 265.902 255.871C268.233 255.677 270.548 255.321 272.829 254.805C272.931 255.221 273.022 255.637 273.104 256.044C273.6 258.254 273.686 260.537 273.358 262.778ZM274.239 239.257C274.768 239.408 275.275 239.571 275.763 239.733C280.494 241.358 283.816 243.776 283.816 245.625C283.816 247.616 280.271 250.185 275.204 251.86C274.92 251.951 274.636 252.042 274.341 252.125C273.625 249.908 272.76 247.743 271.752 245.644C272.727 243.573 273.55 241.439 274.239 239.257ZM262.73 229.06C266.511 225.771 270.034 224.482 271.639 225.405C273.355 226.391 274.016 230.371 272.939 235.602C272.872 235.942 272.794 236.281 272.705 236.618C270.453 236.108 268.169 235.748 265.87 235.541C264.551 233.647 263.105 231.844 261.543 230.146C261.939 229.771 262.325 229.416 262.73 229.06ZM260.022 231.702C261.088 232.859 262.093 234.076 263.027 235.335C261.014 235.244 258.997 235.244 256.984 235.335C257.979 234.026 259.006 232.809 260.022 231.702ZM248.239 225.477C249.947 224.482 253.734 225.904 257.725 229.437C257.979 229.661 258.232 229.905 258.496 230.148C256.924 231.844 255.468 233.645 254.139 235.539C251.844 235.744 249.564 236.097 247.314 236.596C247.182 236.078 247.072 235.55 246.959 235.021C246.003 230.105 246.634 226.4 248.239 225.477ZM244.025 239.794C244.604 239.59 245.193 239.408 245.782 239.235C246.473 241.439 247.304 243.596 248.27 245.694C247.295 247.817 246.452 250.01 245.752 252.244L245.75 252.246C245.327 252.125 244.907 251.993 244.491 251.849C242.329 251.169 239.87 250.092 238.093 248.682C237.586 248.331 237.155 247.881 236.827 247.359C236.499 246.836 236.28 246.253 236.184 245.644C236.184 243.785 239.393 241.408 244.025 239.794Z" fill="#53C1DE"/>
<path d="M335.695 249.453L330.811 250.292C331.519 252.272 332.852 253.969 334.609 255.126L336.483 250.586C336.527 250.513 336.554 250.43 336.562 250.345C336.57 250.259 336.56 250.173 336.531 250.092C336.483 249.702 336.089 249.453 335.695 249.453ZM337.569 243.14C338.013 243.14 338.407 242.795 338.407 242.351L338.654 237.417L337.666 237.615C335.936 238.022 334.35 238.892 333.077 240.132L337.172 243.042C337.322 243.09 337.422 243.14 337.569 243.14ZM335.398 246.346C335.468 246.266 335.521 246.173 335.553 246.072C335.586 245.971 335.599 245.864 335.59 245.758C335.581 245.652 335.55 245.549 335.501 245.455C335.451 245.361 335.383 245.278 335.3 245.211L331.65 241.954C330.572 243.769 330.073 245.868 330.217 247.973L335.004 246.593C335.201 246.543 335.3 246.494 335.398 246.346ZM338.555 248.073L339.889 248.714L341.22 248.073L341.566 246.641L340.628 245.458H339.148L338.21 246.641L338.555 248.073ZM341.467 242.795C341.714 243.14 342.206 243.189 342.55 242.992L346.595 240.132C345.096 238.634 343.128 237.693 341.02 237.467L341.317 242.451C341.317 242.515 341.33 242.579 341.356 242.639C341.381 242.698 341.419 242.751 341.467 242.795Z" fill="#006FFF"/>
<path d="M361.545 250.244L357.797 234.111C357.552 233.322 356.959 232.681 356.218 232.287L341.172 225.082C340.778 224.885 340.334 224.835 339.939 224.835C339.545 224.835 339.101 224.835 338.707 224.933L323.657 232.187C323.286 232.356 322.96 232.609 322.703 232.926C322.447 233.242 322.266 233.614 322.177 234.011L318.476 250.244C318.329 251.082 318.526 251.921 319.018 252.612L329.429 265.489C330.02 266.08 330.859 266.477 331.697 266.526H348.275C349.163 266.624 350.001 266.23 350.545 265.489L360.956 252.612C361.448 251.921 361.645 251.082 361.545 250.244ZM355.381 251.329C355.282 251.329 355.234 251.329 355.134 251.28C355.087 251.23 355.087 251.23 355.037 251.23C354.937 251.23 354.889 251.182 354.837 251.182C354.64 251.132 354.493 251.035 354.296 250.935C354.191 250.926 354.089 250.892 353.999 250.838H353.951C353.44 250.639 352.911 250.49 352.372 250.393H352.324C352.179 250.39 352.037 250.443 351.93 250.541C351.93 250.541 351.93 250.591 351.88 250.591L351.483 250.539C350.577 253.347 348.683 255.731 346.153 257.249L346.301 257.643C346.301 257.643 346.253 257.643 346.253 257.691C346.209 257.764 346.181 257.847 346.173 257.932C346.165 258.018 346.176 258.104 346.205 258.185C346.403 258.679 346.65 259.171 346.994 259.615V259.712C347.075 259.782 347.141 259.865 347.191 259.959C347.334 260.103 347.45 260.27 347.536 260.453C347.586 260.501 347.635 260.551 347.635 260.601C347.635 260.601 347.683 260.601 347.683 260.648C347.774 260.885 347.791 261.143 347.733 261.389C347.703 261.507 347.648 261.616 347.571 261.71C347.495 261.803 347.398 261.879 347.289 261.931C347.141 261.979 347.042 262.028 346.892 262.028C346.698 262.021 346.509 261.962 346.344 261.859C346.179 261.755 346.045 261.609 345.954 261.437C345.906 261.437 345.906 261.389 345.906 261.389C345.859 261.339 345.859 261.292 345.807 261.242C345.709 261.095 345.659 260.897 345.61 260.7L345.51 260.403V260.356C345.348 259.826 345.133 259.313 344.869 258.826C344.774 258.686 344.635 258.582 344.474 258.529C344.474 258.479 344.474 258.479 344.424 258.479L344.227 258.135C343.733 258.282 343.189 258.479 342.648 258.579C341.759 258.826 340.871 258.924 339.985 258.924C338.517 258.934 337.061 258.666 335.693 258.135L335.496 258.529C335.496 258.579 335.496 258.579 335.446 258.579C335.285 258.631 335.146 258.736 335.051 258.876C334.804 259.37 334.557 259.862 334.41 260.406L334.313 260.702C334.263 260.9 334.165 261.047 334.115 261.244C334.068 261.294 334.018 261.342 334.018 261.391C333.968 261.391 333.968 261.439 333.968 261.439C333.878 261.612 333.744 261.758 333.579 261.862C333.414 261.966 333.225 262.024 333.03 262.031C332.91 262.02 332.793 261.987 332.685 261.933C332.463 261.803 332.298 261.592 332.225 261.345C332.152 261.097 332.175 260.831 332.291 260.601C332.341 260.601 332.341 260.551 332.341 260.551C332.389 260.501 332.389 260.453 332.438 260.403C332.586 260.206 332.685 260.009 332.783 259.909C332.88 259.81 332.93 259.762 332.98 259.662V259.613C333.291 259.164 333.555 258.685 333.769 258.183C333.798 258.102 333.808 258.015 333.799 257.93C333.791 257.845 333.763 257.762 333.719 257.689C333.719 257.689 333.671 257.689 333.671 257.641L333.918 257.294C333.445 257.045 332.998 256.747 332.586 256.406C330.686 254.935 329.275 252.922 328.541 250.634L328.096 250.682C328.096 250.682 328.096 250.634 328.047 250.634C327.94 250.535 327.798 250.482 327.652 250.487H327.605C327.049 250.582 326.504 250.73 325.977 250.931H325.925C325.828 250.931 325.728 250.981 325.629 251.03C325.481 251.078 325.284 251.178 325.087 251.228C325.039 251.228 324.89 251.18 324.89 251.228C324.89 251.277 324.89 251.277 324.84 251.277C324.742 251.327 324.693 251.327 324.593 251.327C324.373 251.351 324.151 251.293 323.97 251.166C323.788 251.039 323.659 250.851 323.605 250.636C323.58 250.51 323.581 250.379 323.608 250.253C323.634 250.127 323.686 250.008 323.76 249.902C323.833 249.796 323.927 249.706 324.036 249.637C324.145 249.568 324.266 249.522 324.394 249.501C324.443 249.451 324.443 249.451 324.493 249.451C324.591 249.451 324.641 249.403 324.69 249.403C324.888 249.403 325.085 249.353 325.282 249.353C325.379 249.306 325.479 249.306 325.579 249.306C326.146 249.259 326.707 249.16 327.256 249.009C327.403 248.909 327.553 248.812 327.602 248.662C327.602 248.662 327.65 248.662 327.65 248.615L328.044 248.515C327.6 245.703 328.242 242.843 329.771 240.425C329.819 240.327 329.869 240.277 329.919 240.178L329.635 239.892C329.633 239.906 329.63 239.919 329.626 239.933V239.883L329.635 239.892C329.656 239.751 329.568 239.577 329.479 239.489C329.084 239.094 328.59 238.797 328.096 238.503L327.802 238.353C327.615 238.265 327.434 238.167 327.258 238.059C327.21 238.059 327.111 237.961 327.111 237.961C327.111 237.961 327.111 237.911 327.063 237.911C326.868 237.744 326.74 237.511 326.703 237.257C326.666 237.002 326.723 236.743 326.864 236.527C327.011 236.28 327.258 236.182 327.555 236.182C327.806 236.188 328.048 236.275 328.246 236.429L328.296 236.479C328.343 236.527 328.393 236.527 328.443 236.577C328.59 236.726 328.69 236.873 328.837 237.021C328.887 237.068 328.985 237.118 329.035 237.218C329.379 237.612 329.823 238.007 330.267 238.353C330.365 238.401 330.465 238.451 330.564 238.451C330.662 238.451 330.712 238.401 330.761 238.401H330.811L331.108 238.598C332.735 236.859 334.851 235.654 337.177 235.144C337.768 235.045 338.31 234.947 338.854 234.897L338.904 234.503V234.406C339.051 234.308 339.101 234.159 339.151 234.011C339.151 233.42 339.151 232.876 339.053 232.334V232.284C339.053 232.187 339.053 232.087 339.003 231.988C338.947 231.795 338.914 231.597 338.906 231.396V231.151C338.906 230.904 339.003 230.657 339.203 230.46C339.45 230.213 339.744 230.066 340.041 230.116C340.286 230.15 340.509 230.276 340.665 230.468C340.821 230.66 340.898 230.904 340.88 231.151V231.448C340.83 231.645 340.83 231.842 340.782 232.04C340.782 232.137 340.732 232.237 340.732 232.334V232.384C340.628 232.976 340.628 233.519 340.628 234.061C340.678 234.208 340.726 234.356 340.875 234.455V234.406L340.925 234.8C343.26 235.044 345.48 235.932 347.339 237.365C347.735 237.76 348.177 238.154 348.571 238.548L348.968 238.301H349.016C349.063 238.351 349.163 238.351 349.213 238.351C349.312 238.351 349.41 238.301 349.51 238.254C349.954 237.957 350.398 237.562 350.742 237.168C350.79 237.118 350.89 237.068 350.94 236.971C351.039 236.824 351.187 236.674 351.336 236.527C351.384 236.527 351.434 236.479 351.483 236.429L351.531 236.379C351.729 236.226 351.97 236.14 352.22 236.132C352.467 236.132 352.764 236.28 352.911 236.479C353.256 236.923 353.156 237.515 352.714 237.859C352.714 237.909 352.762 237.909 352.714 237.959C352.664 238.007 352.614 238.007 352.567 238.056C352.367 238.154 352.22 238.254 352.023 238.353L351.726 238.501C351.235 238.784 350.772 239.114 350.344 239.486C350.246 239.586 350.196 239.783 350.196 239.931V239.98L349.902 240.277C350.69 241.51 351.284 242.892 351.629 244.322C351.925 245.752 352.023 247.232 351.826 248.662L352.22 248.762C352.251 248.84 352.297 248.912 352.357 248.971C352.417 249.03 352.488 249.076 352.567 249.106C353.108 249.254 353.7 249.353 354.242 249.403H354.291C354.385 249.442 354.487 249.459 354.588 249.451C354.785 249.451 354.983 249.451 355.178 249.501C355.277 249.501 355.377 249.501 355.377 249.551C355.377 249.598 355.425 249.598 355.474 249.598C355.713 249.656 355.927 249.787 356.087 249.973C356.247 250.159 356.343 250.392 356.363 250.636C356.288 250.837 356.155 251.011 355.98 251.135C355.804 251.259 355.596 251.327 355.381 251.329Z" fill="#006FFF"/>
<path d="M340.184 251.576C340.024 251.484 339.835 251.453 339.654 251.489C339.473 251.526 339.311 251.627 339.198 251.773L336.78 256.165C337.768 256.46 338.854 256.659 339.889 256.659C340.628 256.659 341.319 256.562 342.011 256.412C342.355 256.315 342.652 256.265 342.949 256.215L340.581 251.923C340.431 251.773 340.331 251.674 340.184 251.576ZM348.079 241.954L344.379 245.308C344.284 245.405 344.216 245.524 344.182 245.655C344.082 246.099 344.329 246.543 344.773 246.641L349.46 247.973C349.565 246.933 349.498 245.882 349.26 244.864C349.022 243.838 348.623 242.856 348.079 241.954ZM343.588 249.503C343.415 249.581 343.275 249.719 343.194 249.891C343.113 250.062 343.095 250.257 343.144 250.441L345.07 255.08C346.265 254.327 347.276 253.315 348.03 252.12C348.424 251.578 348.719 250.935 348.968 250.246L344.034 249.407C343.881 249.414 343.73 249.446 343.588 249.503Z" fill="#006FFF"/>
<g clip-path="url(#clip5_0_2720)">
<path d="M412.783 222.762H418.467V234.562H412.783V222.762ZM412.783 247.002H418.467V258.801H412.783V247.002Z" fill="#2A10BC"/>
<path d="M412.783 238.006H418.467V243.574H412.783V238.006Z" fill="#FFCA00"/>
<path d="M403.654 232.462H409.337V271.687H403.653L403.654 232.462ZM421.725 256.737H427.408V268.537H421.725V256.737ZM421.725 232.476H427.408V244.277H421.725V232.476Z" fill="#2A10BC"/>
<path d="M421.725 247.723H427.408V253.291H421.725V247.723Z" fill="#E70488"/>
<path d="M430.663 219.688H436.347V258.913H430.663V219.688Z" fill="#2A10BC"/>
</g>
<path d="M514.666 235.247L510.928 238.984C517.062 245.119 517.062 254.991 510.928 261.044C504.794 267.178 494.922 267.178 488.869 261.044C482.734 254.909 482.734 245.038 488.869 238.984L498.619 229.234L500 227.853V220.5L485.294 235.206C477.128 243.372 477.128 256.575 485.294 264.781C493.459 272.987 506.662 272.947 514.706 264.781C522.872 256.575 522.872 243.453 514.666 235.247Z" fill="#EE4C2C"/>
<path d="M510.062 231.669C510.09 230.166 508.894 228.925 507.391 228.897C505.889 228.869 504.648 230.065 504.62 231.568C504.592 233.071 505.788 234.312 507.291 234.34C508.794 234.368 510.035 233.172 510.062 231.669Z" fill="#EE4C2C"/>
<g clip-path="url(#clip6_0_2720)">
<path d="M606 271.688H554V219.688H606V271.688Z" fill="#D00000"/>
<path d="M567.853 260.028C567.853 260.069 567.894 260.109 567.894 260.15L568.787 261.044C568.828 261.084 568.869 261.084 568.909 261.084H571.956C571.997 261.084 572.037 261.044 572.078 261.044L572.972 260.15C573.012 260.109 573.012 260.069 573.012 260.028V250.359C573.012 250.319 573.053 250.278 573.053 250.237L576.912 246.541C576.953 246.5 576.994 246.5 576.994 246.541L586.784 261.003C586.825 261.044 586.866 261.044 586.906 261.044H591.212C591.253 261.044 591.294 261.003 591.334 260.962L592.106 259.459V259.337L580.691 242.803C580.65 242.762 580.691 242.722 580.691 242.681L591.212 232.2C591.253 232.159 591.253 232.119 591.253 232.078V231.875C591.253 231.834 591.253 231.794 591.212 231.753L590.603 230.372C590.603 230.331 590.562 230.291 590.522 230.291H586.256C586.216 230.291 586.175 230.331 586.134 230.331L573.094 243.453C573.053 243.494 573.053 243.453 573.053 243.412V231.428C573.053 231.387 573.012 231.347 573.012 231.306L572.119 230.372C572.078 230.331 572.037 230.331 571.997 230.331H568.909C568.869 230.331 568.828 230.372 568.787 230.372L567.894 231.347C567.853 231.387 567.853 231.428 567.853 231.469V260.028Z" fill="white"/>
</g>
</g>
<defs>
<linearGradient id="paint0_linear_0_2720" x1="379.602" y1="259.538" x2="379.602" y2="566.462" gradientUnits="userSpaceOnUse">
<stop stop-color="#0A0A0A"/>
<stop offset="0.47" stop-color="#717171" stop-opacity="0.53"/>
<stop offset="1" stop-color="#E5E5E5" stop-opacity="0"/>
</linearGradient>
<linearGradient id="paint1_linear_0_2720" x1="379.603" y1="167.462" x2="379.603" y2="658.538" gradientUnits="userSpaceOnUse">
<stop stop-color="#0A0A0A"/>
<stop offset="0.47" stop-color="#717171" stop-opacity="0.53"/>
<stop offset="1" stop-color="#E5E5E5" stop-opacity="0"/>
</linearGradient>
<linearGradient id="paint2_linear_0_2720" x1="379.603" y1="228.846" x2="379.603" y2="597.154" gradientUnits="userSpaceOnUse">
<stop stop-color="#0A0A0A"/>
<stop offset="0.47" stop-color="#717171" stop-opacity="0.53"/>
<stop offset="1" stop-color="#E5E5E5" stop-opacity="0"/>
</linearGradient>
<linearGradient id="paint3_linear_0_2720" x1="379.602" y1="106.077" x2="379.602" y2="719.923" gradientUnits="userSpaceOnUse">
<stop stop-color="#0A0A0A"/>
<stop offset="0.47" stop-color="#717171" stop-opacity="0.53"/>
<stop offset="1" stop-color="#E5E5E5" stop-opacity="0"/>
</linearGradient>
<linearGradient id="paint4_linear_0_2720" x1="379.602" y1="44.6922" x2="379.602" y2="781.308" gradientUnits="userSpaceOnUse">
<stop stop-color="#0A0A0A"/>
<stop offset="0.47" stop-color="#717171" stop-opacity="0.53"/>
<stop offset="1" stop-color="#E5E5E5" stop-opacity="0"/>
</linearGradient>
<linearGradient id="paint5_linear_0_2720" x1="379.603" y1="198.154" x2="379.603" y2="627.846" gradientUnits="userSpaceOnUse">
<stop stop-color="#0A0A0A"/>
<stop offset="0.47" stop-color="#717171" stop-opacity="0.53"/>
<stop offset="1" stop-color="#E5E5E5" stop-opacity="0"/>
</linearGradient>
<linearGradient id="paint6_linear_0_2720" x1="379.603" y1="136.769" x2="379.603" y2="689.231" gradientUnits="userSpaceOnUse">
<stop stop-color="#0A0A0A"/>
<stop offset="0.47" stop-color="#717171" stop-opacity="0.53"/>
<stop offset="1" stop-color="#E5E5E5" stop-opacity="0"/>
</linearGradient>
<linearGradient id="paint7_linear_0_2720" x1="379.602" y1="75.3844" x2="379.602" y2="750.615" gradientUnits="userSpaceOnUse">
<stop stop-color="#0A0A0A"/>
<stop offset="0.47" stop-color="#717171" stop-opacity="0.53"/>
<stop offset="1" stop-color="#E5E5E5" stop-opacity="0"/>
</linearGradient>
<linearGradient id="paint8_linear_0_2720" x1="379.603" y1="14" x2="379.603" y2="812" gradientUnits="userSpaceOnUse">
<stop stop-color="#0A0A0A"/>
<stop offset="0.47" stop-color="#717171" stop-opacity="0.53"/>
<stop offset="1" stop-color="#E5E5E5" stop-opacity="0"/>
</linearGradient>
<linearGradient id="paint9_linear_0_2720" x1="379.602" y1="259.538" x2="379.602" y2="566.462" gradientUnits="userSpaceOnUse">
<stop stop-color="#0A0A0A"/>
<stop offset="0.47" stop-color="#717171" stop-opacity="0.53"/>
<stop offset="1" stop-color="#E5E5E5" stop-opacity="0"/>
</linearGradient>
<linearGradient id="paint10_linear_0_2720" x1="379.603" y1="-323.615" x2="379.603" y2="351.615" gradientUnits="userSpaceOnUse">
<stop offset="0.375" stop-color="#23D5D5"/>
<stop offset="0.765" stop-color="#1EB2B2"/>
<stop offset="1" stop-color="#101010" stop-opacity="0"/>
</linearGradient>
<clipPath id="clip0_0_2720">
<rect width="52" height="52" fill="white" transform="translate(74 135.688)"/>
</clipPath>
<clipPath id="clip1_0_2720">
<rect width="52" height="52" fill="white" transform="translate(234 135.688)"/>
</clipPath>
<clipPath id="clip2_0_2720">
<rect width="52" height="52" fill="white" transform="translate(314 135.688)"/>
</clipPath>
<clipPath id="clip3_0_2720">
<rect width="52" height="52" fill="white" transform="translate(554 135.688)"/>
</clipPath>
<clipPath id="clip4_0_2720">
<rect width="52" height="52" fill="white" transform="translate(154 219.688)"/>
</clipPath>
<clipPath id="clip5_0_2720">
<rect width="52" height="52" fill="white" transform="translate(394 219.688)"/>
</clipPath>
<clipPath id="clip6_0_2720">
<rect width="52" height="52" fill="white" transform="translate(554 219.688)"/>
</clipPath>
</defs>
</svg>
