<svg width="1439" height="678" viewBox="0 0 1439 678" fill="none" xmlns="http://www.w3.org/2000/svg">
<g clip-path="url(#clip0_0_1182)">
<rect width="1440" height="709" transform="translate(-1)" fill="#011010"/>
<g opacity="0.8">
<mask id="mask0_0_1182" style="mask-type:alpha" maskUnits="userSpaceOnUse" x="335" y="-174" width="768" height="768">
<rect width="768" height="768" transform="translate(335 -174)" fill="url(#paint0_radial_0_1182)"/>
</mask>
<g mask="url(#mask0_0_1182)">
<g clip-path="url(#clip1_0_1182)">
<g opacity="0.5">
<g clip-path="url(#clip2_0_1182)">
<line x1="335.3" y1="-174" x2="335.3" y2="594" stroke="#0BCACA" stroke-opacity="0.4" stroke-width="0.6"/>
<line x1="383.3" y1="-174" x2="383.3" y2="594" stroke="#0BCACA" stroke-opacity="0.4" stroke-width="0.6"/>
<line x1="431.3" y1="-174" x2="431.3" y2="594" stroke="#0BCACA" stroke-opacity="0.4" stroke-width="0.6"/>
<line x1="479.3" y1="-174" x2="479.3" y2="594" stroke="#0BCACA" stroke-opacity="0.4" stroke-width="0.6"/>
<line x1="527.3" y1="-174" x2="527.3" y2="594" stroke="#0BCACA" stroke-opacity="0.4" stroke-width="0.6"/>
<line x1="575.3" y1="-174" x2="575.3" y2="594" stroke="#0BCACA" stroke-opacity="0.4" stroke-width="0.6"/>
<line x1="623.3" y1="-174" x2="623.3" y2="594" stroke="#0BCACA" stroke-opacity="0.4" stroke-width="0.6"/>
<line x1="671.3" y1="-174" x2="671.3" y2="594" stroke="#0BCACA" stroke-opacity="0.4" stroke-width="0.6"/>
<line x1="719.3" y1="-174" x2="719.3" y2="594" stroke="#0BCACA" stroke-opacity="0.4" stroke-width="0.6"/>
<line x1="767.3" y1="-174" x2="767.3" y2="594" stroke="#0BCACA" stroke-opacity="0.4" stroke-width="0.6"/>
<line x1="815.3" y1="-174" x2="815.3" y2="594" stroke="#0BCACA" stroke-opacity="0.4" stroke-width="0.6"/>
<line x1="863.3" y1="-174" x2="863.3" y2="594" stroke="#0BCACA" stroke-opacity="0.4" stroke-width="0.6"/>
<line x1="911.3" y1="-174" x2="911.3" y2="594" stroke="#0BCACA" stroke-opacity="0.4" stroke-width="0.6"/>
<line x1="959.3" y1="-174" x2="959.3" y2="594" stroke="#0BCACA" stroke-opacity="0.4" stroke-width="0.6"/>
<line x1="1007.3" y1="-174" x2="1007.3" y2="594" stroke="#0BCACA" stroke-opacity="0.4" stroke-width="0.6"/>
<line x1="1055.3" y1="-174" x2="1055.3" y2="594" stroke="#0BCACA" stroke-opacity="0.4" stroke-width="0.6"/>
</g>
<rect x="335.5" y="-173.5" width="767" height="767" stroke="#1F242F"/>
</g>
<g opacity="0.5">
<g clip-path="url(#clip3_0_1182)">
<line x1="335" y1="17.7" x2="1103" y2="17.7" stroke="#0BCACA" stroke-opacity="0.4" stroke-width="0.6"/>
<line x1="335" y1="65.7" x2="1103" y2="65.7" stroke="#0BCACA" stroke-opacity="0.4" stroke-width="0.6"/>
<line x1="335" y1="113.7" x2="1103" y2="113.7" stroke="#0BCACA" stroke-opacity="0.4" stroke-width="0.6"/>
<line x1="335" y1="161.7" x2="1103" y2="161.7" stroke="#0BCACA" stroke-opacity="0.4" stroke-width="0.6"/>
<line x1="335" y1="209.7" x2="1103" y2="209.7" stroke="#0BCACA" stroke-opacity="0.4" stroke-width="0.6"/>
<line x1="335" y1="257.7" x2="1103" y2="257.7" stroke="#0BCACA" stroke-opacity="0.4" stroke-width="0.6"/>
<line x1="335" y1="305.7" x2="1103" y2="305.7" stroke="#0BCACA" stroke-opacity="0.4" stroke-width="0.6"/>
<line x1="335" y1="353.7" x2="1103" y2="353.7" stroke="#0BCACA" stroke-opacity="0.4" stroke-width="0.6"/>
<line x1="335" y1="401.7" x2="1103" y2="401.7" stroke="#0BCACA" stroke-opacity="0.4" stroke-width="0.6"/>
<line x1="335" y1="449.7" x2="1103" y2="449.7" stroke="#0BCACA" stroke-opacity="0.4" stroke-width="0.6"/>
<line x1="335" y1="497.7" x2="1103" y2="497.7" stroke="#0BCACA" stroke-opacity="0.4" stroke-width="0.6"/>
<line x1="335" y1="545.7" x2="1103" y2="545.7" stroke="#0BCACA" stroke-opacity="0.4" stroke-width="0.6"/>
<line x1="335" y1="593.7" x2="1103" y2="593.7" stroke="#0BCACA" stroke-opacity="0.4" stroke-width="0.6"/>
</g>
<rect x="335.5" y="-173.5" width="767" height="767" stroke="#1F242F"/>
</g>
</g>
<path d="M719 102L719 126" stroke="url(#paint1_linear_0_1182)"/>
<path d="M731 114L707 114" stroke="url(#paint2_linear_0_1182)"/>
<path d="M575 202L575 218" stroke="url(#paint3_linear_0_1182)"/>
<path d="M587 210L563 210" stroke="url(#paint4_linear_0_1182)"/>
<path d="M960 344L960 362" stroke="url(#paint5_linear_0_1182)"/>
<path d="M969 353L951 353" stroke="url(#paint6_linear_0_1182)"/>
<path d="M911 202L911 218" stroke="url(#paint7_linear_0_1182)"/>
<path d="M919 210L903 210" stroke="url(#paint8_linear_0_1182)"/>
<path d="M528 297L528 315" stroke="url(#paint9_linear_0_1182)"/>
<path d="M537 306L519 306" stroke="url(#paint10_linear_0_1182)"/>
<path d="M912 54L912 78" stroke="url(#paint11_linear_0_1182)"/>
<path d="M924 66L900 66" stroke="url(#paint12_linear_0_1182)"/>
<path d="M815 149L815 173" stroke="url(#paint13_linear_0_1182)"/>
<path d="M827 161L803 161" stroke="url(#paint14_linear_0_1182)"/>
<circle cx="623" cy="162" r="2" fill="#0BCACA" fill-opacity="0.4"/>
<circle cx="815" cy="66" r="2" fill="#0BCACA" fill-opacity="0.4"/>
<circle cx="864" cy="258" r="2" fill="#0BCACA" fill-opacity="0.4"/>
<circle cx="479" cy="210" r="2" fill="#0BCACA" fill-opacity="0.4"/>
<rect x="863" y="114" width="49" height="48" fill="#0BCACA" fill-opacity="0.15"/>
<rect x="431" y="258" width="49" height="48" fill="#0BCACA" fill-opacity="0.15"/>
<rect x="960" y="258" width="49" height="48" fill="#0BCACA" fill-opacity="0.15"/>
</g>
</g>
<g filter="url(#filter0_f_0_1182)">
<ellipse cx="1478" cy="275.521" rx="293" ry="322.521" fill="url(#paint15_linear_0_1182)"/>
</g>
<g filter="url(#filter1_f_0_1182)">
<ellipse cx="1496" cy="275" rx="124" ry="157" fill="white" fill-opacity="0.5"/>
</g>
<path d="M1148 130L1148 154" stroke="url(#paint16_linear_0_1182)"/>
<path d="M1160 142L1136 142" stroke="url(#paint17_linear_0_1182)"/>
<path d="M1292 80L1292 104" stroke="url(#paint18_linear_0_1182)"/>
<path d="M1304 92L1280 92" stroke="url(#paint19_linear_0_1182)"/>
<g opacity="0.3">
<path d="M413 542L413 566" stroke="url(#paint20_linear_0_1182)"/>
<path d="M425 554L401 554" stroke="url(#paint21_linear_0_1182)"/>
</g>
<g opacity="0.3">
<path d="M171 213L171 237" stroke="url(#paint22_linear_0_1182)"/>
<path d="M183 225L159 225" stroke="url(#paint23_linear_0_1182)"/>
</g>
<g opacity="0.3">
<path d="M175 410L175 426" stroke="url(#paint24_linear_0_1182)"/>
<path d="M183 418L167 418" stroke="url(#paint25_linear_0_1182)"/>
</g>
<path opacity="0.5" d="M76 92L76 116" stroke="url(#paint26_linear_0_1182)"/>
<path opacity="0.5" d="M88 104L64 104" stroke="url(#paint27_linear_0_1182)"/>
<path d="M1312 519L1312 535" stroke="url(#paint28_linear_0_1182)"/>
<path d="M1320 527L1304 527" stroke="url(#paint29_linear_0_1182)"/>
<g opacity="0.5">
<path d="M1363 165L1363 189" stroke="url(#paint30_linear_0_1182)"/>
<path d="M1375 177L1351 177" stroke="url(#paint31_linear_0_1182)"/>
</g>
<g opacity="0.5">
<path d="M912 605L912 629" stroke="url(#paint32_linear_0_1182)"/>
<path d="M924 617L900 617" stroke="url(#paint33_linear_0_1182)"/>
</g>
<g opacity="0.5">
<path d="M1235 325L1235 349" stroke="url(#paint34_linear_0_1182)"/>
<path d="M1247 337L1223 337" stroke="url(#paint35_linear_0_1182)"/>
</g>
</g>
<defs>
<filter id="filter0_f_0_1182" x="945" y="-287" width="1066" height="1125.04" filterUnits="userSpaceOnUse" color-interpolation-filters="sRGB">
<feFlood flood-opacity="0" result="BackgroundImageFix"/>
<feBlend mode="normal" in="SourceGraphic" in2="BackgroundImageFix" result="shape"/>
<feGaussianBlur stdDeviation="120" result="effect1_foregroundBlur_0_1182"/>
</filter>
<filter id="filter1_f_0_1182" x="1052" y="-202" width="888" height="954" filterUnits="userSpaceOnUse" color-interpolation-filters="sRGB">
<feFlood flood-opacity="0" result="BackgroundImageFix"/>
<feBlend mode="normal" in="SourceGraphic" in2="BackgroundImageFix" result="shape"/>
<feGaussianBlur stdDeviation="160" result="effect1_foregroundBlur_0_1182"/>
</filter>
<radialGradient id="paint0_radial_0_1182" cx="0" cy="0" r="1" gradientUnits="userSpaceOnUse" gradientTransform="translate(384 384) rotate(90) scale(384 384)">
<stop/>
<stop offset="1" stop-opacity="0"/>
</radialGradient>
<linearGradient id="paint1_linear_0_1182" x1="719" y1="126" x2="719" y2="102" gradientUnits="userSpaceOnUse">
<stop stop-color="white" stop-opacity="0"/>
<stop offset="0.50284" stop-color="white"/>
<stop offset="1" stop-color="white" stop-opacity="0"/>
</linearGradient>
<linearGradient id="paint2_linear_0_1182" x1="707" y1="114" x2="731" y2="114" gradientUnits="userSpaceOnUse">
<stop stop-color="white" stop-opacity="0"/>
<stop offset="0.50284" stop-color="white"/>
<stop offset="1" stop-color="white" stop-opacity="0"/>
</linearGradient>
<linearGradient id="paint3_linear_0_1182" x1="575" y1="218" x2="575" y2="202" gradientUnits="userSpaceOnUse">
<stop stop-color="white" stop-opacity="0"/>
<stop offset="0.50284" stop-color="white"/>
<stop offset="1" stop-color="white" stop-opacity="0"/>
</linearGradient>
<linearGradient id="paint4_linear_0_1182" x1="563" y1="210" x2="587" y2="210" gradientUnits="userSpaceOnUse">
<stop stop-color="white" stop-opacity="0"/>
<stop offset="0.50284" stop-color="white"/>
<stop offset="1" stop-color="white" stop-opacity="0"/>
</linearGradient>
<linearGradient id="paint5_linear_0_1182" x1="960" y1="362" x2="960" y2="344" gradientUnits="userSpaceOnUse">
<stop stop-color="white" stop-opacity="0"/>
<stop offset="0.50284" stop-color="white"/>
<stop offset="1" stop-color="white" stop-opacity="0"/>
</linearGradient>
<linearGradient id="paint6_linear_0_1182" x1="951" y1="353" x2="969" y2="353" gradientUnits="userSpaceOnUse">
<stop stop-color="white" stop-opacity="0"/>
<stop offset="0.50284" stop-color="white"/>
<stop offset="1" stop-color="white" stop-opacity="0"/>
</linearGradient>
<linearGradient id="paint7_linear_0_1182" x1="911" y1="218" x2="911" y2="202" gradientUnits="userSpaceOnUse">
<stop stop-color="white" stop-opacity="0"/>
<stop offset="0.50284" stop-color="white"/>
<stop offset="1" stop-color="white" stop-opacity="0"/>
</linearGradient>
<linearGradient id="paint8_linear_0_1182" x1="903" y1="210" x2="919" y2="210" gradientUnits="userSpaceOnUse">
<stop stop-color="white" stop-opacity="0"/>
<stop offset="0.50284" stop-color="white"/>
<stop offset="1" stop-color="white" stop-opacity="0"/>
</linearGradient>
<linearGradient id="paint9_linear_0_1182" x1="528" y1="315" x2="528" y2="297" gradientUnits="userSpaceOnUse">
<stop stop-color="white" stop-opacity="0"/>
<stop offset="0.50284" stop-color="white"/>
<stop offset="1" stop-color="white" stop-opacity="0"/>
</linearGradient>
<linearGradient id="paint10_linear_0_1182" x1="519" y1="306" x2="537" y2="306" gradientUnits="userSpaceOnUse">
<stop stop-color="white" stop-opacity="0"/>
<stop offset="0.50284" stop-color="white"/>
<stop offset="1" stop-color="white" stop-opacity="0"/>
</linearGradient>
<linearGradient id="paint11_linear_0_1182" x1="912" y1="78" x2="912" y2="54" gradientUnits="userSpaceOnUse">
<stop stop-color="white" stop-opacity="0"/>
<stop offset="0.50284" stop-color="white"/>
<stop offset="1" stop-color="white" stop-opacity="0"/>
</linearGradient>
<linearGradient id="paint12_linear_0_1182" x1="900" y1="66" x2="924" y2="66" gradientUnits="userSpaceOnUse">
<stop stop-color="white" stop-opacity="0"/>
<stop offset="0.50284" stop-color="white"/>
<stop offset="1" stop-color="white" stop-opacity="0"/>
</linearGradient>
<linearGradient id="paint13_linear_0_1182" x1="815" y1="173" x2="815" y2="149" gradientUnits="userSpaceOnUse">
<stop stop-color="white" stop-opacity="0"/>
<stop offset="0.50284" stop-color="white"/>
<stop offset="1" stop-color="white" stop-opacity="0"/>
</linearGradient>
<linearGradient id="paint14_linear_0_1182" x1="803" y1="161" x2="827" y2="161" gradientUnits="userSpaceOnUse">
<stop stop-color="white" stop-opacity="0"/>
<stop offset="0.50284" stop-color="white"/>
<stop offset="1" stop-color="white" stop-opacity="0"/>
</linearGradient>
<linearGradient id="paint15_linear_0_1182" x1="1478" y1="-47" x2="1478" y2="598.041" gradientUnits="userSpaceOnUse">
<stop stop-color="#23D5D5" stop-opacity="0"/>
<stop offset="1" stop-color="#23D5D5"/>
</linearGradient>
<linearGradient id="paint16_linear_0_1182" x1="1148" y1="154" x2="1148" y2="130" gradientUnits="userSpaceOnUse">
<stop stop-color="#0BCACA" stop-opacity="0"/>
<stop offset="0.50284" stop-color="#0BCACA"/>
<stop offset="1" stop-color="#0BCACA" stop-opacity="0"/>
</linearGradient>
<linearGradient id="paint17_linear_0_1182" x1="1136" y1="142" x2="1160" y2="142" gradientUnits="userSpaceOnUse">
<stop stop-color="#0BCACA" stop-opacity="0"/>
<stop offset="0.50284" stop-color="#0BCACA"/>
<stop offset="1" stop-color="#0BCACA" stop-opacity="0"/>
</linearGradient>
<linearGradient id="paint18_linear_0_1182" x1="1292" y1="104" x2="1292" y2="80" gradientUnits="userSpaceOnUse">
<stop stop-color="white" stop-opacity="0"/>
<stop offset="0.50284" stop-color="white"/>
<stop offset="1" stop-color="white" stop-opacity="0"/>
</linearGradient>
<linearGradient id="paint19_linear_0_1182" x1="1280" y1="92" x2="1304" y2="92" gradientUnits="userSpaceOnUse">
<stop stop-color="white" stop-opacity="0"/>
<stop offset="0.50284" stop-color="white"/>
<stop offset="1" stop-color="white" stop-opacity="0"/>
</linearGradient>
<linearGradient id="paint20_linear_0_1182" x1="413" y1="566" x2="413" y2="542" gradientUnits="userSpaceOnUse">
<stop stop-color="#0BCACA" stop-opacity="0"/>
<stop offset="0.50284" stop-color="#0BCACA"/>
<stop offset="1" stop-color="#0BCACA" stop-opacity="0"/>
</linearGradient>
<linearGradient id="paint21_linear_0_1182" x1="401" y1="554" x2="425" y2="554" gradientUnits="userSpaceOnUse">
<stop stop-color="#0BCACA" stop-opacity="0"/>
<stop offset="0.50284" stop-color="#0BCACA"/>
<stop offset="1" stop-color="#0BCACA" stop-opacity="0"/>
</linearGradient>
<linearGradient id="paint22_linear_0_1182" x1="171" y1="237" x2="171" y2="213" gradientUnits="userSpaceOnUse">
<stop stop-color="white" stop-opacity="0"/>
<stop offset="0.50284" stop-color="white"/>
<stop offset="1" stop-color="white" stop-opacity="0"/>
</linearGradient>
<linearGradient id="paint23_linear_0_1182" x1="159" y1="225" x2="183" y2="225" gradientUnits="userSpaceOnUse">
<stop stop-color="white" stop-opacity="0"/>
<stop offset="0.50284" stop-color="white"/>
<stop offset="1" stop-color="white" stop-opacity="0"/>
</linearGradient>
<linearGradient id="paint24_linear_0_1182" x1="175" y1="426" x2="175" y2="410" gradientUnits="userSpaceOnUse">
<stop stop-color="white" stop-opacity="0"/>
<stop offset="0.50284" stop-color="white"/>
<stop offset="1" stop-color="white" stop-opacity="0"/>
</linearGradient>
<linearGradient id="paint25_linear_0_1182" x1="167" y1="418" x2="183" y2="418" gradientUnits="userSpaceOnUse">
<stop stop-color="white" stop-opacity="0"/>
<stop offset="0.50284" stop-color="white"/>
<stop offset="1" stop-color="white" stop-opacity="0"/>
</linearGradient>
<linearGradient id="paint26_linear_0_1182" x1="76" y1="116" x2="76" y2="92" gradientUnits="userSpaceOnUse">
<stop stop-color="white" stop-opacity="0"/>
<stop offset="0.50284" stop-color="white"/>
<stop offset="1" stop-color="white" stop-opacity="0"/>
</linearGradient>
<linearGradient id="paint27_linear_0_1182" x1="64" y1="104" x2="88" y2="104" gradientUnits="userSpaceOnUse">
<stop stop-color="white" stop-opacity="0"/>
<stop offset="0.50284" stop-color="white"/>
<stop offset="1" stop-color="white" stop-opacity="0"/>
</linearGradient>
<linearGradient id="paint28_linear_0_1182" x1="1312" y1="535" x2="1312" y2="519" gradientUnits="userSpaceOnUse">
<stop stop-color="white" stop-opacity="0"/>
<stop offset="0.50284" stop-color="white"/>
<stop offset="1" stop-color="white" stop-opacity="0"/>
</linearGradient>
<linearGradient id="paint29_linear_0_1182" x1="1304" y1="527" x2="1320" y2="527" gradientUnits="userSpaceOnUse">
<stop stop-color="white" stop-opacity="0"/>
<stop offset="0.50284" stop-color="white"/>
<stop offset="1" stop-color="white" stop-opacity="0"/>
</linearGradient>
<linearGradient id="paint30_linear_0_1182" x1="1363" y1="189" x2="1363" y2="165" gradientUnits="userSpaceOnUse">
<stop stop-color="white" stop-opacity="0"/>
<stop offset="0.50284" stop-color="white"/>
<stop offset="1" stop-color="white" stop-opacity="0"/>
</linearGradient>
<linearGradient id="paint31_linear_0_1182" x1="1351" y1="177" x2="1375" y2="177" gradientUnits="userSpaceOnUse">
<stop stop-color="white" stop-opacity="0"/>
<stop offset="0.50284" stop-color="white"/>
<stop offset="1" stop-color="white" stop-opacity="0"/>
</linearGradient>
<linearGradient id="paint32_linear_0_1182" x1="912" y1="629" x2="912" y2="605" gradientUnits="userSpaceOnUse">
<stop stop-color="white" stop-opacity="0"/>
<stop offset="0.50284" stop-color="white"/>
<stop offset="1" stop-color="white" stop-opacity="0"/>
</linearGradient>
<linearGradient id="paint33_linear_0_1182" x1="900" y1="617" x2="924" y2="617" gradientUnits="userSpaceOnUse">
<stop stop-color="white" stop-opacity="0"/>
<stop offset="0.50284" stop-color="white"/>
<stop offset="1" stop-color="white" stop-opacity="0"/>
</linearGradient>
<linearGradient id="paint34_linear_0_1182" x1="1235" y1="349" x2="1235" y2="325" gradientUnits="userSpaceOnUse">
<stop stop-color="white" stop-opacity="0"/>
<stop offset="0.50284" stop-color="white"/>
<stop offset="1" stop-color="white" stop-opacity="0"/>
</linearGradient>
<linearGradient id="paint35_linear_0_1182" x1="1223" y1="337" x2="1247" y2="337" gradientUnits="userSpaceOnUse">
<stop stop-color="white" stop-opacity="0"/>
<stop offset="0.50284" stop-color="white"/>
<stop offset="1" stop-color="white" stop-opacity="0"/>
</linearGradient>
<clipPath id="clip0_0_1182">
<rect width="1440" height="709" fill="white" transform="translate(-1)"/>
</clipPath>
<clipPath id="clip1_0_1182">
<rect width="768" height="768" fill="white" transform="translate(335 -174)"/>
</clipPath>
<clipPath id="clip2_0_1182">
<rect x="335" y="-174" width="768" height="768" fill="white"/>
</clipPath>
<clipPath id="clip3_0_1182">
<rect x="335" y="-174" width="768" height="768" fill="white"/>
</clipPath>
</defs>
</svg>
